<svg width="47" height="82" viewBox="0 0 47 82" fill="none" xmlns="http://www.w3.org/2000/svg">
<path d="M37.6866 80.3773L1.19124 44.029C0.758063 43.5963 0.45195 43.1275 0.272902 42.6227C0.0909666 42.1179 0 41.577 0 41C0 40.423 0.0909666 39.8821 0.272902 39.3773C0.45195 38.8725 0.758063 38.4037 1.19124 37.971L37.6866 1.51451C38.6974 0.504837 39.9608 0 41.477 0C42.9931 0 44.2926 0.540897 45.3756 1.62269C46.4585 2.70449 47 3.96658 47 5.40897C47 6.85136 46.4585 8.11346 45.3756 9.19525L13.5369 41L45.3756 72.8047C46.3863 73.8144 46.8917 75.0578 46.8917 76.5348C46.8917 78.0147 46.3502 79.2955 45.2673 80.3773C44.1843 81.4591 42.9209 82 41.477 82C40.033 82 38.7696 81.4591 37.6866 80.3773Z" fill="black"/>
</svg>
