<svg width="56" height="48" viewBox="0 0 56 48" fill="none" xmlns="http://www.w3.org/2000/svg">
<mask id="path-1-inside-1_14_68" fill="white">
<path d="M36.0013 29.9997C36.5317 29.9997 37.0404 29.789 37.4154 29.414C37.7905 29.0389 38.0012 28.5302 38.0012 27.9998C38.0012 27.4694 37.7905 26.9607 37.4154 26.5857C37.0404 26.2106 36.5317 25.9999 36.0013 25.9999C35.4709 25.9999 34.9622 26.2106 34.5871 26.5857C34.2121 26.9607 34.0014 27.4694 34.0014 27.9998C34.0014 28.5302 34.2121 29.0389 34.5871 29.414C34.9622 29.789 35.4709 29.9997 36.0013 29.9997ZM36.0013 39.9991C36.5317 39.9991 37.0404 39.7884 37.4154 39.4134C37.7905 39.0383 38.0012 38.5296 38.0012 37.9992C38.0012 37.4688 37.7905 36.9602 37.4154 36.5851C37.0404 36.2101 36.5317 35.9994 36.0013 35.9994C35.4709 35.9994 34.9622 36.2101 34.5871 36.5851C34.2121 36.9602 34.0014 37.4688 34.0014 37.9992C34.0014 38.5296 34.2121 39.0383 34.5871 39.4134C34.9622 39.7884 35.4709 39.9991 36.0013 39.9991ZM13.0026 29.9997C12.7374 29.9997 12.4831 30.1051 12.2956 30.2926C12.108 30.4801 12.0027 30.7344 12.0027 30.9996C12.0027 31.2648 12.108 31.5192 12.2956 31.7067C12.4831 31.8942 12.7374 31.9996 13.0026 31.9996H23.002C23.2672 31.9996 23.5216 31.8942 23.7091 31.7067C23.8966 31.5192 24.002 31.2648 24.002 30.9996C24.002 30.7344 23.8966 30.4801 23.7091 30.2926C23.5216 30.1051 23.2672 29.9997 23.002 29.9997H13.0026ZM12.0027 34.9994C12.0027 34.7342 12.108 34.4799 12.2956 34.2923C12.4831 34.1048 12.7374 33.9995 13.0026 33.9995H23.002C23.2672 33.9995 23.5216 34.1048 23.7091 34.2923C23.8966 34.4799 24.002 34.7342 24.002 34.9994C24.002 35.2646 23.8966 35.519 23.7091 35.7065C23.5216 35.894 23.2672 35.9994 23.002 35.9994H13.0026C12.7374 35.9994 12.4831 35.894 12.2956 35.7065C12.108 35.519 12.0027 35.2646 12.0027 34.9994ZM12.0027 38.9992C12.0027 38.734 12.108 38.4796 12.2956 38.2921C12.4831 38.1046 12.7374 37.9992 13.0026 37.9992H23.002C23.2672 37.9992 23.5216 38.1046 23.7091 38.2921C23.8966 38.4796 24.002 38.734 24.002 38.9992C24.002 39.2644 23.8966 39.5187 23.7091 39.7062C23.5216 39.8938 23.2672 39.9991 23.002 39.9991H13.0026C12.7374 39.9991 12.4831 39.8938 12.2956 39.7062C12.108 39.5187 12.0027 39.2644 12.0027 38.9992Z"/>
<path d="M43.6287 2.73919C45.8824 4.5894 47.3818 7.19982 47.8445 10.0788C48.1192 11.7564 48.032 13.4734 47.5885 15.1145C47.1529 16.7457 46.3758 18.2658 45.3086 19.5742C44.751 20.2604 44.1192 20.8828 43.4247 21.4301C43.7927 22.21 44.0007 23.08 44.0007 23.9999V27.9997H46.0006V26.2358C46.0008 25.8645 46.1043 25.5006 46.2997 25.1848C46.495 24.8691 46.7744 24.6139 47.1065 24.4479L53.1062 21.4481C53.411 21.2958 53.7497 21.2239 54.0901 21.2392C54.4305 21.2545 54.7614 21.3566 55.0513 21.5357C55.3412 21.7148 55.5805 21.965 55.7465 22.2626C55.9126 22.5602 55.9998 22.8952 56 23.236V43.0448C55.9999 43.3717 55.9197 43.6936 55.7664 43.9823C55.6131 44.271 55.3913 44.5178 55.1206 44.7009C54.8498 44.884 54.5383 44.998 54.2132 45.0329C53.8882 45.0677 53.5596 45.0223 53.2562 44.9007L47.2565 42.5009C46.8858 42.3523 46.568 42.0961 46.3442 41.7653C46.1204 41.4346 46.0007 41.0444 46.0006 40.645V37.9991H44.0007V41.9989C44.0007 43.5901 43.3686 45.1161 42.2435 46.2413C41.1183 47.3664 39.5923 47.9985 38.0011 47.9985H12.0026C10.4114 47.9985 8.88534 47.3664 7.76019 46.2413C6.63504 45.1161 6.00294 43.5901 6.00294 41.9989V24.7999C4.45609 24.0072 3.11744 22.8618 2.09517 21.4561C0.511331 19.2784 -0.214859 16.5937 0.0552852 13.9145C0.207092 12.361 0.689894 10.8581 1.4712 9.5068C2.25388 8.14553 3.3207 6.96889 4.59902 6.057C6.78353 4.48704 9.46939 3.77589 12.1446 4.05912C13.7045 4.21911 15.1644 4.70708 16.4603 5.44903C17.8407 6.23587 19.033 7.31418 19.9541 8.60885C21.5105 10.7821 22.2189 13.4493 21.946 16.1084C21.8818 16.7484 21.7613 17.3815 21.586 18.0003H25.6078L25.5838 17.9603C24.8734 16.7183 24.3918 15.3588 24.1619 13.9465C23.8828 12.267 23.9667 10.5472 24.4079 8.90283C24.8477 7.24778 25.6389 5.70691 26.7277 4.3851C28.5873 2.11417 31.2177 0.607128 34.1173 0.151345C35.7622 -0.113304 37.4442 -0.0301878 39.055 0.395331C40.7319 0.834792 42.2927 1.63466 43.6287 2.73919ZM32.3154 18.0003H35.9152L35.6432 16.9864C35.5939 16.8014 35.4967 16.6326 35.3615 16.4971C35.2262 16.3616 35.0577 16.2641 34.8728 16.2144C34.6879 16.1648 34.4932 16.1647 34.3083 16.2142C34.1233 16.2637 33.9547 16.361 33.8193 16.4964L32.3154 18.0003ZM42.1448 19.6602C42.3735 19.4763 42.5937 19.2821 42.8048 19.0782L43.0648 18.8183C43.6647 18.1963 44.1787 17.4983 44.5947 16.7464C44.5772 16.5216 44.4902 16.3079 44.3458 16.1348C44.2014 15.9617 44.0067 15.8379 43.7887 15.7804L40.1389 14.8025C39.954 14.7527 39.7591 14.7525 39.574 14.8019C39.389 14.8514 39.2202 14.9487 39.0847 15.0842C38.9493 15.2197 38.8519 15.3884 38.8024 15.5735C38.753 15.7586 38.7532 15.9534 38.803 16.1384L39.343 18.1503C40.3953 18.3919 41.3627 18.9137 42.1428 19.6602H42.1448ZM9.25274 18.6663C9.09971 18.4935 8.89164 18.379 8.66382 18.3422C8.43601 18.3054 8.20247 18.3485 8.00282 18.4643L5.00299 20.1962C4.82386 20.2988 4.68106 20.4546 4.59435 20.642C4.50765 20.8294 4.48132 21.0391 4.51902 21.2421C5.01299 21.7541 5.56696 22.2081 6.16893 22.592C6.37172 21.7549 6.75202 20.9712 7.28407 20.2939C7.81612 19.6166 8.4875 19.0615 9.25274 18.6663ZM40.0009 23.9999C40.0009 23.4695 39.7902 22.9609 39.4152 22.5858C39.0401 22.2108 38.5315 22.0001 38.0011 22.0001H12.0026C11.4722 22.0001 10.9635 22.2108 10.5885 22.5858C10.2134 22.9609 10.0027 23.4695 10.0027 23.9999V41.9989C10.0027 42.5293 10.2134 43.038 10.5885 43.413C10.9635 43.7881 11.4722 43.9988 12.0026 43.9988H38.0011C38.5315 43.9988 39.0401 43.7881 39.4152 43.413C39.7902 43.038 40.0009 42.5293 40.0009 41.9989V23.9999ZM33.1993 7.86089L32.2194 4.21311C32.1618 3.99483 32.0377 3.79991 31.8642 3.65546C31.6907 3.51101 31.4765 3.42422 31.2515 3.40715C30.4915 3.82713 29.8015 4.3411 29.1916 4.92707L28.9416 5.17705C28.3416 5.80101 27.8257 6.50097 27.4077 7.25693C27.4255 7.48132 27.5127 7.69461 27.6571 7.8673C27.8015 8.03999 27.996 8.16354 28.2136 8.22087L31.8634 9.19881C32.0484 9.24864 32.2432 9.24884 32.4283 9.19938C32.6134 9.14992 32.7822 9.05256 32.9176 8.9171C33.0531 8.78164 33.1504 8.61286 33.1999 8.42779C33.2494 8.24271 33.2492 8.04787 33.1993 7.86289V7.86089ZM35.8172 2.18323C35.6307 2.31046 35.4884 2.49267 35.4103 2.70451C35.3322 2.91635 35.322 3.14727 35.3812 3.36516L36.3592 7.01494C36.4085 7.19993 36.5056 7.36867 36.6409 7.50418C36.7761 7.63969 36.9447 7.73718 37.1296 7.78685C37.3144 7.83652 37.5092 7.83661 37.6941 7.78712C37.879 7.73763 38.0477 7.64029 38.183 7.50491L40.8549 4.83307C41.0152 4.67442 41.1221 4.46978 41.1608 4.24759C41.1995 4.02539 41.1681 3.79666 41.0709 3.59314C40.3302 3.14751 39.534 2.80123 38.703 2.5632L38.363 2.47121C37.5308 2.26369 36.6748 2.16686 35.8172 2.18323ZM27.5917 17.0684C27.795 17.1658 28.0236 17.1976 28.2458 17.1592C28.468 17.1209 28.6727 17.0143 28.8316 16.8544L31.5054 14.1825C31.6408 14.0472 31.7382 13.8785 31.7876 13.6936C31.8371 13.5086 31.837 13.3139 31.7874 13.129C31.7377 12.9441 31.6402 12.7756 31.5047 12.6403C31.3692 12.5051 31.2005 12.4079 31.0155 12.3586L27.3657 11.3807C27.1481 11.3219 26.9176 11.3323 26.7062 11.4104C26.4947 11.4886 26.3129 11.6305 26.1858 11.8167C26.151 13.6646 26.6383 15.4849 27.5917 17.0684ZM44.4107 6.93295C44.2074 6.83548 43.9788 6.80371 43.7566 6.84206C43.5344 6.8804 43.3296 6.98696 43.1708 7.14693L40.4969 9.81878C40.3615 9.95415 40.2642 10.1228 40.2147 10.3077C40.1652 10.4927 40.1653 10.6874 40.215 10.8723C40.2646 11.0572 40.3621 11.2257 40.4976 11.361C40.6332 11.4962 40.8019 11.5934 40.9869 11.6427L44.6367 12.6206C45.1166 12.7486 45.5706 12.5406 45.8166 12.1846C45.8516 10.3366 45.3642 8.5163 44.4107 6.93295ZM37.5431 10.4587C37.1341 10.0498 36.5795 9.82006 36.0012 9.82006C35.4228 9.82006 34.8682 10.0498 34.4593 10.4587C34.0503 10.8677 33.8206 11.4223 33.8206 12.0006C33.8206 12.579 34.0503 13.1336 34.4593 13.5426C34.6618 13.745 34.9021 13.9057 35.1667 14.0153C35.4313 14.1248 35.7148 14.1812 36.0012 14.1812C36.2875 14.1812 36.5711 14.1248 36.8357 14.0153C37.1002 13.9057 37.3406 13.745 37.5431 13.5426C37.7456 13.3401 37.9062 13.0997 38.0158 12.8351C38.1254 12.5706 38.1818 12.287 38.1818 12.0006C38.1818 11.7143 38.1254 11.4307 38.0158 11.1662C37.9062 10.9016 37.7456 10.6612 37.5431 10.4587ZM8.00282 11.5367C8.15483 11.6244 8.32726 11.6706 8.50278 11.6706C8.67831 11.6706 8.85074 11.6244 9.00275 11.5367C9.15476 11.4489 9.28099 11.3227 9.36875 11.1707C9.45652 11.0187 9.50273 10.8463 9.50273 10.6707V7.20693C9.50361 6.99989 9.43995 6.79772 9.32059 6.62854C9.20124 6.45936 9.03212 6.33158 8.83677 6.26299C8.07283 6.45217 7.33719 6.74131 6.6489 7.12294L6.36891 7.28293C5.69027 7.69171 5.06831 8.18793 4.51902 8.75884C4.48132 8.96184 4.50765 9.17154 4.59435 9.35892C4.68106 9.54631 4.82386 9.70211 5.00299 9.80478L8.00282 11.5367ZM12.5026 7.20693V10.6707C12.5026 10.8463 12.5488 11.0187 12.6365 11.1707C12.7243 11.3227 12.8505 11.4489 13.0025 11.5367C13.1545 11.6244 13.327 11.6706 13.5025 11.6706C13.678 11.6706 13.8505 11.6244 14.0025 11.5367L17.0023 9.80478C17.1814 9.70211 17.3242 9.54631 17.4109 9.35892C17.4976 9.17154 17.524 8.96184 17.4863 8.75884C16.9363 8.18782 16.3137 7.6916 15.6344 7.28293L15.3544 7.12294C14.6668 6.74135 13.9318 6.4522 13.1685 6.26299C12.9732 6.33158 12.804 6.45936 12.6847 6.62854C12.5653 6.79772 12.5017 6.99989 12.5026 7.20693ZM3.50308 17.5983L6.50291 15.8664C6.6549 15.7787 6.78112 15.6524 6.86888 15.5004C6.95663 15.3484 7.00283 15.176 7.00283 15.0005C7.00283 14.825 6.95663 14.6525 6.86888 14.5005C6.78112 14.3485 6.6549 14.2223 6.50291 14.1345L3.50308 12.4026C3.32415 12.2986 3.11727 12.2529 2.91119 12.2719C2.7051 12.2909 2.51005 12.3737 2.35315 12.5086C1.88422 14.1368 1.88422 15.8642 2.35315 17.4923C2.65713 17.7523 3.10911 17.8263 3.50308 17.5983ZM20.0021 15.0005C20.0021 14.1365 19.8801 13.3006 19.6521 12.5086C19.4952 12.3737 19.3002 12.2909 19.0941 12.2719C18.888 12.2529 18.6811 12.2986 18.5022 12.4026L15.5024 14.1345C15.3504 14.2223 15.2242 14.3485 15.1364 14.5005C15.0487 14.6525 15.0025 14.825 15.0025 15.0005C15.0025 15.176 15.0487 15.3484 15.1364 15.5004C15.2242 15.6524 15.3504 15.7787 15.5024 15.8664L18.5022 17.5983C18.6811 17.7023 18.888 17.748 19.0941 17.729C19.3002 17.71 19.4952 17.6273 19.6521 17.4923C19.8849 16.6822 20.0027 15.8434 20.0021 15.0005ZM12.0026 16.7324C12.2319 16.602 12.4331 16.4276 12.5947 16.2192C12.7563 16.0107 12.875 15.7724 12.9441 15.5178C13.0133 15.2633 13.0313 14.9976 12.9973 14.7361C12.9633 14.4745 12.8779 14.2223 12.7461 13.9939C12.6142 13.7655 12.4384 13.5654 12.2289 13.4052C12.0194 13.245 11.7803 13.1278 11.5253 13.0604C11.2703 12.993 11.0045 12.9767 10.7432 13.0124C10.4819 13.0481 10.2302 13.1352 10.0027 13.2686C9.54711 13.5357 9.21566 13.9721 9.08068 14.4827C8.9457 14.9932 9.01814 15.5365 9.2822 15.9938C9.54625 16.4512 9.98049 16.7855 10.4901 16.9239C10.9998 17.0622 11.5435 16.9934 12.0026 16.7324Z"/>
</mask>
<path d="M36.0013 29.9997C36.5317 29.9997 37.0404 29.789 37.4154 29.414C37.7905 29.0389 38.0012 28.5302 38.0012 27.9998C38.0012 27.4694 37.7905 26.9607 37.4154 26.5857C37.0404 26.2106 36.5317 25.9999 36.0013 25.9999C35.4709 25.9999 34.9622 26.2106 34.5871 26.5857C34.2121 26.9607 34.0014 27.4694 34.0014 27.9998C34.0014 28.5302 34.2121 29.0389 34.5871 29.414C34.9622 29.789 35.4709 29.9997 36.0013 29.9997ZM36.0013 39.9991C36.5317 39.9991 37.0404 39.7884 37.4154 39.4134C37.7905 39.0383 38.0012 38.5296 38.0012 37.9992C38.0012 37.4688 37.7905 36.9602 37.4154 36.5851C37.0404 36.2101 36.5317 35.9994 36.0013 35.9994C35.4709 35.9994 34.9622 36.2101 34.5871 36.5851C34.2121 36.9602 34.0014 37.4688 34.0014 37.9992C34.0014 38.5296 34.2121 39.0383 34.5871 39.4134C34.9622 39.7884 35.4709 39.9991 36.0013 39.9991ZM13.0026 29.9997C12.7374 29.9997 12.4831 30.1051 12.2956 30.2926C12.108 30.4801 12.0027 30.7344 12.0027 30.9996C12.0027 31.2648 12.108 31.5192 12.2956 31.7067C12.4831 31.8942 12.7374 31.9996 13.0026 31.9996H23.002C23.2672 31.9996 23.5216 31.8942 23.7091 31.7067C23.8966 31.5192 24.002 31.2648 24.002 30.9996C24.002 30.7344 23.8966 30.4801 23.7091 30.2926C23.5216 30.1051 23.2672 29.9997 23.002 29.9997H13.0026ZM12.0027 34.9994C12.0027 34.7342 12.108 34.4799 12.2956 34.2923C12.4831 34.1048 12.7374 33.9995 13.0026 33.9995H23.002C23.2672 33.9995 23.5216 34.1048 23.7091 34.2923C23.8966 34.4799 24.002 34.7342 24.002 34.9994C24.002 35.2646 23.8966 35.519 23.7091 35.7065C23.5216 35.894 23.2672 35.9994 23.002 35.9994H13.0026C12.7374 35.9994 12.4831 35.894 12.2956 35.7065C12.108 35.519 12.0027 35.2646 12.0027 34.9994ZM12.0027 38.9992C12.0027 38.734 12.108 38.4796 12.2956 38.2921C12.4831 38.1046 12.7374 37.9992 13.0026 37.9992H23.002C23.2672 37.9992 23.5216 38.1046 23.7091 38.2921C23.8966 38.4796 24.002 38.734 24.002 38.9992C24.002 39.2644 23.8966 39.5187 23.7091 39.7062C23.5216 39.8938 23.2672 39.9991 23.002 39.9991H13.0026C12.7374 39.9991 12.4831 39.8938 12.2956 39.7062C12.108 39.5187 12.0027 39.2644 12.0027 38.9992Z" fill="#F7EE28"/>
<path d="M43.6287 2.73919C45.8824 4.5894 47.3818 7.19982 47.8445 10.0788C48.1192 11.7564 48.032 13.4734 47.5885 15.1145C47.1529 16.7457 46.3758 18.2658 45.3086 19.5742C44.751 20.2604 44.1192 20.8828 43.4247 21.4301C43.7927 22.21 44.0007 23.08 44.0007 23.9999V27.9997H46.0006V26.2358C46.0008 25.8645 46.1043 25.5006 46.2997 25.1848C46.495 24.8691 46.7744 24.6139 47.1065 24.4479L53.1062 21.4481C53.411 21.2958 53.7497 21.2239 54.0901 21.2392C54.4305 21.2545 54.7614 21.3566 55.0513 21.5357C55.3412 21.7148 55.5805 21.965 55.7465 22.2626C55.9126 22.5602 55.9998 22.8952 56 23.236V43.0448C55.9999 43.3717 55.9197 43.6936 55.7664 43.9823C55.6131 44.271 55.3913 44.5178 55.1206 44.7009C54.8498 44.884 54.5383 44.998 54.2132 45.0329C53.8882 45.0677 53.5596 45.0223 53.2562 44.9007L47.2565 42.5009C46.8858 42.3523 46.568 42.0961 46.3442 41.7653C46.1204 41.4346 46.0007 41.0444 46.0006 40.645V37.9991H44.0007V41.9989C44.0007 43.5901 43.3686 45.1161 42.2435 46.2413C41.1183 47.3664 39.5923 47.9985 38.0011 47.9985H12.0026C10.4114 47.9985 8.88534 47.3664 7.76019 46.2413C6.63504 45.1161 6.00294 43.5901 6.00294 41.9989V24.7999C4.45609 24.0072 3.11744 22.8618 2.09517 21.4561C0.511331 19.2784 -0.214859 16.5937 0.0552852 13.9145C0.207092 12.361 0.689894 10.8581 1.4712 9.5068C2.25388 8.14553 3.3207 6.96889 4.59902 6.057C6.78353 4.48704 9.46939 3.77589 12.1446 4.05912C13.7045 4.21911 15.1644 4.70708 16.4603 5.44903C17.8407 6.23587 19.033 7.31418 19.9541 8.60885C21.5105 10.7821 22.2189 13.4493 21.946 16.1084C21.8818 16.7484 21.7613 17.3815 21.586 18.0003H25.6078L25.5838 17.9603C24.8734 16.7183 24.3918 15.3588 24.1619 13.9465C23.8828 12.267 23.9667 10.5472 24.4079 8.90283C24.8477 7.24778 25.6389 5.70691 26.7277 4.3851C28.5873 2.11417 31.2177 0.607128 34.1173 0.151345C35.7622 -0.113304 37.4442 -0.0301878 39.055 0.395331C40.7319 0.834792 42.2927 1.63466 43.6287 2.73919ZM32.3154 18.0003H35.9152L35.6432 16.9864C35.5939 16.8014 35.4967 16.6326 35.3615 16.4971C35.2262 16.3616 35.0577 16.2641 34.8728 16.2144C34.6879 16.1648 34.4932 16.1647 34.3083 16.2142C34.1233 16.2637 33.9547 16.361 33.8193 16.4964L32.3154 18.0003ZM42.1448 19.6602C42.3735 19.4763 42.5937 19.2821 42.8048 19.0782L43.0648 18.8183C43.6647 18.1963 44.1787 17.4983 44.5947 16.7464C44.5772 16.5216 44.4902 16.3079 44.3458 16.1348C44.2014 15.9617 44.0067 15.8379 43.7887 15.7804L40.1389 14.8025C39.954 14.7527 39.7591 14.7525 39.574 14.8019C39.389 14.8514 39.2202 14.9487 39.0847 15.0842C38.9493 15.2197 38.8519 15.3884 38.8024 15.5735C38.753 15.7586 38.7532 15.9534 38.803 16.1384L39.343 18.1503C40.3953 18.3919 41.3627 18.9137 42.1428 19.6602H42.1448ZM9.25274 18.6663C9.09971 18.4935 8.89164 18.379 8.66382 18.3422C8.43601 18.3054 8.20247 18.3485 8.00282 18.4643L5.00299 20.1962C4.82386 20.2988 4.68106 20.4546 4.59435 20.642C4.50765 20.8294 4.48132 21.0391 4.51902 21.2421C5.01299 21.7541 5.56696 22.2081 6.16893 22.592C6.37172 21.7549 6.75202 20.9712 7.28407 20.2939C7.81612 19.6166 8.4875 19.0615 9.25274 18.6663ZM40.0009 23.9999C40.0009 23.4695 39.7902 22.9609 39.4152 22.5858C39.0401 22.2108 38.5315 22.0001 38.0011 22.0001H12.0026C11.4722 22.0001 10.9635 22.2108 10.5885 22.5858C10.2134 22.9609 10.0027 23.4695 10.0027 23.9999V41.9989C10.0027 42.5293 10.2134 43.038 10.5885 43.413C10.9635 43.7881 11.4722 43.9988 12.0026 43.9988H38.0011C38.5315 43.9988 39.0401 43.7881 39.4152 43.413C39.7902 43.038 40.0009 42.5293 40.0009 41.9989V23.9999ZM33.1993 7.86089L32.2194 4.21311C32.1618 3.99483 32.0377 3.79991 31.8642 3.65546C31.6907 3.51101 31.4765 3.42422 31.2515 3.40715C30.4915 3.82713 29.8015 4.3411 29.1916 4.92707L28.9416 5.17705C28.3416 5.80101 27.8257 6.50097 27.4077 7.25693C27.4255 7.48132 27.5127 7.69461 27.6571 7.8673C27.8015 8.03999 27.996 8.16354 28.2136 8.22087L31.8634 9.19881C32.0484 9.24864 32.2432 9.24884 32.4283 9.19938C32.6134 9.14992 32.7822 9.05256 32.9176 8.9171C33.0531 8.78164 33.1504 8.61286 33.1999 8.42779C33.2494 8.24271 33.2492 8.04787 33.1993 7.86289V7.86089ZM35.8172 2.18323C35.6307 2.31046 35.4884 2.49267 35.4103 2.70451C35.3322 2.91635 35.322 3.14727 35.3812 3.36516L36.3592 7.01494C36.4085 7.19993 36.5056 7.36867 36.6409 7.50418C36.7761 7.63969 36.9447 7.73718 37.1296 7.78685C37.3144 7.83652 37.5092 7.83661 37.6941 7.78712C37.879 7.73763 38.0477 7.64029 38.183 7.50491L40.8549 4.83307C41.0152 4.67442 41.1221 4.46978 41.1608 4.24759C41.1995 4.02539 41.1681 3.79666 41.0709 3.59314C40.3302 3.14751 39.534 2.80123 38.703 2.5632L38.363 2.47121C37.5308 2.26369 36.6748 2.16686 35.8172 2.18323ZM27.5917 17.0684C27.795 17.1658 28.0236 17.1976 28.2458 17.1592C28.468 17.1209 28.6727 17.0143 28.8316 16.8544L31.5054 14.1825C31.6408 14.0472 31.7382 13.8785 31.7876 13.6936C31.8371 13.5086 31.837 13.3139 31.7874 13.129C31.7377 12.9441 31.6402 12.7756 31.5047 12.6403C31.3692 12.5051 31.2005 12.4079 31.0155 12.3586L27.3657 11.3807C27.1481 11.3219 26.9176 11.3323 26.7062 11.4104C26.4947 11.4886 26.3129 11.6305 26.1858 11.8167C26.151 13.6646 26.6383 15.4849 27.5917 17.0684ZM44.4107 6.93295C44.2074 6.83548 43.9788 6.80371 43.7566 6.84206C43.5344 6.8804 43.3296 6.98696 43.1708 7.14693L40.4969 9.81878C40.3615 9.95415 40.2642 10.1228 40.2147 10.3077C40.1652 10.4927 40.1653 10.6874 40.215 10.8723C40.2646 11.0572 40.3621 11.2257 40.4976 11.361C40.6332 11.4962 40.8019 11.5934 40.9869 11.6427L44.6367 12.6206C45.1166 12.7486 45.5706 12.5406 45.8166 12.1846C45.8516 10.3366 45.3642 8.5163 44.4107 6.93295ZM37.5431 10.4587C37.1341 10.0498 36.5795 9.82006 36.0012 9.82006C35.4228 9.82006 34.8682 10.0498 34.4593 10.4587C34.0503 10.8677 33.8206 11.4223 33.8206 12.0006C33.8206 12.579 34.0503 13.1336 34.4593 13.5426C34.6618 13.745 34.9021 13.9057 35.1667 14.0153C35.4313 14.1248 35.7148 14.1812 36.0012 14.1812C36.2875 14.1812 36.5711 14.1248 36.8357 14.0153C37.1002 13.9057 37.3406 13.745 37.5431 13.5426C37.7456 13.3401 37.9062 13.0997 38.0158 12.8351C38.1254 12.5706 38.1818 12.287 38.1818 12.0006C38.1818 11.7143 38.1254 11.4307 38.0158 11.1662C37.9062 10.9016 37.7456 10.6612 37.5431 10.4587ZM8.00282 11.5367C8.15483 11.6244 8.32726 11.6706 8.50278 11.6706C8.67831 11.6706 8.85074 11.6244 9.00275 11.5367C9.15476 11.4489 9.28099 11.3227 9.36875 11.1707C9.45652 11.0187 9.50273 10.8463 9.50273 10.6707V7.20693C9.50361 6.99989 9.43995 6.79772 9.32059 6.62854C9.20124 6.45936 9.03212 6.33158 8.83677 6.26299C8.07283 6.45217 7.33719 6.74131 6.6489 7.12294L6.36891 7.28293C5.69027 7.69171 5.06831 8.18793 4.51902 8.75884C4.48132 8.96184 4.50765 9.17154 4.59435 9.35892C4.68106 9.54631 4.82386 9.70211 5.00299 9.80478L8.00282 11.5367ZM12.5026 7.20693V10.6707C12.5026 10.8463 12.5488 11.0187 12.6365 11.1707C12.7243 11.3227 12.8505 11.4489 13.0025 11.5367C13.1545 11.6244 13.327 11.6706 13.5025 11.6706C13.678 11.6706 13.8505 11.6244 14.0025 11.5367L17.0023 9.80478C17.1814 9.70211 17.3242 9.54631 17.4109 9.35892C17.4976 9.17154 17.524 8.96184 17.4863 8.75884C16.9363 8.18782 16.3137 7.6916 15.6344 7.28293L15.3544 7.12294C14.6668 6.74135 13.9318 6.4522 13.1685 6.26299C12.9732 6.33158 12.804 6.45936 12.6847 6.62854C12.5653 6.79772 12.5017 6.99989 12.5026 7.20693ZM3.50308 17.5983L6.50291 15.8664C6.6549 15.7787 6.78112 15.6524 6.86888 15.5004C6.95663 15.3484 7.00283 15.176 7.00283 15.0005C7.00283 14.825 6.95663 14.6525 6.86888 14.5005C6.78112 14.3485 6.6549 14.2223 6.50291 14.1345L3.50308 12.4026C3.32415 12.2986 3.11727 12.2529 2.91119 12.2719C2.7051 12.2909 2.51005 12.3737 2.35315 12.5086C1.88422 14.1368 1.88422 15.8642 2.35315 17.4923C2.65713 17.7523 3.10911 17.8263 3.50308 17.5983ZM20.0021 15.0005C20.0021 14.1365 19.8801 13.3006 19.6521 12.5086C19.4952 12.3737 19.3002 12.2909 19.0941 12.2719C18.888 12.2529 18.6811 12.2986 18.5022 12.4026L15.5024 14.1345C15.3504 14.2223 15.2242 14.3485 15.1364 14.5005C15.0487 14.6525 15.0025 14.825 15.0025 15.0005C15.0025 15.176 15.0487 15.3484 15.1364 15.5004C15.2242 15.6524 15.3504 15.7787 15.5024 15.8664L18.5022 17.5983C18.6811 17.7023 18.888 17.748 19.0941 17.729C19.3002 17.71 19.4952 17.6273 19.6521 17.4923C19.8849 16.6822 20.0027 15.8434 20.0021 15.0005ZM12.0026 16.7324C12.2319 16.602 12.4331 16.4276 12.5947 16.2192C12.7563 16.0107 12.875 15.7724 12.9441 15.5178C13.0133 15.2633 13.0313 14.9976 12.9973 14.7361C12.9633 14.4745 12.8779 14.2223 12.7461 13.9939C12.6142 13.7655 12.4384 13.5654 12.2289 13.4052C12.0194 13.245 11.7803 13.1278 11.5253 13.0604C11.2703 12.993 11.0045 12.9767 10.7432 13.0124C10.4819 13.0481 10.2302 13.1352 10.0027 13.2686C9.54711 13.5357 9.21566 13.9721 9.08068 14.4827C8.9457 14.9932 9.01814 15.5365 9.2822 15.9938C9.54625 16.4512 9.98049 16.7855 10.4901 16.9239C10.9998 17.0622 11.5435 16.9934 12.0026 16.7324Z" fill="#F7EE28"/>
<path d="M36.0013 29.9997C36.5317 29.9997 37.0404 29.789 37.4154 29.414C37.7905 29.0389 38.0012 28.5302 38.0012 27.9998C38.0012 27.4694 37.7905 26.9607 37.4154 26.5857C37.0404 26.2106 36.5317 25.9999 36.0013 25.9999C35.4709 25.9999 34.9622 26.2106 34.5871 26.5857C34.2121 26.9607 34.0014 27.4694 34.0014 27.9998C34.0014 28.5302 34.2121 29.0389 34.5871 29.414C34.9622 29.789 35.4709 29.9997 36.0013 29.9997ZM36.0013 39.9991C36.5317 39.9991 37.0404 39.7884 37.4154 39.4134C37.7905 39.0383 38.0012 38.5296 38.0012 37.9992C38.0012 37.4688 37.7905 36.9602 37.4154 36.5851C37.0404 36.2101 36.5317 35.9994 36.0013 35.9994C35.4709 35.9994 34.9622 36.2101 34.5871 36.5851C34.2121 36.9602 34.0014 37.4688 34.0014 37.9992C34.0014 38.5296 34.2121 39.0383 34.5871 39.4134C34.9622 39.7884 35.4709 39.9991 36.0013 39.9991ZM13.0026 29.9997C12.7374 29.9997 12.4831 30.1051 12.2956 30.2926C12.108 30.4801 12.0027 30.7344 12.0027 30.9996C12.0027 31.2648 12.108 31.5192 12.2956 31.7067C12.4831 31.8942 12.7374 31.9996 13.0026 31.9996H23.002C23.2672 31.9996 23.5216 31.8942 23.7091 31.7067C23.8966 31.5192 24.002 31.2648 24.002 30.9996C24.002 30.7344 23.8966 30.4801 23.7091 30.2926C23.5216 30.1051 23.2672 29.9997 23.002 29.9997H13.0026ZM12.0027 34.9994C12.0027 34.7342 12.108 34.4799 12.2956 34.2923C12.4831 34.1048 12.7374 33.9995 13.0026 33.9995H23.002C23.2672 33.9995 23.5216 34.1048 23.7091 34.2923C23.8966 34.4799 24.002 34.7342 24.002 34.9994C24.002 35.2646 23.8966 35.519 23.7091 35.7065C23.5216 35.894 23.2672 35.9994 23.002 35.9994H13.0026C12.7374 35.9994 12.4831 35.894 12.2956 35.7065C12.108 35.519 12.0027 35.2646 12.0027 34.9994ZM12.0027 38.9992C12.0027 38.734 12.108 38.4796 12.2956 38.2921C12.4831 38.1046 12.7374 37.9992 13.0026 37.9992H23.002C23.2672 37.9992 23.5216 38.1046 23.7091 38.2921C23.8966 38.4796 24.002 38.734 24.002 38.9992C24.002 39.2644 23.8966 39.5187 23.7091 39.7062C23.5216 39.8938 23.2672 39.9991 23.002 39.9991H13.0026C12.7374 39.9991 12.4831 39.8938 12.2956 39.7062C12.108 39.5187 12.0027 39.2644 12.0027 38.9992Z" stroke="black" stroke-width="2" mask="url(#path-1-inside-1_14_68)"/>
<path d="M43.6287 2.73919C45.8824 4.5894 47.3818 7.19982 47.8445 10.0788C48.1192 11.7564 48.032 13.4734 47.5885 15.1145C47.1529 16.7457 46.3758 18.2658 45.3086 19.5742C44.751 20.2604 44.1192 20.8828 43.4247 21.4301C43.7927 22.21 44.0007 23.08 44.0007 23.9999V27.9997H46.0006V26.2358C46.0008 25.8645 46.1043 25.5006 46.2997 25.1848C46.495 24.8691 46.7744 24.6139 47.1065 24.4479L53.1062 21.4481C53.411 21.2958 53.7497 21.2239 54.0901 21.2392C54.4305 21.2545 54.7614 21.3566 55.0513 21.5357C55.3412 21.7148 55.5805 21.965 55.7465 22.2626C55.9126 22.5602 55.9998 22.8952 56 23.236V43.0448C55.9999 43.3717 55.9197 43.6936 55.7664 43.9823C55.6131 44.271 55.3913 44.5178 55.1206 44.7009C54.8498 44.884 54.5383 44.998 54.2132 45.0329C53.8882 45.0677 53.5596 45.0223 53.2562 44.9007L47.2565 42.5009C46.8858 42.3523 46.568 42.0961 46.3442 41.7653C46.1204 41.4346 46.0007 41.0444 46.0006 40.645V37.9991H44.0007V41.9989C44.0007 43.5901 43.3686 45.1161 42.2435 46.2413C41.1183 47.3664 39.5923 47.9985 38.0011 47.9985H12.0026C10.4114 47.9985 8.88534 47.3664 7.76019 46.2413C6.63504 45.1161 6.00294 43.5901 6.00294 41.9989V24.7999C4.45609 24.0072 3.11744 22.8618 2.09517 21.4561C0.511331 19.2784 -0.214859 16.5937 0.0552852 13.9145C0.207092 12.361 0.689894 10.8581 1.4712 9.5068C2.25388 8.14553 3.3207 6.96889 4.59902 6.057C6.78353 4.48704 9.46939 3.77589 12.1446 4.05912C13.7045 4.21911 15.1644 4.70708 16.4603 5.44903C17.8407 6.23587 19.033 7.31418 19.9541 8.60885C21.5105 10.7821 22.2189 13.4493 21.946 16.1084C21.8818 16.7484 21.7613 17.3815 21.586 18.0003H25.6078L25.5838 17.9603C24.8734 16.7183 24.3918 15.3588 24.1619 13.9465C23.8828 12.267 23.9667 10.5472 24.4079 8.90283C24.8477 7.24778 25.6389 5.70691 26.7277 4.3851C28.5873 2.11417 31.2177 0.607128 34.1173 0.151345C35.7622 -0.113304 37.4442 -0.0301878 39.055 0.395331C40.7319 0.834792 42.2927 1.63466 43.6287 2.73919ZM32.3154 18.0003H35.9152L35.6432 16.9864C35.5939 16.8014 35.4967 16.6326 35.3615 16.4971C35.2262 16.3616 35.0577 16.2641 34.8728 16.2144C34.6879 16.1648 34.4932 16.1647 34.3083 16.2142C34.1233 16.2637 33.9547 16.361 33.8193 16.4964L32.3154 18.0003ZM42.1448 19.6602C42.3735 19.4763 42.5937 19.2821 42.8048 19.0782L43.0648 18.8183C43.6647 18.1963 44.1787 17.4983 44.5947 16.7464C44.5772 16.5216 44.4902 16.3079 44.3458 16.1348C44.2014 15.9617 44.0067 15.8379 43.7887 15.7804L40.1389 14.8025C39.954 14.7527 39.7591 14.7525 39.574 14.8019C39.389 14.8514 39.2202 14.9487 39.0847 15.0842C38.9493 15.2197 38.8519 15.3884 38.8024 15.5735C38.753 15.7586 38.7532 15.9534 38.803 16.1384L39.343 18.1503C40.3953 18.3919 41.3627 18.9137 42.1428 19.6602H42.1448ZM9.25274 18.6663C9.09971 18.4935 8.89164 18.379 8.66382 18.3422C8.43601 18.3054 8.20247 18.3485 8.00282 18.4643L5.00299 20.1962C4.82386 20.2988 4.68106 20.4546 4.59435 20.642C4.50765 20.8294 4.48132 21.0391 4.51902 21.2421C5.01299 21.7541 5.56696 22.2081 6.16893 22.592C6.37172 21.7549 6.75202 20.9712 7.28407 20.2939C7.81612 19.6166 8.4875 19.0615 9.25274 18.6663ZM40.0009 23.9999C40.0009 23.4695 39.7902 22.9609 39.4152 22.5858C39.0401 22.2108 38.5315 22.0001 38.0011 22.0001H12.0026C11.4722 22.0001 10.9635 22.2108 10.5885 22.5858C10.2134 22.9609 10.0027 23.4695 10.0027 23.9999V41.9989C10.0027 42.5293 10.2134 43.038 10.5885 43.413C10.9635 43.7881 11.4722 43.9988 12.0026 43.9988H38.0011C38.5315 43.9988 39.0401 43.7881 39.4152 43.413C39.7902 43.038 40.0009 42.5293 40.0009 41.9989V23.9999ZM33.1993 7.86089L32.2194 4.21311C32.1618 3.99483 32.0377 3.79991 31.8642 3.65546C31.6907 3.51101 31.4765 3.42422 31.2515 3.40715C30.4915 3.82713 29.8015 4.3411 29.1916 4.92707L28.9416 5.17705C28.3416 5.80101 27.8257 6.50097 27.4077 7.25693C27.4255 7.48132 27.5127 7.69461 27.6571 7.8673C27.8015 8.03999 27.996 8.16354 28.2136 8.22087L31.8634 9.19881C32.0484 9.24864 32.2432 9.24884 32.4283 9.19938C32.6134 9.14992 32.7822 9.05256 32.9176 8.9171C33.0531 8.78164 33.1504 8.61286 33.1999 8.42779C33.2494 8.24271 33.2492 8.04787 33.1993 7.86289V7.86089ZM35.8172 2.18323C35.6307 2.31046 35.4884 2.49267 35.4103 2.70451C35.3322 2.91635 35.322 3.14727 35.3812 3.36516L36.3592 7.01494C36.4085 7.19993 36.5056 7.36867 36.6409 7.50418C36.7761 7.63969 36.9447 7.73718 37.1296 7.78685C37.3144 7.83652 37.5092 7.83661 37.6941 7.78712C37.879 7.73763 38.0477 7.64029 38.183 7.50491L40.8549 4.83307C41.0152 4.67442 41.1221 4.46978 41.1608 4.24759C41.1995 4.02539 41.1681 3.79666 41.0709 3.59314C40.3302 3.14751 39.534 2.80123 38.703 2.5632L38.363 2.47121C37.5308 2.26369 36.6748 2.16686 35.8172 2.18323ZM27.5917 17.0684C27.795 17.1658 28.0236 17.1976 28.2458 17.1592C28.468 17.1209 28.6727 17.0143 28.8316 16.8544L31.5054 14.1825C31.6408 14.0472 31.7382 13.8785 31.7876 13.6936C31.8371 13.5086 31.837 13.3139 31.7874 13.129C31.7377 12.9441 31.6402 12.7756 31.5047 12.6403C31.3692 12.5051 31.2005 12.4079 31.0155 12.3586L27.3657 11.3807C27.1481 11.3219 26.9176 11.3323 26.7062 11.4104C26.4947 11.4886 26.3129 11.6305 26.1858 11.8167C26.151 13.6646 26.6383 15.4849 27.5917 17.0684ZM44.4107 6.93295C44.2074 6.83548 43.9788 6.80371 43.7566 6.84206C43.5344 6.8804 43.3296 6.98696 43.1708 7.14693L40.4969 9.81878C40.3615 9.95415 40.2642 10.1228 40.2147 10.3077C40.1652 10.4927 40.1653 10.6874 40.215 10.8723C40.2646 11.0572 40.3621 11.2257 40.4976 11.361C40.6332 11.4962 40.8019 11.5934 40.9869 11.6427L44.6367 12.6206C45.1166 12.7486 45.5706 12.5406 45.8166 12.1846C45.8516 10.3366 45.3642 8.5163 44.4107 6.93295ZM37.5431 10.4587C37.1341 10.0498 36.5795 9.82006 36.0012 9.82006C35.4228 9.82006 34.8682 10.0498 34.4593 10.4587C34.0503 10.8677 33.8206 11.4223 33.8206 12.0006C33.8206 12.579 34.0503 13.1336 34.4593 13.5426C34.6618 13.745 34.9021 13.9057 35.1667 14.0153C35.4313 14.1248 35.7148 14.1812 36.0012 14.1812C36.2875 14.1812 36.5711 14.1248 36.8357 14.0153C37.1002 13.9057 37.3406 13.745 37.5431 13.5426C37.7456 13.3401 37.9062 13.0997 38.0158 12.8351C38.1254 12.5706 38.1818 12.287 38.1818 12.0006C38.1818 11.7143 38.1254 11.4307 38.0158 11.1662C37.9062 10.9016 37.7456 10.6612 37.5431 10.4587ZM8.00282 11.5367C8.15483 11.6244 8.32726 11.6706 8.50278 11.6706C8.67831 11.6706 8.85074 11.6244 9.00275 11.5367C9.15476 11.4489 9.28099 11.3227 9.36875 11.1707C9.45652 11.0187 9.50273 10.8463 9.50273 10.6707V7.20693C9.50361 6.99989 9.43995 6.79772 9.32059 6.62854C9.20124 6.45936 9.03212 6.33158 8.83677 6.26299C8.07283 6.45217 7.33719 6.74131 6.6489 7.12294L6.36891 7.28293C5.69027 7.69171 5.06831 8.18793 4.51902 8.75884C4.48132 8.96184 4.50765 9.17154 4.59435 9.35892C4.68106 9.54631 4.82386 9.70211 5.00299 9.80478L8.00282 11.5367ZM12.5026 7.20693V10.6707C12.5026 10.8463 12.5488 11.0187 12.6365 11.1707C12.7243 11.3227 12.8505 11.4489 13.0025 11.5367C13.1545 11.6244 13.327 11.6706 13.5025 11.6706C13.678 11.6706 13.8505 11.6244 14.0025 11.5367L17.0023 9.80478C17.1814 9.70211 17.3242 9.54631 17.4109 9.35892C17.4976 9.17154 17.524 8.96184 17.4863 8.75884C16.9363 8.18782 16.3137 7.6916 15.6344 7.28293L15.3544 7.12294C14.6668 6.74135 13.9318 6.4522 13.1685 6.26299C12.9732 6.33158 12.804 6.45936 12.6847 6.62854C12.5653 6.79772 12.5017 6.99989 12.5026 7.20693ZM3.50308 17.5983L6.50291 15.8664C6.6549 15.7787 6.78112 15.6524 6.86888 15.5004C6.95663 15.3484 7.00283 15.176 7.00283 15.0005C7.00283 14.825 6.95663 14.6525 6.86888 14.5005C6.78112 14.3485 6.6549 14.2223 6.50291 14.1345L3.50308 12.4026C3.32415 12.2986 3.11727 12.2529 2.91119 12.2719C2.7051 12.2909 2.51005 12.3737 2.35315 12.5086C1.88422 14.1368 1.88422 15.8642 2.35315 17.4923C2.65713 17.7523 3.10911 17.8263 3.50308 17.5983ZM20.0021 15.0005C20.0021 14.1365 19.8801 13.3006 19.6521 12.5086C19.4952 12.3737 19.3002 12.2909 19.0941 12.2719C18.888 12.2529 18.6811 12.2986 18.5022 12.4026L15.5024 14.1345C15.3504 14.2223 15.2242 14.3485 15.1364 14.5005C15.0487 14.6525 15.0025 14.825 15.0025 15.0005C15.0025 15.176 15.0487 15.3484 15.1364 15.5004C15.2242 15.6524 15.3504 15.7787 15.5024 15.8664L18.5022 17.5983C18.6811 17.7023 18.888 17.748 19.0941 17.729C19.3002 17.71 19.4952 17.6273 19.6521 17.4923C19.8849 16.6822 20.0027 15.8434 20.0021 15.0005ZM12.0026 16.7324C12.2319 16.602 12.4331 16.4276 12.5947 16.2192C12.7563 16.0107 12.875 15.7724 12.9441 15.5178C13.0133 15.2633 13.0313 14.9976 12.9973 14.7361C12.9633 14.4745 12.8779 14.2223 12.7461 13.9939C12.6142 13.7655 12.4384 13.5654 12.2289 13.4052C12.0194 13.245 11.7803 13.1278 11.5253 13.0604C11.2703 12.993 11.0045 12.9767 10.7432 13.0124C10.4819 13.0481 10.2302 13.1352 10.0027 13.2686C9.54711 13.5357 9.21566 13.9721 9.08068 14.4827C8.9457 14.9932 9.01814 15.5365 9.2822 15.9938C9.54625 16.4512 9.98049 16.7855 10.4901 16.9239C10.9998 17.0622 11.5435 16.9934 12.0026 16.7324Z" stroke="black" stroke-width="2" mask="url(#path-1-inside-1_14_68)"/>
</svg>
