<svg width="1440" height="1024" viewBox="0 0 1440 1024" fill="none" xmlns="http://www.w3.org/2000/svg">
<path d="M62.4999 0L62.4998 1024M132.5 0L132.5 1024M198.5 0L198.5 1024M268.5 0L268.5 1024M339.5 0L339.5 1024M409.5 0L409.5 1024M475.5 0L475.5 1024M545.5 0L545.5 1024M616.5 0L616.5 1024M686.5 0L686.5 1024M752.5 0L752.5 1024M822.5 0L822.5 1024M893.5 0L893.5 1024M963.5 0L963.5 1024M1029.5 0V1024M1099.5 0V1024M1172.5 0V1024M1242.5 0V1024M1313.5 0V1024M1383.5 0V1024M1440 58.0001L0 58M1440 129L0 129M1440 199L0 199M1440 265L0 265M1440 335L0 335M1440 406L0 406M1440 476L0 476M1440 542L0 542M1440 612L0 612M1440 683L0 683M1440 753L0 753M1440 819L0 819M1440 889L0 889M1440 962L0 962" stroke="#AEA9A9" stroke-opacity="0.82"/>
</svg>
