<svg width="346" height="57" viewBox="0 0 346 57" fill="none" xmlns="http://www.w3.org/2000/svg">
<path d="M2 15.416V13.976H10.832L24.656 43.352L23.072 47H16.832L2 15.416ZM29.12 33.128H28.928L25.712 40.904L21.584 32.072L29.12 13.976H38.24V47H29.12V33.128ZM2 20.168L10.832 38.984V47H2V20.168Z" fill="#C90DCD"/>
<path d="M56.6128 31.832C56.6128 31 56.5808 30.408 56.5168 30.056C56.4528 29.704 56.2607 29.448 55.9408 29.288C55.6528 29.128 55.1088 29.016 54.3088 28.952C53.8288 28.92 52.7888 28.904 51.1888 28.904C49.6528 28.904 48.2287 28.968 46.9167 29.096L44.3727 29.24V23C47.3807 22.424 50.6287 22.136 54.1167 22.136C56.8047 22.136 58.9008 22.328 60.4048 22.712C61.9408 23.096 63.0928 23.704 63.8608 24.536C64.5328 25.304 64.9648 26.28 65.1568 27.464C65.3808 28.648 65.4928 30.296 65.4928 32.408V47H56.6128V31.832ZM49.5088 47.336C47.3008 47.336 45.6688 46.728 44.6128 45.512C43.5568 44.264 43.0288 42.392 43.0288 39.896C43.0288 38.36 43.1407 37.128 43.3647 36.2C43.5887 35.24 43.9728 34.488 44.5168 33.944C45.0608 33.368 45.8128 32.968 46.7728 32.744C47.7328 32.488 48.9968 32.36 50.5648 32.36L54.5968 32.456V36.728H54.1167C53.3807 36.728 52.9008 36.744 52.6768 36.776C52.0367 36.808 51.7008 37.112 51.6688 37.688C51.6368 37.88 51.6208 38.28 51.6208 38.888C51.6208 39.368 51.6368 39.736 51.6688 39.992C51.7328 40.248 51.8287 40.456 51.9567 40.616C52.1167 40.84 52.3568 40.968 52.6768 41C53.1247 41.064 53.6047 41.096 54.1167 41.096H54.5968V45.992C53.8928 46.536 53.1408 46.888 52.3408 47.048C51.5728 47.24 50.6288 47.336 49.5088 47.336Z" fill="#C90DCD"/>
<path d="M77.3304 46.856C76.0504 46.856 74.9624 46.648 74.0664 46.232C73.1704 45.784 72.4344 45.08 71.8584 44.12C70.7064 42.264 70.1304 39.032 70.1304 34.424C70.1304 29.784 70.7064 26.568 71.8584 24.776C72.4344 23.88 73.1704 23.224 74.0664 22.808C74.9624 22.392 76.0504 22.184 77.3304 22.184C78.4184 22.184 79.3464 22.28 80.1144 22.472C80.8824 22.664 81.5864 23.016 82.2264 23.528V29.576H81.6984C80.9944 29.576 80.4824 29.624 80.1624 29.72C79.8744 29.784 79.6504 29.944 79.4904 30.2C79.3304 30.552 79.2344 31.048 79.2024 31.688C79.1704 32.136 79.1544 33.08 79.1544 34.52C79.1544 35.96 79.1704 36.904 79.2024 37.352C79.2344 38.024 79.3304 38.52 79.4904 38.84C79.6504 39.128 79.9064 39.304 80.2584 39.368C80.7064 39.432 81.1864 39.464 81.6984 39.464H82.2264V45.56C81.5864 46.072 80.8984 46.424 80.1624 46.616C79.4264 46.776 78.4824 46.856 77.3304 46.856ZM80.5464 56.888C78.9464 56.888 77.0264 56.792 74.7864 56.6L71.9064 56.312V50.12H78.3384C79.4904 50.12 80.6104 50.088 81.6984 50.024C82.4984 49.96 83.0744 49.8 83.4264 49.544C83.8104 49.32 84.0504 48.92 84.1464 48.344C84.2104 47.576 84.2424 46.76 84.2424 45.896V22.52H93.1224V44.312C93.1224 46.808 93.0104 48.76 92.7864 50.168C92.5624 51.608 92.0824 52.808 91.3464 53.768C90.5144 54.824 89.2344 55.608 87.5064 56.12C85.8104 56.632 83.4904 56.888 80.5464 56.888Z" fill="#C90DCD"/>
<path d="M111.128 31.832C111.128 31 111.096 30.408 111.032 30.056C110.968 29.704 110.776 29.448 110.456 29.288C110.168 29.128 109.624 29.016 108.824 28.952C108.344 28.92 107.304 28.904 105.704 28.904C104.168 28.904 102.744 28.968 101.432 29.096L98.8884 29.24V23C101.896 22.424 105.144 22.136 108.632 22.136C111.32 22.136 113.416 22.328 114.92 22.712C116.456 23.096 117.608 23.704 118.376 24.536C119.048 25.304 119.48 26.28 119.672 27.464C119.896 28.648 120.008 30.296 120.008 32.408V47H111.128V31.832ZM104.024 47.336C101.816 47.336 100.184 46.728 99.1284 45.512C98.0724 44.264 97.5444 42.392 97.5444 39.896C97.5444 38.36 97.6564 37.128 97.8804 36.2C98.1044 35.24 98.4884 34.488 99.0324 33.944C99.5764 33.368 100.328 32.968 101.288 32.744C102.248 32.488 103.512 32.36 105.08 32.36L109.112 32.456V36.728H108.632C107.896 36.728 107.416 36.744 107.192 36.776C106.552 36.808 106.216 37.112 106.184 37.688C106.152 37.88 106.136 38.28 106.136 38.888C106.136 39.368 106.152 39.736 106.184 39.992C106.248 40.248 106.344 40.456 106.472 40.616C106.632 40.84 106.872 40.968 107.192 41C107.64 41.064 108.12 41.096 108.632 41.096H109.112V45.992C108.408 46.536 107.656 46.888 106.856 47.048C106.088 47.24 105.144 47.336 104.024 47.336Z" fill="#C90DCD"/>
<path d="M124.79 40.616L134.966 29.288H125.366V22.52H146.006V28.904L129.782 47H124.79V40.616ZM138.518 40.232H146.102V47H132.47L138.518 40.232Z" fill="#C90DCD"/>
<path d="M151.007 11.336H159.887V18.248H151.007V11.336ZM151.007 22.52H159.887V47H151.007V22.52Z" fill="#C90DCD"/>
<path d="M179.222 35.432C179.222 33.736 179.206 32.616 179.174 32.072C179.11 31.176 179.03 30.584 178.934 30.296C178.806 29.976 178.582 29.784 178.262 29.72C177.942 29.624 177.43 29.576 176.726 29.576H176.246V23.576C177.494 22.648 179.126 22.184 181.142 22.184C184.022 22.184 185.958 23.064 186.95 24.824C187.398 25.592 187.702 26.536 187.862 27.656C188.022 28.744 188.102 30.088 188.102 31.688V47H179.222V35.432ZM165.35 22.52H174.23V47H165.35V22.52Z" fill="#C90DCD"/>
<path d="M203.697 32.36H207.057C207.057 30.568 206.881 29.416 206.529 28.904C206.337 28.616 206.081 28.44 205.761 28.376C205.441 28.28 204.977 28.232 204.369 28.232H203.697V22.136H204.369C207.121 22.136 209.233 22.36 210.705 22.808C212.209 23.256 213.313 23.992 214.017 25.016C214.657 25.912 215.041 27.064 215.169 28.472C215.329 29.88 215.409 31.992 215.409 34.808V36.728H203.697V32.36ZM205.329 47.384C202.385 47.384 200.065 47.144 198.369 46.664C196.705 46.152 195.457 45.352 194.625 44.264C193.889 43.304 193.409 42.12 193.185 40.712C192.961 39.272 192.849 37.304 192.849 34.808C192.849 32.504 192.929 30.68 193.089 29.336C193.249 27.96 193.585 26.792 194.097 25.832C194.673 24.776 195.553 23.96 196.737 23.384C197.953 22.776 199.601 22.392 201.681 22.232V36.728C201.681 37.816 201.729 38.6 201.825 39.08C201.921 39.528 202.145 39.864 202.497 40.088C202.881 40.344 203.473 40.488 204.273 40.52C205.297 40.584 206.385 40.616 207.537 40.616C209.585 40.616 211.073 40.568 212.001 40.472L214.449 40.28V46.472C213.169 46.856 211.409 47.112 209.169 47.24C208.081 47.336 206.801 47.384 205.329 47.384Z" fill="#C90DCD"/>
<path d="M0 13.416V11.976H8.832L22.656 41.352L21.072 45H14.832L0 13.416ZM27.12 31.128H26.928L23.712 38.904L19.584 30.072L27.12 11.976H36.24V45H27.12V31.128ZM0 18.168L8.832 36.984V45H0V18.168Z" fill="#F7EE28"/>
<path d="M54.6128 29.832C54.6128 29 54.5808 28.408 54.5168 28.056C54.4528 27.704 54.2607 27.448 53.9408 27.288C53.6528 27.128 53.1088 27.016 52.3088 26.952C51.8288 26.92 50.7888 26.904 49.1888 26.904C47.6528 26.904 46.2287 26.968 44.9167 27.096L42.3727 27.24V21C45.3807 20.424 48.6287 20.136 52.1167 20.136C54.8047 20.136 56.9008 20.328 58.4048 20.712C59.9408 21.096 61.0928 21.704 61.8608 22.536C62.5328 23.304 62.9647 24.28 63.1567 25.464C63.3807 26.648 63.4928 28.296 63.4928 30.408V45H54.6128V29.832ZM47.5088 45.336C45.3008 45.336 43.6688 44.728 42.6128 43.512C41.5568 42.264 41.0288 40.392 41.0288 37.896C41.0288 36.36 41.1407 35.128 41.3647 34.2C41.5887 33.24 41.9728 32.488 42.5168 31.944C43.0608 31.368 43.8128 30.968 44.7728 30.744C45.7328 30.488 46.9968 30.36 48.5648 30.36L52.5968 30.456V34.728H52.1167C51.3807 34.728 50.9008 34.744 50.6768 34.776C50.0367 34.808 49.7008 35.112 49.6688 35.688C49.6368 35.88 49.6208 36.28 49.6208 36.888C49.6208 37.368 49.6368 37.736 49.6688 37.992C49.7328 38.248 49.8287 38.456 49.9567 38.616C50.1167 38.84 50.3568 38.968 50.6768 39C51.1247 39.064 51.6047 39.096 52.1167 39.096H52.5968V43.992C51.8928 44.536 51.1408 44.888 50.3408 45.048C49.5728 45.24 48.6288 45.336 47.5088 45.336Z" fill="#F7EE28"/>
<path d="M75.3304 44.856C74.0504 44.856 72.9624 44.648 72.0664 44.232C71.1704 43.784 70.4344 43.08 69.8584 42.12C68.7064 40.264 68.1304 37.032 68.1304 32.424C68.1304 27.784 68.7064 24.568 69.8584 22.776C70.4344 21.88 71.1704 21.224 72.0664 20.808C72.9624 20.392 74.0504 20.184 75.3304 20.184C76.4184 20.184 77.3464 20.28 78.1144 20.472C78.8824 20.664 79.5864 21.016 80.2264 21.528V27.576H79.6984C78.9944 27.576 78.4824 27.624 78.1624 27.72C77.8744 27.784 77.6504 27.944 77.4904 28.2C77.3304 28.552 77.2344 29.048 77.2024 29.688C77.1704 30.136 77.1544 31.08 77.1544 32.52C77.1544 33.96 77.1704 34.904 77.2024 35.352C77.2344 36.024 77.3304 36.52 77.4904 36.84C77.6504 37.128 77.9064 37.304 78.2584 37.368C78.7064 37.432 79.1864 37.464 79.6984 37.464H80.2264V43.56C79.5864 44.072 78.8984 44.424 78.1624 44.616C77.4264 44.776 76.4824 44.856 75.3304 44.856ZM78.5464 54.888C76.9464 54.888 75.0264 54.792 72.7864 54.6L69.9064 54.312V48.12H76.3384C77.4904 48.12 78.6104 48.088 79.6984 48.024C80.4984 47.96 81.0744 47.8 81.4264 47.544C81.8104 47.32 82.0504 46.92 82.1464 46.344C82.2104 45.576 82.2424 44.76 82.2424 43.896V20.52H91.1224V42.312C91.1224 44.808 91.0104 46.76 90.7864 48.168C90.5624 49.608 90.0824 50.808 89.3464 51.768C88.5144 52.824 87.2344 53.608 85.5064 54.12C83.8104 54.632 81.4904 54.888 78.5464 54.888Z" fill="#F7EE28"/>
<path d="M109.128 29.832C109.128 29 109.096 28.408 109.032 28.056C108.968 27.704 108.776 27.448 108.456 27.288C108.168 27.128 107.624 27.016 106.824 26.952C106.344 26.92 105.304 26.904 103.704 26.904C102.168 26.904 100.744 26.968 99.4324 27.096L96.8884 27.24V21C99.8964 20.424 103.144 20.136 106.632 20.136C109.32 20.136 111.416 20.328 112.92 20.712C114.456 21.096 115.608 21.704 116.376 22.536C117.048 23.304 117.48 24.28 117.672 25.464C117.896 26.648 118.008 28.296 118.008 30.408V45H109.128V29.832ZM102.024 45.336C99.8164 45.336 98.1844 44.728 97.1284 43.512C96.0724 42.264 95.5444 40.392 95.5444 37.896C95.5444 36.36 95.6564 35.128 95.8804 34.2C96.1044 33.24 96.4884 32.488 97.0324 31.944C97.5764 31.368 98.3284 30.968 99.2884 30.744C100.248 30.488 101.512 30.36 103.08 30.36L107.112 30.456V34.728H106.632C105.896 34.728 105.416 34.744 105.192 34.776C104.552 34.808 104.216 35.112 104.184 35.688C104.152 35.88 104.136 36.28 104.136 36.888C104.136 37.368 104.152 37.736 104.184 37.992C104.248 38.248 104.344 38.456 104.472 38.616C104.632 38.84 104.872 38.968 105.192 39C105.64 39.064 106.12 39.096 106.632 39.096H107.112V43.992C106.408 44.536 105.656 44.888 104.856 45.048C104.088 45.24 103.144 45.336 102.024 45.336Z" fill="#F7EE28"/>
<path d="M122.79 38.616L132.966 27.288H123.366V20.52H144.006V26.904L127.782 45H122.79V38.616ZM136.518 38.232H144.102V45H130.47L136.518 38.232Z" fill="#F7EE28"/>
<path d="M149.007 9.336H157.887V16.248H149.007V9.336ZM149.007 20.52H157.887V45H149.007V20.52Z" fill="#F7EE28"/>
<path d="M177.222 33.432C177.222 31.736 177.206 30.616 177.174 30.072C177.11 29.176 177.03 28.584 176.934 28.296C176.806 27.976 176.582 27.784 176.262 27.72C175.942 27.624 175.43 27.576 174.726 27.576H174.246V21.576C175.494 20.648 177.126 20.184 179.142 20.184C182.022 20.184 183.958 21.064 184.95 22.824C185.398 23.592 185.702 24.536 185.862 25.656C186.022 26.744 186.102 28.088 186.102 29.688V45H177.222V33.432ZM163.35 20.52H172.23V45H163.35V20.52Z" fill="#F7EE28"/>
<path d="M201.697 30.36H205.057C205.057 28.568 204.881 27.416 204.529 26.904C204.337 26.616 204.081 26.44 203.761 26.376C203.441 26.28 202.977 26.232 202.369 26.232H201.697V20.136H202.369C205.121 20.136 207.233 20.36 208.705 20.808C210.209 21.256 211.313 21.992 212.017 23.016C212.657 23.912 213.041 25.064 213.169 26.472C213.329 27.88 213.409 29.992 213.409 32.808V34.728H201.697V30.36ZM203.329 45.384C200.385 45.384 198.065 45.144 196.369 44.664C194.705 44.152 193.457 43.352 192.625 42.264C191.889 41.304 191.409 40.12 191.185 38.712C190.961 37.272 190.849 35.304 190.849 32.808C190.849 30.504 190.929 28.68 191.089 27.336C191.249 25.96 191.585 24.792 192.097 23.832C192.673 22.776 193.553 21.96 194.737 21.384C195.953 20.776 197.601 20.392 199.681 20.232V34.728C199.681 35.816 199.729 36.6 199.825 37.08C199.921 37.528 200.145 37.864 200.497 38.088C200.881 38.344 201.473 38.488 202.273 38.52C203.297 38.584 204.385 38.616 205.537 38.616C207.585 38.616 209.073 38.568 210.001 38.472L212.449 38.28V44.472C211.169 44.856 209.409 45.112 207.169 45.24C206.081 45.336 204.801 45.384 203.329 45.384Z" fill="#F7EE28"/>
<path d="M250.562 22.5325C250.421 21.459 250.222 20.6567 249.964 20.1257C249.739 19.5528 249.421 19.1426 249.012 18.8949C248.645 18.6794 248.219 18.5847 247.733 18.6107C247.284 18.6319 246.504 18.7152 245.393 18.8607L244.005 19.0425C243.709 19.0813 243.344 19.1668 242.909 19.299L241.789 10.748C242.006 10.6819 242.337 10.6198 242.781 10.5616L243.836 10.4234C247.501 9.94338 250.341 9.77847 252.356 9.92867C254.404 10.037 256.081 10.6268 257.389 11.6981C258.743 12.8385 259.83 14.6728 260.651 17.201C261.467 19.6921 262.175 23.2327 262.777 27.8229C263.247 31.4135 263.466 34.3782 263.433 36.7169C263.433 39.0137 263.12 40.9373 262.495 42.4877C261.874 44.075 260.875 45.3544 259.496 46.3257C258.149 47.2551 256.308 48.0046 253.973 48.574L250.562 22.5325ZM243.93 35.7135C241.783 35.9947 239.989 36.0979 238.548 36.023C237.108 35.9482 235.876 35.6012 234.854 34.9821C233.711 34.3034 232.762 33.2417 232.008 31.7967C231.286 30.3098 230.763 28.3264 230.438 25.8462C230.137 23.5511 230.052 21.6044 230.181 20.0061C230.306 18.3707 230.689 16.9839 231.331 15.8456C231.972 14.7073 232.942 13.7708 234.238 13.0361C235.53 12.2644 237.275 11.6406 239.472 11.1646L241.072 23.3802C241.193 24.3056 241.362 25.0178 241.578 25.5166C241.793 26.0155 242.085 26.3726 242.452 26.5881C242.819 26.8036 243.306 26.9281 243.913 26.9615C244.515 26.958 245.353 26.8859 246.426 26.7453C247.352 26.6241 248.103 26.4692 248.681 26.2805L249.663 33.7765C248.136 34.7672 246.225 35.4129 243.93 35.7135ZM251.67 49.1016C248.899 49.5023 246.089 49.7573 243.242 49.8667C240.4 50.0131 237.897 50.0209 235.734 49.8901L234.694 41.9499C236.495 41.9022 238.462 41.8328 240.596 41.7415C242.763 41.6083 244.346 41.4763 245.345 41.3454C246.678 41.1708 247.747 40.9932 248.551 40.8125C249.351 40.5947 249.991 40.3039 250.47 39.9398L251.67 49.1016Z" fill="#C90DCD"/>
<path d="M288.102 24.5055C287.681 21.285 287.386 19.1775 287.218 18.1828C286.94 16.6378 286.649 15.5652 286.344 14.965C286.003 14.3697 285.545 14.0343 284.97 13.959C284.428 13.8418 283.527 13.8656 282.269 14.0305C281.713 14.1032 281.033 14.2299 280.229 14.4106L279.109 5.85967C279.326 5.79356 279.657 5.73141 280.101 5.67323L281.156 5.53504C285.042 5.02592 288.085 4.96632 290.282 5.35625C292.474 5.70916 294.167 6.5605 295.361 7.91026C296.465 9.15867 297.274 10.8788 297.787 13.0708C298.3 15.2627 298.848 18.5797 299.43 23.0218C299.953 27.0196 300.258 30.0671 300.345 32.1643C300.468 34.2567 300.289 36.0498 299.807 37.5438C299.27 39.1955 298.278 40.5303 296.83 41.5484C295.414 42.5245 293.351 43.303 290.641 43.884L288.102 24.5055ZM286.276 44.6251C282.426 45.1294 279.387 45.2075 277.157 44.8594C274.96 44.4695 273.262 43.5812 272.064 42.1944C270.959 40.946 270.153 39.2443 269.644 37.0894C269.136 34.9345 268.589 31.6175 268.002 27.1384C267.478 23.1405 267.155 20.0954 267.031 18.0031C266.945 15.9059 267.143 14.1103 267.625 12.6164C268.162 10.9647 269.138 9.65076 270.554 8.67461C272.002 7.65658 274.081 6.85711 276.791 6.2762L279.329 25.6547C279.746 28.8381 280.039 30.9272 280.207 31.9218C280.475 33.3928 280.787 34.4815 281.143 35.1879C281.484 35.7832 281.926 36.1395 282.469 36.2567C283.007 36.3369 283.905 36.2945 285.163 36.1297L286.274 35.9842C286.533 35.9503 286.843 35.8721 287.203 35.7495L288.323 44.3005C288.106 44.3666 287.775 44.4287 287.331 44.4869L286.276 44.6251Z" fill="#C90DCD"/>
<path d="M304.843 15.9872C306.508 15.769 307.583 15.3459 308.065 14.7179C308.29 14.4248 308.411 14.0513 308.427 13.5974C308.479 13.1387 308.457 12.5391 308.36 11.7988L308.266 11.077L304.268 11.6006L303.155 3.1052L313.705 1.7233L314.549 8.16428C314.84 10.3853 314.954 12.1211 314.892 13.3718C314.83 14.6225 314.514 15.6616 313.945 16.4892C313.343 17.3587 312.361 18.0522 310.998 18.5696C309.635 19.087 307.751 19.5033 305.344 19.8184L304.843 15.9872Z" fill="#C90DCD"/>
<path d="M342.381 15.8707C341.673 15.9259 340.698 15.9594 339.457 15.9713C337.133 16.0498 335.268 16.1812 333.861 16.3655L332.029 16.6055L331.04 9.05401C333.668 8.70974 336.191 8.56754 338.608 8.62739L341.45 8.76346L342.381 15.8707ZM335.901 28.9189C335.828 28.3636 335.689 28.0241 335.485 27.9003C335.281 27.7765 334.877 27.7163 334.275 27.7199L328.169 27.6725C326.66 27.6443 325.411 27.4503 324.422 27.0903C323.471 26.7254 322.72 26.1649 322.169 25.4087C321.632 24.7635 321.225 23.9509 320.946 22.9709C320.667 21.9908 320.43 20.7604 320.236 19.2797C319.839 16.2443 320.455 13.9045 322.084 12.2603C323.456 10.951 325.667 10.0025 328.715 9.41501L329.857 18.1325C329.929 18.6878 330.052 19.0483 330.224 19.214C330.392 19.3426 330.871 19.4116 331.663 19.4208L338.443 19.4364C339.42 19.4214 340.279 19.5159 341.021 19.7199C341.759 19.8869 342.404 20.2165 342.958 20.7088C344.187 21.7527 345.022 23.9589 345.463 27.3275C345.929 30.8811 345.347 33.4801 343.717 35.1243C342.28 36.5174 340.068 37.4473 337.079 37.9141L335.901 28.9189ZM334.754 38.2751C331.788 38.6259 329.173 38.7803 326.908 38.738L323.678 38.6529L322.747 31.5456C324.247 31.4997 326.265 31.386 328.802 31.2043C330.218 31.0941 331.222 31.0002 331.814 30.9226L333.758 30.668L334.754 38.2751Z" fill="#C90DCD"/>
<path d="M248.319 20.8092C248.179 19.7357 247.979 18.9334 247.722 18.4024C247.496 17.8295 247.179 17.4193 246.77 17.1716C246.403 16.9561 245.976 16.8614 245.49 16.8874C245.041 16.9086 244.261 16.9919 243.151 17.1374L241.762 17.3192C241.466 17.358 241.101 17.4435 240.666 17.5757L239.546 9.02475C239.764 8.95864 240.094 8.89649 240.539 8.83831L241.594 8.70012C245.258 8.22009 248.098 8.05517 250.113 8.20537C252.161 8.31371 253.838 8.90351 255.146 9.97476C256.5 11.1152 257.588 12.9495 258.408 15.4777C259.224 17.9688 259.933 21.5094 260.534 26.0996C261.004 29.6902 261.223 32.6549 261.191 34.9936C261.19 37.2904 260.877 39.214 260.252 40.7644C259.632 42.3517 258.632 43.6311 257.253 44.6024C255.906 45.5318 254.066 46.2813 251.73 46.8507L248.319 20.8092ZM241.687 33.9902C239.54 34.2714 237.746 34.3746 236.306 34.2997C234.865 34.2249 233.634 33.8779 232.611 33.2588C231.468 32.5801 230.519 31.5184 229.765 30.0734C229.043 28.5865 228.52 26.6031 228.195 24.1229C227.895 21.8278 227.809 19.8811 227.938 18.2828C228.063 16.6474 228.446 15.2606 229.088 14.1223C229.729 12.984 230.699 12.0475 231.996 11.3128C233.288 10.5411 235.032 9.91729 237.229 9.44128L238.829 21.6569C238.95 22.5824 239.119 23.2945 239.335 23.7933C239.551 24.2922 239.842 24.6493 240.209 24.8648C240.576 25.0803 241.063 25.2048 241.67 25.2382C242.272 25.2347 243.11 25.1626 244.183 25.022C245.109 24.9008 245.86 24.7459 246.438 24.5572L247.42 32.0532C245.893 33.0439 243.982 33.6896 241.687 33.9902ZM249.427 47.3783C246.656 47.779 243.847 48.034 240.999 48.1434C238.157 48.2898 235.654 48.2976 233.491 48.1668L232.451 40.2266C234.252 40.1789 236.219 40.1095 238.354 40.0182C240.52 39.885 242.103 39.753 243.102 39.6221C244.435 39.4475 245.504 39.2699 246.308 39.0892C247.108 38.8714 247.748 38.5806 248.227 38.2165L249.427 47.3783Z" fill="#F6EE28"/>
<path d="M285.86 22.7822C285.438 19.5617 285.143 17.4542 284.975 16.4595C284.697 14.9145 284.406 13.8419 284.102 13.2417C283.76 12.6464 283.302 12.311 282.727 12.2357C282.185 12.1185 281.284 12.1423 280.026 12.3072C279.47 12.3799 278.79 12.5066 277.986 12.6873L276.866 4.13637C277.083 4.07027 277.414 4.00812 277.858 3.94993L278.913 3.81174C282.8 3.30262 285.842 3.24302 288.039 3.63295C290.231 3.98586 291.924 4.8372 293.118 6.18696C294.223 7.43538 295.031 9.15555 295.544 11.3475C296.058 13.5394 296.605 16.8564 297.187 21.2985C297.71 25.2963 298.016 28.3438 298.102 30.441C298.225 32.5334 298.046 34.3265 297.564 35.8205C297.027 37.4722 296.035 38.807 294.587 39.8251C293.171 40.8012 291.108 41.5798 288.398 42.1607L285.86 22.7822ZM284.033 42.9018C280.183 43.4061 277.144 43.4842 274.914 43.1361C272.717 42.7462 271.019 41.8579 269.821 40.4711C268.716 39.2227 267.91 37.521 267.402 35.3661C266.893 33.2112 266.346 29.8942 265.759 25.4151C265.236 21.4172 264.912 18.3721 264.789 16.2798C264.702 14.1826 264.9 12.387 265.382 10.8931C265.919 9.24139 266.895 7.92747 268.311 6.95131C269.759 5.93328 271.838 5.13381 274.548 4.5529L277.087 23.9314C277.504 27.1148 277.796 29.2039 277.964 30.1985C278.232 31.6695 278.544 32.7582 278.9 33.4646C279.242 34.0599 279.684 34.4162 280.226 34.5334C280.764 34.6136 281.662 34.5712 282.92 34.4064L284.031 34.2609C284.29 34.227 284.6 34.1488 284.96 34.0262L286.08 42.5772C285.863 42.6433 285.532 42.7054 285.088 42.7636L284.033 42.9018Z" fill="#F6EE28"/>
<path d="M302.6 14.2639C304.266 14.0457 305.34 13.6226 305.822 12.9946C306.047 12.7015 306.168 12.328 306.184 11.8741C306.237 11.4154 306.215 10.8158 306.118 10.0755L306.023 9.35366L302.025 9.87733L300.912 1.3819L311.462 0L312.306 6.44098C312.597 8.66201 312.711 10.3978 312.649 11.6485C312.587 12.8992 312.271 13.9383 311.702 14.7659C311.101 15.6354 310.118 16.3289 308.755 16.8463C307.392 17.3637 305.508 17.78 303.102 18.0951L302.6 14.2639Z" fill="#F6EE28"/>
<path d="M340.138 14.1474C339.43 14.2026 338.455 14.2361 337.215 14.248C334.89 14.3265 333.025 14.4579 331.618 14.6422L329.786 14.8822L328.797 7.33071C331.425 6.98645 333.948 6.84424 336.366 6.90409L339.207 7.04016L340.138 14.1474ZM333.658 27.1956C333.585 26.6403 333.447 26.3008 333.242 26.177C333.038 26.0532 332.635 25.993 332.033 25.9966L325.927 25.9492C324.417 25.921 323.168 25.727 322.179 25.367C321.228 25.0021 320.477 24.4416 319.926 23.6854C319.389 23.0402 318.982 22.2276 318.703 21.2476C318.424 20.2675 318.187 19.0371 317.993 17.5564C317.596 14.521 318.212 12.1812 319.841 10.537C321.214 9.22767 323.424 8.27924 326.472 7.69171L327.614 16.4092C327.687 16.9645 327.809 17.325 327.981 17.4907C328.149 17.6193 328.629 17.6883 329.421 17.6975L336.2 17.7131C337.177 17.6981 338.037 17.7926 338.779 17.9966C339.516 18.1636 340.162 18.4932 340.715 18.9855C341.944 20.0294 342.779 22.2356 343.22 25.6042C343.686 29.1578 343.104 31.7568 341.474 33.401C340.038 34.7941 337.825 35.724 334.836 36.1908L333.658 27.1956ZM332.511 36.5518C329.545 36.9027 326.93 37.057 324.665 37.0148L321.435 36.9296L320.504 29.8223C322.004 29.7764 324.022 29.6627 326.559 29.481C327.975 29.3708 328.979 29.2769 329.572 29.1993L331.515 28.9447L332.511 36.5518Z" fill="#F6EE28"/>
</svg>
