<svg width="58" height="48" viewBox="0 0 58 48" fill="none" xmlns="http://www.w3.org/2000/svg">
<mask id="path-1-inside-1_14_72" fill="white">
<path d="M37.857 11.2826C38.3557 11.2826 38.834 11.0845 39.1867 10.7318C39.5393 10.3792 39.7374 9.90088 39.7374 9.40216C39.7374 8.90344 39.5393 8.42514 39.1867 8.07249C38.834 7.71985 38.3557 7.52173 37.857 7.52173C37.3583 7.52173 36.88 7.71985 36.5273 8.07249C36.1747 8.42514 35.9766 8.90344 35.9766 9.40216C35.9766 9.90088 36.1747 10.3792 36.5273 10.7318C36.88 11.0845 37.3583 11.2826 37.857 11.2826Z"/>
<path d="M31.2377 4.15754e-07C33.1414 -0.000231583 35.0251 0.387526 36.774 1.1396C38.5228 1.89167 40.1 2.99228 41.4092 4.37423C42.7185 5.75619 43.7324 7.39048 44.389 9.17734C45.0456 10.9642 45.3311 12.8661 45.2281 14.767C51.3997 17.5068 55.8413 22.8134 57.6766 29.0282L58 30.1301L57.167 30.9237C51.6761 36.1475 43.6561 38.5112 35.7714 36.3957L35.3201 36.2754L35.9764 47.0108H7.76994L18.1744 31.6815L16.1228 31.1324C8.21748 29.0188 2.47465 22.9789 0.325315 15.6884L0 14.5884L0.82927 13.7967C5.51154 9.32506 12.0329 6.94443 18.7441 7.66464C19.9158 5.35802 21.7033 3.42092 23.9086 2.06804C26.1138 0.715166 28.6506 -0.000629772 31.2377 4.15754e-07ZM21.7453 10.1355L41.392 15.4007C41.7361 12.9255 41.1639 10.4099 39.7831 8.32701C38.4023 6.24414 36.308 4.73756 33.8942 4.09067C31.4803 3.44378 28.9133 3.70115 26.676 4.81438C24.4386 5.92761 22.6851 7.81997 21.7453 10.1355ZM17.0969 27.5013L36.7474 32.7665C39.3509 33.4679 42.0756 33.5962 44.7336 33.1426C47.2379 32.7136 49.6299 31.7836 51.7664 30.4084L5.25956 17.9393C6.4511 20.2739 8.12073 22.3315 10.1599 23.9782C12.199 25.625 14.5619 26.8241 17.095 27.4975L17.0969 27.5013ZM12.6779 14.2913C12.6779 14.5382 12.7265 14.7827 12.821 15.0109C12.9155 15.239 13.054 15.4463 13.2286 15.6209C13.4032 15.7956 13.6105 15.9341 13.8387 16.0286C14.0668 16.1231 14.3114 16.1717 14.5583 16.1717C14.8052 16.1717 15.0498 16.1231 15.2779 16.0286C15.506 15.9341 15.7133 15.7956 15.888 15.6209C16.0626 15.4463 16.2011 15.239 16.2956 15.0109C16.3901 14.7827 16.4387 14.5382 16.4387 14.2913C16.4387 13.7926 16.2406 13.3143 15.888 12.9616C15.5353 12.609 15.057 12.4108 14.5583 12.4108C14.0596 12.4108 13.5813 12.609 13.2286 12.9616C12.876 13.3143 12.6779 13.7926 12.6779 14.2913ZM22.2304 18.2214C22.7292 18.2214 23.2075 18.0233 23.5601 17.6706C23.9128 17.318 24.1109 16.8397 24.1109 16.3409C24.1109 15.8422 23.9128 15.3639 23.5601 15.0113C23.2075 14.6586 22.7292 14.4605 22.2304 14.4605C21.7317 14.4605 21.2534 14.6586 20.9008 15.0113C20.5481 15.3639 20.35 15.8422 20.35 16.3409C20.35 16.8397 20.5481 17.318 20.9008 17.6706C21.2534 18.0233 21.7317 18.2214 22.2304 18.2214ZM29.9214 20.2898C30.4201 20.2898 30.8984 20.0917 31.2511 19.7391C31.6037 19.3864 31.8018 18.9081 31.8018 18.4094C31.8018 17.9107 31.6037 17.4324 31.2511 17.0798C30.8984 16.7271 30.4201 16.529 29.9214 16.529C29.4227 16.529 28.9444 16.7271 28.5917 17.0798C28.2391 17.4324 28.041 17.9107 28.041 18.4094C28.041 18.9081 28.2391 19.3864 28.5917 19.7391C28.9444 20.0917 29.4227 20.2898 29.9214 20.2898ZM37.5936 22.3395C38.0923 22.3395 38.5706 22.1414 38.9232 21.7887C39.2759 21.4361 39.474 20.9578 39.474 20.4591C39.474 19.9604 39.2759 19.4821 38.9232 19.1294C38.5706 18.7768 38.0923 18.5787 37.5936 18.5787C37.0948 18.5787 36.6166 18.7768 36.2639 19.1294C35.9113 19.4821 35.7131 19.9604 35.7131 20.4591C35.7131 20.9578 35.9113 21.4361 36.2639 21.7887C36.6166 22.1414 37.0948 22.3395 37.5936 22.3395ZM43.3853 22.5088C43.3853 23.0075 43.5834 23.4858 43.9361 23.8384C44.2887 24.1911 44.767 24.3892 45.2657 24.3892C45.7644 24.3892 46.2427 24.1911 46.5954 23.8384C46.948 23.4858 47.1462 23.0075 47.1462 22.5088C47.1462 22.01 46.948 21.5317 46.5954 21.1791C46.2427 20.8264 45.7644 20.6283 45.2657 20.6283C44.767 20.6283 44.2887 20.8264 43.9361 21.1791C43.5834 21.5317 43.3853 22.01 43.3853 22.5088Z"/>
</mask>
<path d="M37.857 11.2826C38.3557 11.2826 38.834 11.0845 39.1867 10.7318C39.5393 10.3792 39.7374 9.90088 39.7374 9.40216C39.7374 8.90344 39.5393 8.42514 39.1867 8.07249C38.834 7.71985 38.3557 7.52173 37.857 7.52173C37.3583 7.52173 36.88 7.71985 36.5273 8.07249C36.1747 8.42514 35.9766 8.90344 35.9766 9.40216C35.9766 9.90088 36.1747 10.3792 36.5273 10.7318C36.88 11.0845 37.3583 11.2826 37.857 11.2826Z" fill="#4DC3F5"/>
<path d="M31.2377 4.15754e-07C33.1414 -0.000231583 35.0251 0.387526 36.774 1.1396C38.5228 1.89167 40.1 2.99228 41.4092 4.37423C42.7185 5.75619 43.7324 7.39048 44.389 9.17734C45.0456 10.9642 45.3311 12.8661 45.2281 14.767C51.3997 17.5068 55.8413 22.8134 57.6766 29.0282L58 30.1301L57.167 30.9237C51.6761 36.1475 43.6561 38.5112 35.7714 36.3957L35.3201 36.2754L35.9764 47.0108H7.76994L18.1744 31.6815L16.1228 31.1324C8.21748 29.0188 2.47465 22.9789 0.325315 15.6884L0 14.5884L0.82927 13.7967C5.51154 9.32506 12.0329 6.94443 18.7441 7.66464C19.9158 5.35802 21.7033 3.42092 23.9086 2.06804C26.1138 0.715166 28.6506 -0.000629772 31.2377 4.15754e-07ZM21.7453 10.1355L41.392 15.4007C41.7361 12.9255 41.1639 10.4099 39.7831 8.32701C38.4023 6.24414 36.308 4.73756 33.8942 4.09067C31.4803 3.44378 28.9133 3.70115 26.676 4.81438C24.4386 5.92761 22.6851 7.81997 21.7453 10.1355ZM17.0969 27.5013L36.7474 32.7665C39.3509 33.4679 42.0756 33.5962 44.7336 33.1426C47.2379 32.7136 49.6299 31.7836 51.7664 30.4084L5.25956 17.9393C6.4511 20.2739 8.12073 22.3315 10.1599 23.9782C12.199 25.625 14.5619 26.8241 17.095 27.4975L17.0969 27.5013ZM12.6779 14.2913C12.6779 14.5382 12.7265 14.7827 12.821 15.0109C12.9155 15.239 13.054 15.4463 13.2286 15.6209C13.4032 15.7956 13.6105 15.9341 13.8387 16.0286C14.0668 16.1231 14.3114 16.1717 14.5583 16.1717C14.8052 16.1717 15.0498 16.1231 15.2779 16.0286C15.506 15.9341 15.7133 15.7956 15.888 15.6209C16.0626 15.4463 16.2011 15.239 16.2956 15.0109C16.3901 14.7827 16.4387 14.5382 16.4387 14.2913C16.4387 13.7926 16.2406 13.3143 15.888 12.9616C15.5353 12.609 15.057 12.4108 14.5583 12.4108C14.0596 12.4108 13.5813 12.609 13.2286 12.9616C12.876 13.3143 12.6779 13.7926 12.6779 14.2913ZM22.2304 18.2214C22.7292 18.2214 23.2075 18.0233 23.5601 17.6706C23.9128 17.318 24.1109 16.8397 24.1109 16.3409C24.1109 15.8422 23.9128 15.3639 23.5601 15.0113C23.2075 14.6586 22.7292 14.4605 22.2304 14.4605C21.7317 14.4605 21.2534 14.6586 20.9008 15.0113C20.5481 15.3639 20.35 15.8422 20.35 16.3409C20.35 16.8397 20.5481 17.318 20.9008 17.6706C21.2534 18.0233 21.7317 18.2214 22.2304 18.2214ZM29.9214 20.2898C30.4201 20.2898 30.8984 20.0917 31.2511 19.7391C31.6037 19.3864 31.8018 18.9081 31.8018 18.4094C31.8018 17.9107 31.6037 17.4324 31.2511 17.0798C30.8984 16.7271 30.4201 16.529 29.9214 16.529C29.4227 16.529 28.9444 16.7271 28.5917 17.0798C28.2391 17.4324 28.041 17.9107 28.041 18.4094C28.041 18.9081 28.2391 19.3864 28.5917 19.7391C28.9444 20.0917 29.4227 20.2898 29.9214 20.2898ZM37.5936 22.3395C38.0923 22.3395 38.5706 22.1414 38.9232 21.7887C39.2759 21.4361 39.474 20.9578 39.474 20.4591C39.474 19.9604 39.2759 19.4821 38.9232 19.1294C38.5706 18.7768 38.0923 18.5787 37.5936 18.5787C37.0948 18.5787 36.6166 18.7768 36.2639 19.1294C35.9113 19.4821 35.7131 19.9604 35.7131 20.4591C35.7131 20.9578 35.9113 21.4361 36.2639 21.7887C36.6166 22.1414 37.0948 22.3395 37.5936 22.3395ZM43.3853 22.5088C43.3853 23.0075 43.5834 23.4858 43.9361 23.8384C44.2887 24.1911 44.767 24.3892 45.2657 24.3892C45.7644 24.3892 46.2427 24.1911 46.5954 23.8384C46.948 23.4858 47.1462 23.0075 47.1462 22.5088C47.1462 22.01 46.948 21.5317 46.5954 21.1791C46.2427 20.8264 45.7644 20.6283 45.2657 20.6283C44.767 20.6283 44.2887 20.8264 43.9361 21.1791C43.5834 21.5317 43.3853 22.01 43.3853 22.5088Z" fill="#4DC3F5"/>
<path d="M37.857 11.2826C38.3557 11.2826 38.834 11.0845 39.1867 10.7318C39.5393 10.3792 39.7374 9.90088 39.7374 9.40216C39.7374 8.90344 39.5393 8.42514 39.1867 8.07249C38.834 7.71985 38.3557 7.52173 37.857 7.52173C37.3583 7.52173 36.88 7.71985 36.5273 8.07249C36.1747 8.42514 35.9766 8.90344 35.9766 9.40216C35.9766 9.90088 36.1747 10.3792 36.5273 10.7318C36.88 11.0845 37.3583 11.2826 37.857 11.2826Z" stroke="black" stroke-width="2" mask="url(#path-1-inside-1_14_72)"/>
<path d="M31.2377 4.15754e-07C33.1414 -0.000231583 35.0251 0.387526 36.774 1.1396C38.5228 1.89167 40.1 2.99228 41.4092 4.37423C42.7185 5.75619 43.7324 7.39048 44.389 9.17734C45.0456 10.9642 45.3311 12.8661 45.2281 14.767C51.3997 17.5068 55.8413 22.8134 57.6766 29.0282L58 30.1301L57.167 30.9237C51.6761 36.1475 43.6561 38.5112 35.7714 36.3957L35.3201 36.2754L35.9764 47.0108H7.76994L18.1744 31.6815L16.1228 31.1324C8.21748 29.0188 2.47465 22.9789 0.325315 15.6884L0 14.5884L0.82927 13.7967C5.51154 9.32506 12.0329 6.94443 18.7441 7.66464C19.9158 5.35802 21.7033 3.42092 23.9086 2.06804C26.1138 0.715166 28.6506 -0.000629772 31.2377 4.15754e-07ZM21.7453 10.1355L41.392 15.4007C41.7361 12.9255 41.1639 10.4099 39.7831 8.32701C38.4023 6.24414 36.308 4.73756 33.8942 4.09067C31.4803 3.44378 28.9133 3.70115 26.676 4.81438C24.4386 5.92761 22.6851 7.81997 21.7453 10.1355ZM17.0969 27.5013L36.7474 32.7665C39.3509 33.4679 42.0756 33.5962 44.7336 33.1426C47.2379 32.7136 49.6299 31.7836 51.7664 30.4084L5.25956 17.9393C6.4511 20.2739 8.12073 22.3315 10.1599 23.9782C12.199 25.625 14.5619 26.8241 17.095 27.4975L17.0969 27.5013ZM12.6779 14.2913C12.6779 14.5382 12.7265 14.7827 12.821 15.0109C12.9155 15.239 13.054 15.4463 13.2286 15.6209C13.4032 15.7956 13.6105 15.9341 13.8387 16.0286C14.0668 16.1231 14.3114 16.1717 14.5583 16.1717C14.8052 16.1717 15.0498 16.1231 15.2779 16.0286C15.506 15.9341 15.7133 15.7956 15.888 15.6209C16.0626 15.4463 16.2011 15.239 16.2956 15.0109C16.3901 14.7827 16.4387 14.5382 16.4387 14.2913C16.4387 13.7926 16.2406 13.3143 15.888 12.9616C15.5353 12.609 15.057 12.4108 14.5583 12.4108C14.0596 12.4108 13.5813 12.609 13.2286 12.9616C12.876 13.3143 12.6779 13.7926 12.6779 14.2913ZM22.2304 18.2214C22.7292 18.2214 23.2075 18.0233 23.5601 17.6706C23.9128 17.318 24.1109 16.8397 24.1109 16.3409C24.1109 15.8422 23.9128 15.3639 23.5601 15.0113C23.2075 14.6586 22.7292 14.4605 22.2304 14.4605C21.7317 14.4605 21.2534 14.6586 20.9008 15.0113C20.5481 15.3639 20.35 15.8422 20.35 16.3409C20.35 16.8397 20.5481 17.318 20.9008 17.6706C21.2534 18.0233 21.7317 18.2214 22.2304 18.2214ZM29.9214 20.2898C30.4201 20.2898 30.8984 20.0917 31.2511 19.7391C31.6037 19.3864 31.8018 18.9081 31.8018 18.4094C31.8018 17.9107 31.6037 17.4324 31.2511 17.0798C30.8984 16.7271 30.4201 16.529 29.9214 16.529C29.4227 16.529 28.9444 16.7271 28.5917 17.0798C28.2391 17.4324 28.041 17.9107 28.041 18.4094C28.041 18.9081 28.2391 19.3864 28.5917 19.7391C28.9444 20.0917 29.4227 20.2898 29.9214 20.2898ZM37.5936 22.3395C38.0923 22.3395 38.5706 22.1414 38.9232 21.7887C39.2759 21.4361 39.474 20.9578 39.474 20.4591C39.474 19.9604 39.2759 19.4821 38.9232 19.1294C38.5706 18.7768 38.0923 18.5787 37.5936 18.5787C37.0948 18.5787 36.6166 18.7768 36.2639 19.1294C35.9113 19.4821 35.7131 19.9604 35.7131 20.4591C35.7131 20.9578 35.9113 21.4361 36.2639 21.7887C36.6166 22.1414 37.0948 22.3395 37.5936 22.3395ZM43.3853 22.5088C43.3853 23.0075 43.5834 23.4858 43.9361 23.8384C44.2887 24.1911 44.767 24.3892 45.2657 24.3892C45.7644 24.3892 46.2427 24.1911 46.5954 23.8384C46.948 23.4858 47.1462 23.0075 47.1462 22.5088C47.1462 22.01 46.948 21.5317 46.5954 21.1791C46.2427 20.8264 45.7644 20.6283 45.2657 20.6283C44.767 20.6283 44.2887 20.8264 43.9361 21.1791C43.5834 21.5317 43.3853 22.01 43.3853 22.5088Z" stroke="black" stroke-width="2" mask="url(#path-1-inside-1_14_72)"/>
</svg>
