<svg width="44" height="45" viewBox="0 0 44 45" fill="none" xmlns="http://www.w3.org/2000/svg">
<g filter="url(#filter0_d_4_177)">
<path d="M34.7538 5.38359C33.0952 3.67036 31.1197 2.31199 28.9425 1.3877C26.7652 0.463412 24.4298 -0.00828819 22.0724 0.000110203C12.195 0.000110203 4.14472 8.23258 4.14472 18.3336C4.14472 21.571 4.97688 24.716 6.53266 27.491L4 37L13.4975 34.447C16.1206 35.9085 19.0693 36.6855 22.0724 36.6855C31.9497 36.6855 40 28.453 40 18.3521C40 13.4496 38.1367 8.84308 34.7538 5.38359ZM22.0724 33.5775C19.395 33.5775 16.7719 32.8375 14.4744 31.45L13.9317 31.117L8.28744 32.634L9.78894 27.01L9.42714 26.4365C7.93964 24.0074 7.1498 21.1996 7.14774 18.3336C7.14774 9.93458 13.8412 3.0896 22.0543 3.0896C26.0342 3.0896 29.7789 4.6806 32.5829 7.56659C33.9713 8.97992 35.0716 10.661 35.82 12.5124C36.5684 14.3638 36.95 16.3487 36.9427 18.3521C36.9789 26.751 30.2854 33.5775 22.0724 33.5775ZM30.2492 22.1815C29.797 21.9595 27.5899 20.8495 27.192 20.683C26.7759 20.535 26.4864 20.4611 26.1789 20.905C25.8714 21.3675 25.0211 22.4035 24.7678 22.6995C24.5146 23.014 24.2432 23.051 23.791 22.8105C23.3387 22.5885 21.8915 22.089 20.191 20.535C18.8523 19.3141 17.9658 17.8156 17.6945 17.3531C17.4412 16.8906 17.6583 16.6501 17.8935 16.4096C18.0925 16.2061 18.3457 15.8731 18.5628 15.6141C18.7799 15.3551 18.8704 15.1516 19.0151 14.8556C19.1598 14.5411 19.0874 14.2821 18.9789 14.0601C18.8703 13.8381 17.9658 11.5811 17.604 10.6561C17.2422 9.76808 16.8623 9.87908 16.591 9.86058H15.7226C15.4151 9.86058 14.9447 9.97158 14.5286 10.4341C14.1307 10.8966 12.9729 12.0066 12.9729 14.2636C12.9729 16.5206 14.5829 18.7036 14.8 18.9996C15.0171 19.3141 17.9658 23.939 22.4523 25.9185C23.5196 26.3995 24.3518 26.677 25.003 26.8805C26.0703 27.232 27.0472 27.1765 27.8251 27.0655C28.6935 26.936 30.4844 25.9555 30.8462 24.8825C31.2261 23.8095 31.2261 22.903 31.0995 22.6995C30.9729 22.496 30.7015 22.4035 30.2492 22.1815Z" fill="#F6EE28"/>
<path d="M17.2595 17.5997L17.2559 17.5932C17.0776 17.2675 17.0298 16.9434 17.1391 16.6323C17.2306 16.3718 17.4178 16.1807 17.5263 16.0698C17.5296 16.0665 17.5328 16.0632 17.536 16.06C17.6552 15.9381 17.7893 15.7721 17.9364 15.59C18.014 15.4941 18.0951 15.3937 18.1796 15.2929C18.3375 15.1045 18.4052 14.9656 18.5328 14.7038C18.5425 14.6839 18.5525 14.6634 18.5629 14.6421C18.5957 14.5691 18.599 14.5169 18.5946 14.4743C18.5894 14.4238 18.5706 14.3633 18.5297 14.2797C18.4097 14.0342 17.497 11.755 17.1397 10.8416C16.9814 10.4544 16.8606 10.3897 16.8431 10.381C16.8309 10.375 16.8141 10.3694 16.7747 10.3664C16.7526 10.3647 16.7283 10.3641 16.6912 10.3636C16.6883 10.3636 16.6852 10.3635 16.682 10.3635C16.6544 10.3632 16.6158 10.3627 16.576 10.3606H15.7226C15.5358 10.3606 15.2103 10.4261 14.9037 10.7648C14.8727 10.8007 14.838 10.8397 14.8004 10.882C14.348 11.3903 13.4729 12.3736 13.4729 14.2636C13.4729 15.2819 13.839 16.3114 14.2528 17.1445C14.6588 17.9618 15.0906 18.5503 15.1997 18.6992L15.2032 18.7039L15.2074 18.7096L15.2115 18.7155C15.2217 18.7304 15.2371 18.7533 15.2576 18.7839C15.7001 19.4436 18.5097 23.6325 22.6541 25.4611L22.6577 25.4627C23.7002 25.9325 24.5117 26.2032 25.1521 26.4033L25.1594 26.4056L25.1594 26.4056C26.1218 26.7226 27.0106 26.6766 27.7528 26.5708C28.0906 26.52 28.6856 26.2817 29.251 25.91C29.828 25.5307 30.2468 25.0955 30.3724 24.7228L30.3748 24.7156L30.3749 24.7157C30.5507 24.2192 30.6364 23.7667 30.6645 23.4241C30.6786 23.2523 30.6775 23.116 30.6688 23.0209C30.6659 22.9889 30.6625 22.966 30.6598 22.9507C30.6436 22.9379 30.613 22.9169 30.5574 22.8866C30.4826 22.8459 30.405 22.8095 30.3038 22.7619C30.2283 22.7264 30.1395 22.6847 30.0289 22.6304C29.9086 22.5713 29.679 22.4569 29.3971 22.3165C28.5778 21.9083 27.3167 21.28 27.0109 21.1493C26.9148 21.1154 26.8463 21.0933 26.7893 21.0801C26.7315 21.0668 26.7071 21.0682 26.7012 21.0689C26.7007 21.0689 26.7004 21.069 26.7001 21.069C26.6991 21.0695 26.6967 21.0708 26.6929 21.0734C26.6791 21.0829 26.6444 21.1117 26.5923 21.1863C26.2656 21.6762 25.4093 22.7184 25.1523 23.0193C24.977 23.2349 24.7398 23.4209 24.4129 23.4597C24.1096 23.4956 23.8214 23.392 23.5642 23.2562C23.5066 23.2283 23.429 23.1943 23.3336 23.1525C22.7216 22.8843 21.3748 22.2942 19.854 20.9045L17.2595 17.5997ZM17.2595 17.5997L17.2632 17.6061M17.2595 17.5997L17.2632 17.6061M17.2632 17.6061C17.5377 18.074 18.4556 19.6289 19.8537 20.9041L17.2632 17.6061ZM34.3945 5.73137L34.3963 5.73317C37.6865 9.09785 39.5 13.5783 39.5 18.3521C39.5 28.1875 31.6631 36.1855 22.0724 36.1855C19.1557 36.1855 16.2906 35.4309 13.7408 34.0102L13.5636 33.9115L13.3677 33.9641L4.70587 36.2925L7.01582 27.6197L7.06806 27.4236L6.9688 27.2465C5.45472 24.5459 4.64472 21.4851 4.64472 18.3336C4.64472 8.49812 12.4816 0.50011 22.0724 0.500113L22.0741 0.500107C24.3636 0.491951 26.6319 0.950035 28.7471 1.84795C30.8622 2.74587 32.7821 4.06581 34.3945 5.73137ZM14.2129 31.8762L14.2159 31.878C16.5903 33.3119 19.3026 34.0775 22.0724 34.0775C30.5703 34.0775 37.4791 27.0183 37.4427 18.3517C37.45 16.2845 37.0561 14.2361 36.2836 12.325C35.511 10.4137 34.3749 8.67752 32.9406 7.21722C30.0436 4.23601 26.1703 2.5896 22.0543 2.5896C13.5546 2.5896 6.64774 9.66905 6.64774 18.3336L6.64774 18.3339C6.64987 21.2914 7.46486 24.1895 9.00073 26.6976L9.00069 26.6977L9.00426 26.7033L9.24952 27.0921L7.80436 32.505L7.581 33.3416L8.41722 33.1169L13.8536 31.6557L14.2129 31.8762Z" stroke="black"/>
</g>
<defs>
<filter id="filter0_d_4_177" x="0" y="0" width="44" height="45" filterUnits="userSpaceOnUse" color-interpolation-filters="sRGB">
<feFlood flood-opacity="0" result="BackgroundImageFix"/>
<feColorMatrix in="SourceAlpha" type="matrix" values="0 0 0 0 0 0 0 0 0 0 0 0 0 0 0 0 0 0 127 0" result="hardAlpha"/>
<feOffset dy="4"/>
<feGaussianBlur stdDeviation="2"/>
<feComposite in2="hardAlpha" operator="out"/>
<feColorMatrix type="matrix" values="0 0 0 0 0 0 0 0 0 0 0 0 0 0 0 0 0 0 0.25 0"/>
<feBlend mode="normal" in2="BackgroundImageFix" result="effect1_dropShadow_4_177"/>
<feBlend mode="normal" in="SourceGraphic" in2="effect1_dropShadow_4_177" result="shape"/>
</filter>
</defs>
</svg>
