<svg width="118" height="50" viewBox="0 0 118 50" fill="none" xmlns="http://www.w3.org/2000/svg">
<path d="M22.6821 22.5325C22.5414 21.459 22.3422 20.6567 22.0844 20.1257C21.8588 19.5528 21.5414 19.1426 21.1325 18.8949C20.7654 18.6794 20.3388 18.5847 19.8527 18.6107C19.4037 18.6319 18.6239 18.7152 17.5134 18.8607L16.1252 19.0425C15.8291 19.0813 15.4638 19.1668 15.0293 19.299L13.9092 10.748C14.1265 10.6819 14.4572 10.6198 14.9014 10.5616L15.9564 10.4234C19.6211 9.94338 22.461 9.77847 24.4763 9.92867C26.5237 10.037 28.2012 10.6268 29.5087 11.6981C30.863 12.8385 31.9504 14.6728 32.7711 17.201C33.5868 19.6921 34.2954 23.2327 34.8966 27.8229C35.367 31.4135 35.5859 34.3782 35.5533 36.7169C35.553 39.0137 35.2401 40.9373 34.6149 42.4877C33.9944 44.075 32.9948 45.3544 31.6159 46.3257C30.2693 47.2551 28.4283 48.0046 26.0932 48.574L22.6821 22.5325ZM16.0498 35.7135C13.9028 35.9947 12.109 36.0979 10.6684 36.023C9.22784 35.9482 7.99634 35.6012 6.97393 34.9821C5.83078 34.3034 4.88218 33.2417 4.12812 31.7967C3.40623 30.3098 2.88285 28.3264 2.55798 25.8462C2.25736 23.5511 2.1718 21.6044 2.3013 20.0061C2.42596 18.3707 2.80908 16.9839 3.45068 15.8456C4.09227 14.7073 5.06152 13.7708 6.35842 13.0361C7.65047 12.2644 9.39489 11.6406 11.5917 11.1646L13.1918 23.3802C13.313 24.3056 13.4816 25.0178 13.6975 25.5166C13.9135 26.0155 14.205 26.3726 14.5721 26.5881C14.9392 26.8036 15.4262 26.9281 16.033 26.9615C16.6349 26.958 17.4727 26.8859 18.5462 26.7453C19.4716 26.6241 20.2232 26.4692 20.8009 26.2805L21.7828 33.7765C20.2559 34.7672 18.3449 35.4129 16.0498 35.7135ZM23.7902 49.1016C21.0188 49.5023 18.2094 49.7573 15.3622 49.8667C12.5198 50.0131 10.0169 50.0209 7.85361 49.8901L6.81355 41.9499C8.61461 41.9022 10.5823 41.8328 12.7165 41.7415C14.8829 41.6083 16.4658 41.4763 17.4653 41.3454C18.7979 41.1708 19.8665 40.9932 20.6712 40.8125C21.471 40.5947 22.1107 40.3039 22.5901 39.9398L23.7902 49.1016Z" fill="#C90DCD"/>
<path d="M60.2224 24.5055C59.8006 21.285 59.5057 19.1775 59.3377 18.1828C59.06 16.6378 58.7689 15.5652 58.4644 14.965C58.1229 14.3697 57.6648 14.0343 57.0901 13.959C56.5476 13.8418 55.6471 13.8656 54.3885 14.0305C53.8333 14.1032 53.1533 14.2299 52.3486 14.4106L51.2285 5.85967C51.4458 5.79356 51.7765 5.73141 52.2207 5.67323L53.2757 5.53504C57.1625 5.02592 60.2045 4.96632 62.4018 5.35625C64.5942 5.70916 66.2871 6.5605 67.4805 7.91026C68.5853 9.15867 69.3943 10.8788 69.9073 13.0708C70.4203 15.2627 70.9678 18.5797 71.5496 23.0218C72.0733 27.0196 72.3784 30.0671 72.4648 32.1643C72.5883 34.2567 72.409 36.0498 71.9269 37.5438C71.3902 39.1955 70.3979 40.5303 68.9498 41.5484C67.5339 42.5245 65.4709 43.303 62.7607 43.884L60.2224 24.5055ZM58.396 44.6251C54.5463 45.1294 51.5067 45.2075 49.2772 44.8594C47.08 44.4695 45.3822 43.5812 44.184 42.1944C43.0791 40.946 42.2726 39.2443 41.7644 37.0894C41.2562 34.9345 40.7088 31.6175 40.1221 27.1384C39.5984 23.1405 39.2749 20.0954 39.1514 18.0031C39.065 15.9059 39.2628 14.1103 39.7448 12.6164C40.2815 10.9647 41.2578 9.65076 42.6737 8.67461C44.1217 7.65658 46.2008 6.85711 48.911 6.2762L51.4493 25.6547C51.8663 28.8381 52.1588 30.9272 52.3267 31.9218C52.5947 33.3928 52.9068 34.4815 53.2629 35.1879C53.6044 35.7832 54.0464 36.1395 54.5889 36.2567C55.1265 36.3369 56.0247 36.2945 57.2832 36.1297L58.3937 35.9842C58.6529 35.9503 58.9627 35.8721 59.3231 35.7495L60.4432 44.3005C60.226 44.3666 59.8952 44.4287 59.451 44.4869L58.396 44.6251Z" fill="#C90DCD"/>
<path d="M76.9626 15.9872C78.6284 15.769 79.7025 15.3459 80.185 14.7179C80.4102 14.4248 80.5307 14.0513 80.5466 13.5974C80.5994 13.1387 80.5774 12.5391 80.4804 11.7988L80.3859 11.077L76.388 11.6006L75.2752 3.1052L85.8251 1.7233L86.6688 8.16428C86.9597 10.3853 87.0741 12.1211 87.012 13.3718C86.9499 14.6225 86.6342 15.6616 86.0649 16.4892C85.4634 17.3587 84.4811 18.0522 83.1181 18.5696C81.7551 19.087 79.8706 19.5033 77.4644 19.8184L76.9626 15.9872Z" fill="#C90DCD"/>
<path d="M114.501 15.8707C113.793 15.9259 112.818 15.9594 111.577 15.9713C109.253 16.0498 107.388 16.1812 105.981 16.3655L104.149 16.6055L103.16 9.05401C105.788 8.70974 108.311 8.56754 110.728 8.62739L113.57 8.76346L114.501 15.8707ZM108.021 28.9189C107.948 28.3636 107.809 28.0241 107.605 27.9003C107.401 27.7765 106.997 27.7163 106.395 27.7199L100.289 27.6725C98.7797 27.6443 97.5306 27.4503 96.5421 27.0903C95.5907 26.7254 94.8395 26.1649 94.2886 25.4087C93.7523 24.7635 93.3446 23.9509 93.0656 22.9709C92.7867 21.9908 92.5502 20.7604 92.3562 19.2797C91.9586 16.2443 92.5746 13.9045 94.2042 12.2603C95.5765 10.951 97.7867 10.0025 100.835 9.41501L101.977 18.1325C102.049 18.6878 102.172 19.0483 102.344 19.214C102.512 19.3426 102.991 19.4116 103.783 19.4208L110.563 19.4364C111.54 19.4214 112.399 19.5159 113.141 19.7199C113.879 19.8869 114.524 20.2165 115.078 20.7088C116.307 21.7527 117.142 23.9589 117.583 27.3275C118.049 30.8811 117.467 33.4801 115.837 35.1243C114.4 36.5174 112.188 37.4473 109.199 37.9141L108.021 28.9189ZM106.874 38.2751C103.908 38.6259 101.293 38.7803 99.028 38.738L95.7975 38.6529L94.8666 31.5456C96.3666 31.4997 98.385 31.386 100.922 31.2043C102.338 31.0941 103.342 31.0002 103.934 30.9226L105.878 30.668L106.874 38.2751Z" fill="#C90DCD"/>
<path d="M20.4392 20.8092C20.2986 19.7357 20.0994 18.9334 19.8416 18.4024C19.6159 17.8295 19.2986 17.4193 18.8897 17.1716C18.5226 16.9561 18.096 16.8614 17.6099 16.8874C17.1609 16.9086 16.3811 16.9919 15.2706 17.1374L13.8824 17.3192C13.5863 17.358 13.221 17.4435 12.7865 17.5757L11.6664 9.02475C11.8836 8.95864 12.2144 8.89649 12.6586 8.83831L13.7136 8.70012C17.3783 8.22009 20.2182 8.05517 22.2335 8.20537C24.2809 8.31371 25.9584 8.90351 27.2659 9.97476C28.6202 11.1152 29.7076 12.9495 30.5282 15.4777C31.344 17.9688 32.0526 21.5094 32.6538 26.0996C33.1241 29.6902 33.343 32.6549 33.3105 34.9936C33.3101 37.2904 32.9973 39.214 32.3721 40.7644C31.7516 42.3517 30.752 43.6311 29.3731 44.6024C28.0264 45.5318 26.1855 46.2813 23.8504 46.8507L20.4392 20.8092ZM13.807 33.9902C11.66 34.2714 9.8662 34.3746 8.42561 34.2997C6.98502 34.2249 5.75352 33.8779 4.73112 33.2588C3.58797 32.5801 2.63936 31.5184 1.8853 30.0734C1.16342 28.5865 0.640036 26.6031 0.315168 24.1229C0.0145427 21.8278 -0.0710173 19.8811 0.0584877 18.2828C0.183144 16.6474 0.566269 15.2606 1.20786 14.1223C1.84946 12.984 2.8187 12.0475 4.1156 11.3128C5.40766 10.5411 7.15208 9.91729 9.34886 9.44128L10.949 21.6569C11.0702 22.5824 11.2388 23.2945 11.4547 23.7933C11.6707 24.2922 11.9622 24.6493 12.3293 24.8648C12.6964 25.0803 13.1833 25.2048 13.7902 25.2382C14.3921 25.2347 15.2299 25.1626 16.3034 25.022C17.2288 24.9008 17.9804 24.7459 18.5581 24.5572L19.54 32.0532C18.013 33.0439 16.1021 33.6896 13.807 33.9902ZM21.5474 47.3783C18.7759 47.779 15.9666 48.034 13.1194 48.1434C10.277 48.2898 7.77411 48.2976 5.6108 48.1668L4.57073 40.2266C6.3718 40.1789 8.33944 40.1095 10.4737 40.0182C12.64 39.885 14.223 39.753 15.2224 39.6221C16.5551 39.4475 17.6237 39.2699 18.4284 39.0892C19.2282 38.8714 19.8678 38.5806 20.3473 38.2165L21.5474 47.3783Z" fill="#F6EE28"/>
<path d="M57.9796 22.7822C57.5577 19.5617 57.2629 17.4542 57.0949 16.4595C56.8172 14.9145 56.5261 13.8419 56.2216 13.2417C55.88 12.6464 55.4219 12.311 54.8473 12.2357C54.3048 12.1185 53.4043 12.1423 52.1457 12.3072C51.5904 12.3799 50.9105 12.5066 50.1058 12.6873L48.9857 4.13637C49.203 4.07027 49.5337 4.00812 49.9779 3.94993L51.0329 3.81174C54.9197 3.30262 57.9617 3.24302 60.159 3.63295C62.3514 3.98586 64.0443 4.8372 65.2377 6.18696C66.3425 7.43538 67.1515 9.15555 67.6645 11.3475C68.1775 13.5394 68.725 16.8564 69.3068 21.2985C69.8305 25.2963 70.1356 28.3438 70.222 30.441C70.3455 32.5334 70.1662 34.3265 69.6841 35.8205C69.1474 37.4722 68.155 38.807 66.707 39.8251C65.2911 40.8012 63.2281 41.5798 60.5179 42.1607L57.9796 22.7822ZM56.1532 42.9018C52.3034 43.4061 49.2638 43.4842 47.0344 43.1361C44.8372 42.7462 43.1394 41.8579 41.9411 40.4711C40.8363 39.2227 40.0298 37.521 39.5216 35.3661C39.0134 33.2112 38.466 29.8942 37.8793 25.4151C37.3556 21.4172 37.0321 18.3721 36.9086 16.2798C36.8221 14.1826 37.0199 12.387 37.502 10.8931C38.0387 9.24139 39.015 7.92747 40.4309 6.95131C41.8789 5.93328 43.958 5.13381 46.6682 4.5529L49.2065 23.9314C49.6235 27.1148 49.916 29.2039 50.0839 30.1985C50.3519 31.6695 50.664 32.7582 51.02 33.4646C51.3616 34.0599 51.8036 34.4162 52.3461 34.5334C52.8837 34.6136 53.7818 34.5712 55.0404 34.4064L56.1509 34.2609C56.4101 34.227 56.7198 34.1488 57.0803 34.0262L58.2004 42.5772C57.9831 42.6433 57.6524 42.7054 57.2082 42.7636L56.1532 42.9018Z" fill="#F6EE28"/>
<path d="M74.7198 14.2639C76.3856 14.0457 77.4597 13.6226 77.9422 12.9946C78.1674 12.7015 78.2879 12.328 78.3038 11.8741C78.3566 11.4154 78.3346 10.8158 78.2376 10.0755L78.143 9.35366L74.1452 9.87733L73.0324 1.3819L83.5823 0L84.426 6.44098C84.7169 8.66201 84.8313 10.3978 84.7692 11.6485C84.7071 12.8992 84.3914 13.9383 83.8221 14.7659C83.2206 15.6354 82.2383 16.3289 80.8753 16.8463C79.5123 17.3637 77.6277 17.78 75.2216 18.0951L74.7198 14.2639Z" fill="#F6EE28"/>
<path d="M112.258 14.1474C111.55 14.2026 110.575 14.2361 109.335 14.248C107.01 14.3265 105.145 14.4579 103.738 14.6422L101.906 14.8822L100.917 7.33071C103.545 6.98645 106.068 6.84424 108.486 6.90409L111.327 7.04016L112.258 14.1474ZM105.778 27.1956C105.705 26.6403 105.567 26.3008 105.362 26.177C105.158 26.0532 104.754 25.993 104.153 25.9966L98.0467 25.9492C96.5369 25.921 95.2878 25.727 94.2993 25.367C93.3478 25.0021 92.5967 24.4416 92.0458 23.6854C91.5095 23.0402 91.1018 22.2276 90.8228 21.2476C90.5438 20.2675 90.3074 19.0371 90.1134 17.5564C89.7158 14.521 90.3318 12.1812 91.9614 10.537C93.3336 9.22767 95.5438 8.27924 98.592 7.69171L99.7339 16.4092C99.8066 16.9645 99.9292 17.325 100.101 17.4907C100.269 17.6193 100.749 17.6883 101.541 17.6975L108.32 17.7131C109.297 17.6981 110.157 17.7926 110.899 17.9966C111.636 18.1636 112.282 18.4932 112.835 18.9855C114.064 20.0294 114.899 22.2356 115.34 25.6042C115.806 29.1578 115.224 31.7568 113.594 33.401C112.158 34.7941 109.945 35.724 106.956 36.1908L105.778 27.1956ZM104.631 36.5518C101.665 36.9027 99.0498 37.057 96.7851 37.0148L93.5547 36.9296L92.6238 29.8223C94.1238 29.7764 96.1422 29.6627 98.6787 29.481C100.095 29.3708 101.099 29.2769 101.692 29.1993L103.635 28.9447L104.631 36.5518Z" fill="#F6EE28"/>
</svg>
