<svg width="200" height="200" viewBox="0 0 200 200" fill="none" xmlns="http://www.w3.org/2000/svg">
<path d="M59.5 123.5L83 100L59.5 76.5C57.2457 74.2457 55.9792 71.1881 55.9792 68C55.9792 64.8119 57.2457 61.7543 59.5 59.5C61.7543 57.2457 64.8119 55.9792 68 55.9792C71.1881 55.9792 74.2457 57.2457 76.5 59.5L100 83L123.5 59.5C125.754 57.2457 128.812 55.9792 132 55.9792C135.188 55.9792 138.246 57.2457 140.5 59.5C142.754 61.7543 144.021 64.8119 144.021 68C144.021 71.1881 142.754 74.2457 140.5 76.5L117 100L140.5 123.5C141.619 124.615 142.506 125.94 143.112 127.398C143.718 128.857 144.029 130.421 144.029 132C144.029 133.579 143.718 135.143 143.112 136.602C142.506 138.06 141.619 139.385 140.5 140.5C138.236 142.735 135.182 143.988 132 143.988C128.818 143.988 125.764 142.735 123.5 140.5L100 117L76.5 140.5C74.2355 142.735 71.1818 143.988 68 143.988C64.8182 143.988 61.7645 142.735 59.5 140.5C58.3813 139.385 57.4936 138.06 56.888 136.602C56.2823 135.143 55.9705 133.579 55.9705 132C55.9705 130.421 56.2823 128.857 56.888 127.398C57.4936 125.94 58.3813 124.615 59.5 123.5ZM200 20V180C199.974 185.296 197.858 190.368 194.113 194.113C190.368 197.858 185.296 199.974 180 200H20C14.7038 199.974 9.63195 197.858 5.88691 194.113C2.14186 190.368 0.0262845 185.296 0 180V20C0.0262845 14.7038 2.14186 9.63195 5.88691 5.88691C9.63195 2.14186 14.7038 0.0262845 20 0H180C185.296 0.0262845 190.368 2.14186 194.113 5.88691C197.858 9.63195 199.974 14.7038 200 20V20ZM176 24H24V176H176V24Z" fill="black"/>
</svg>
