<svg width="45" height="45" viewBox="0 0 45 45" fill="none" xmlns="http://www.w3.org/2000/svg">
<g filter="url(#filter0_d_4_185)">
<path d="M22.5 0C12.325 0 4 8.33986 4 18.6114C4 27.8986 10.771 35.6069 19.614 37V23.998H14.915V18.6114H19.614V14.5065C19.614 9.84438 22.3705 7.28113 26.607 7.28113C28.6235 7.28113 30.7325 7.63404 30.7325 7.63404V12.2219H28.4015C26.1075 12.2219 25.386 13.6521 25.386 15.1195V18.6114H30.529L29.6965 23.998H25.386V37C29.7454 36.3087 33.715 34.0755 36.5783 30.7034C39.4416 27.3313 41.0099 23.0426 41 18.6114C41 8.33986 32.675 0 22.5 0Z" fill="#C90DCD"/>
<path d="M14.415 23.998V24.498H14.915H19.114V36.4053C10.797 34.8126 4.5 27.4475 4.5 18.6114C4.5 8.61379 12.6033 0.5 22.5 0.5C32.3966 0.5 40.5 8.61379 40.5 18.6114V18.6126C40.5096 22.925 38.9833 27.0985 36.1972 30.3798C33.5382 33.5112 29.8991 35.633 25.886 36.4047V24.498H29.6965H30.1251L30.1906 24.0744L31.0231 18.6878L31.1122 18.1114H30.529H25.886V15.1195C25.886 14.4588 26.0492 13.8672 26.4119 13.4472C26.7628 13.0408 27.3638 12.7219 28.4015 12.7219H30.7325H31.2325V12.2219V7.63404V7.21075L30.815 7.14089L30.7325 7.63404C30.815 7.14089 30.8149 7.14089 30.8149 7.14088L30.8147 7.14085L30.8143 7.14078L30.8128 7.14054L30.8077 7.13968L30.7883 7.13652L30.7153 7.1249C30.6518 7.11496 30.5596 7.10087 30.4429 7.08402C30.2095 7.05033 29.8777 7.00553 29.4822 6.96075C28.6932 6.87143 27.6413 6.78113 26.607 6.78113C24.3879 6.78113 22.5005 7.45436 21.1675 8.79268C19.8343 10.1313 19.114 12.0767 19.114 14.5065V18.1114H14.915H14.415V18.6114V23.998Z" stroke="black"/>
</g>
<defs>
<filter id="filter0_d_4_185" x="0" y="0" width="45" height="45" filterUnits="userSpaceOnUse" color-interpolation-filters="sRGB">
<feFlood flood-opacity="0" result="BackgroundImageFix"/>
<feColorMatrix in="SourceAlpha" type="matrix" values="0 0 0 0 0 0 0 0 0 0 0 0 0 0 0 0 0 0 127 0" result="hardAlpha"/>
<feOffset dy="4"/>
<feGaussianBlur stdDeviation="2"/>
<feComposite in2="hardAlpha" operator="out"/>
<feColorMatrix type="matrix" values="0 0 0 0 0 0 0 0 0 0 0 0 0 0 0 0 0 0 0.25 0"/>
<feBlend mode="normal" in2="BackgroundImageFix" result="effect1_dropShadow_4_185"/>
<feBlend mode="normal" in="SourceGraphic" in2="effect1_dropShadow_4_185" result="shape"/>
</filter>
</defs>
</svg>
