<svg width="58" height="48" viewBox="0 0 58 48" fill="none" xmlns="http://www.w3.org/2000/svg">
<path d="M45.0252 15.224L44.7102 15.0842L44.7288 14.74C44.8281 12.9069 44.5528 11.0729 43.9197 9.34979C43.2865 7.62671 42.3088 6.05074 41.0463 4.71811C39.7837 3.38549 38.2628 2.32416 36.5764 1.59893C34.89 0.873695 33.0735 0.499777 31.2378 0.5H31.2376C28.7428 0.499393 26.2965 1.18964 24.17 2.49423C22.0435 3.79882 20.3198 5.66679 19.1899 7.89108L19.0337 8.19858L18.6908 8.16178C12.1313 7.45786 5.75442 9.78449 1.1746 14.1583L1.17453 14.1584L0.56603 14.7393L0.804788 15.5466L0.804907 15.547C2.90744 22.6787 8.52334 28.583 16.252 30.6494L16.2521 30.6494L18.3036 31.1985L18.9831 31.3803L18.5881 31.9623L8.7136 46.5108H35.4449L34.8211 36.3059L34.7787 35.6135L35.449 35.7923L35.9003 35.9126L35.901 35.9128C43.6091 37.9809 51.4513 35.6712 56.8221 30.5616L45.0252 15.224ZM45.0252 15.224C51.0574 17.9019 55.4015 23.0898 57.197 29.1696M45.0252 15.224L57.197 29.1696M57.197 29.1696C57.197 29.1697 57.197 29.1698 57.197 29.1698L57.4344 29.9784L56.8223 30.5614L57.197 29.1696ZM21.282 9.94748L21.0691 10.472L21.6159 10.6185L41.2626 15.8837L41.8093 16.0302L41.8873 15.4696C42.2481 12.8736 41.648 10.2352 40.1998 8.05074C38.7517 5.86624 36.5552 4.28616 34.0236 3.60771C31.492 2.92926 28.7998 3.19919 26.4532 4.36673C24.1067 5.53427 22.2677 7.51896 21.282 9.94748ZM16.7478 27.9212L16.7502 27.9261L16.9675 27.9843L36.6173 33.2493C36.6175 33.2493 36.6176 33.2494 36.6178 33.2494L36.618 33.2495L36.7474 32.7665C39.3509 33.4679 42.0756 33.5962 44.7336 33.1426C47.0121 32.7523 49.1976 31.9473 51.1824 30.7695L51.6369 30.8914L16.7478 27.9212ZM38.8331 10.3783C38.5742 10.6372 38.2231 10.7826 37.857 10.7826C37.4909 10.7826 37.1398 10.6372 36.8809 10.3783C36.622 10.1194 36.4766 9.76827 36.4766 9.40216C36.4766 9.03604 36.622 8.68493 36.8809 8.42605C37.1398 8.16717 37.4909 8.02173 37.857 8.02173C38.2231 8.02173 38.5742 8.16717 38.8331 8.42605C39.092 8.68493 39.2374 9.03604 39.2374 9.40216C39.2374 9.76827 39.092 10.1194 38.8331 10.3783ZM12.1779 14.2913C12.1779 14.6039 12.2394 14.9134 12.3591 15.2022C12.4787 15.491 12.654 15.7534 12.8751 15.9745C13.0961 16.1955 13.3585 16.3709 13.6473 16.4905C13.9362 16.6101 14.2457 16.6717 14.5583 16.6717C14.8709 16.6717 15.1804 16.6101 15.4692 16.4905C15.7581 16.3709 16.0205 16.1955 16.2415 15.9745C16.4626 15.7534 16.6379 15.491 16.7575 15.2022C16.8772 14.9134 16.9387 14.6039 16.9387 14.2913C16.9387 13.6599 16.6879 13.0545 16.2415 12.6081C15.7951 12.1616 15.1896 11.9108 14.5583 11.9108C13.927 11.9108 13.3215 12.1616 12.8751 12.6081C12.4287 13.0545 12.1779 13.6599 12.1779 14.2913ZM22.2304 18.7214C22.8618 18.7214 23.4672 18.4706 23.9137 18.0242C24.3601 17.5777 24.6109 16.9723 24.6109 16.3409C24.6109 15.7096 24.3601 15.1041 23.9137 14.6577C23.4673 14.2113 22.8618 13.9605 22.2304 13.9605C21.5991 13.9605 20.9936 14.2113 20.5472 14.6577C20.1008 15.1041 19.85 15.7096 19.85 16.3409C19.85 16.9723 20.1008 17.5777 20.5472 18.0242C20.9936 18.4706 21.5991 18.7214 22.2304 18.7214ZM29.9214 20.7898C30.5527 20.7898 31.1582 20.5391 31.6046 20.0926C32.051 19.6462 32.3018 19.0407 32.3018 18.4094C32.3018 17.7781 32.051 17.1726 31.6046 16.7262C31.1582 16.2798 30.5527 16.029 29.9214 16.029C29.2901 16.029 28.6846 16.2798 28.2382 16.7262C27.7918 17.1726 27.541 17.7781 27.541 18.4094C27.541 19.0407 27.7918 19.6462 28.2382 20.0926C28.6846 20.5391 29.2901 20.7898 29.9214 20.7898ZM37.5936 22.8395C38.2249 22.8395 38.8304 22.5887 39.2768 22.1423C39.7232 21.6959 39.974 21.0904 39.974 20.4591C39.974 19.8278 39.7232 19.2223 39.2768 18.7759C38.8304 18.3295 38.2249 18.0787 37.5936 18.0787C36.9622 18.0787 36.3568 18.3294 35.9103 18.7759C35.4639 19.2223 35.2131 19.8278 35.2131 20.4591C35.2131 21.0904 35.4639 21.6959 35.9103 22.1423C36.3568 22.5887 36.9622 22.8395 37.5936 22.8395ZM42.8853 22.5088C42.8853 23.1401 43.1361 23.7456 43.5825 24.192C44.0289 24.6384 44.6344 24.8892 45.2657 24.8892C45.8971 24.8892 46.5025 24.6384 46.9489 24.192C47.3954 23.7456 47.6462 23.1401 47.6462 22.5088C47.6462 21.8774 47.3954 21.272 46.9489 20.8255C46.5025 20.3791 45.8971 20.1283 45.2657 20.1283C44.6344 20.1283 44.0289 20.3791 43.5825 20.8255C43.1361 21.272 42.8853 21.8774 42.8853 22.5088Z" fill="#4DC3F5" stroke="black"/>
</svg>
