<svg width="58" height="62" viewBox="0 0 58 62" fill="none" xmlns="http://www.w3.org/2000/svg">
<g filter="url(#filter0_d_14_70)">
<mask id="path-1-inside-1_14_70" fill="white">
<path d="M31.4453 0H26.5738C25.5957 0 24.8094 0.790856 24.8094 1.7746V4.04108C22.0888 4.66409 19.5403 5.88834 17.3487 7.625V6.86694C17.3487 5.88319 16.5623 5.09234 15.5842 5.09234H10.7127C9.73456 5.09234 8.94822 5.88319 8.94822 6.86694V11.4192C8.94822 12.4608 9.7921 13.3095 10.8278 13.3095H12.5213C11.6901 14.8054 11.0655 16.4083 10.6647 18.0739H5.76448C4.78634 18.0739 4 18.8648 4 19.8485V24.4201C4 25.4617 4.84388 26.3104 5.87956 26.3104H10.5075C10.8431 27.9886 11.3993 29.5896 12.1435 31.0748H10.7127C9.73456 31.0748 8.94822 31.8657 8.94822 32.8494V37.4017C8.94822 38.4433 9.7921 39.292 10.8278 39.292H15.4499C16.4664 39.292 17.2988 38.4742 17.3295 37.4595C18.2117 38.1597 19.1611 38.7828 20.1623 39.319L14.8458 51.3555H10.099C9.75028 51.3555 9.41587 51.4948 9.16931 51.7427C8.92275 51.9907 8.78424 52.327 8.78424 52.6777C8.78424 53.0284 8.92275 53.3647 9.16931 53.6127C9.41587 53.8607 9.75028 54 10.099 54H49.5504C49.8989 54 50.233 53.8608 50.4794 53.613C50.7258 53.3652 50.8642 53.0291 50.8642 52.6787C50.8642 52.3283 50.7258 51.9922 50.4794 51.7444C50.233 51.4966 49.8989 51.3574 49.5504 51.3574H43.1561L37.8473 39.3248C38.8349 38.7968 39.7739 38.1817 40.6532 37.4865C40.6974 38.4896 41.524 39.292 42.5309 39.292H47.153C48.1887 39.292 49.0326 38.4433 49.0326 37.4017V34.4504H49.0518V32.8494C49.0518 31.8657 48.2654 31.0748 47.2873 31.0748H45.8757C46.6199 29.5896 47.1761 27.9886 47.5117 26.3104H52.1013C53.1369 26.3104 53.9808 25.4617 53.9808 24.4201V21.4495H54V19.8485C54 18.8841 53.2137 18.0739 52.2355 18.0739H47.3544C46.9537 16.4083 46.3291 14.8054 45.4979 13.3095H47.153C48.1887 13.3095 49.0326 12.4608 49.0326 11.4192V8.46794H49.0518V6.86694C49.0518 5.88319 48.2654 5.09234 47.2873 5.09234H42.4158C41.4377 5.09234 40.6513 5.88319 40.6513 6.86694V7.60957C38.4589 5.87625 35.9104 4.65531 33.1906 4.03529V3.3756H33.2098V1.7746C33.2098 0.790856 32.4235 0 31.4453 0ZM40.2792 51.3574H17.7208L22.5654 40.3934C23.2986 40.6622 24.0481 40.8838 24.8094 41.057V43.9407C24.8094 44.9823 25.6532 45.831 26.6889 45.831H31.3111C32.3468 45.831 33.1906 44.9823 33.1906 43.9407V41.0628C33.9554 40.8881 34.7087 40.6658 35.4461 40.3973L40.2792 51.3574ZM45.5995 21.5846H41.4012C41.2013 18.9364 40.1643 16.422 38.4419 14.409L40.7664 12.0712C40.8996 12.4341 41.1401 12.7473 41.4555 12.9687C41.7709 13.1901 42.1462 13.309 42.5309 13.3095H43.2616C44.4444 15.1499 45.2612 17.2035 45.6667 19.3567C45.6216 19.5167 45.599 19.6822 45.5995 19.8485V21.5846ZM33.7468 21.5846C33.6235 20.9666 33.3811 20.3788 33.0334 19.8543L37.0802 15.7785C38.4489 17.4229 39.2854 19.4487 39.4776 21.5846H33.7468ZM40.2908 9.81818L37.084 13.0491C35.0857 11.3262 32.5931 10.289 29.9685 10.0882V8.21718H31.3111C32.3468 8.21718 33.1906 7.36846 33.1906 6.32684V6.01822C35.8267 6.69236 38.2622 7.99586 40.2908 9.81818ZM35.7242 14.4167L31.6736 18.4925C31.156 18.148 30.577 17.9076 29.9685 17.7846V12.0229C32.084 12.2141 34.0915 13.0484 35.7242 14.4148V14.4167ZM28.0506 8.21718V10.0863C25.3387 10.2946 22.8723 11.3787 20.9237 13.0568L17.7188 9.82976C19.744 8.0067 22.1762 6.70127 24.8094 6.024V6.32684C24.8094 7.36846 25.6532 8.21718 26.6889 8.21718H28.0506ZM28.0506 12.0229V17.7846C27.4376 17.9086 26.8545 18.1517 26.3341 18.5002L22.2854 14.4244C23.9195 13.0528 25.9307 12.215 28.0506 12.0229ZM24.9781 19.8659C24.6345 20.3875 24.3948 20.9712 24.2723 21.5846H18.5416C18.7333 19.4539 19.5663 17.4325 20.9294 15.7901L24.9781 19.8659ZM12.4005 21.5846V19.8485C12.4005 19.6942 12.3813 19.5457 12.3429 19.403C12.7462 17.2329 13.5671 15.163 14.7595 13.3095H15.4519C15.8393 13.3091 16.2172 13.1884 16.534 12.964C16.8508 12.7397 17.0911 12.4225 17.2221 12.0557L19.5696 14.4206C17.8529 16.4317 16.8195 18.9416 16.6199 21.5846H12.4005ZM12.3813 23.5135H16.618C16.8176 26.1565 17.851 28.6663 19.5677 30.6775L17.3487 32.9112V32.8494C17.3487 31.8657 16.5623 31.0748 15.5842 31.0748H14.3241C13.2673 29.2389 12.5627 27.2197 12.247 25.1222C12.3361 24.899 12.3816 24.6606 12.3813 24.4201V23.5135ZM17.7188 35.2683L20.9237 32.0412C21.5029 32.5408 22.1262 32.9864 22.7898 33.3722L20.9448 37.5521C19.785 36.9193 18.7024 36.1529 17.7188 35.2683ZM22.2835 30.6717L25.3425 27.5951L23.5742 31.5976C23.1221 31.3219 22.6913 31.0124 22.2854 30.6717H22.2835ZM23.346 38.6265L25.191 34.4485C26.104 34.7436 27.061 34.9365 28.0506 35.0117V37.5946H26.5738C26.1553 37.5933 25.7501 37.7421 25.4309 38.0143C25.1117 38.2866 24.8995 38.6644 24.8324 39.0798C24.3303 38.9518 23.8343 38.8005 23.346 38.6265ZM25.9755 32.672L28.0506 27.9751V33.077C27.3471 33.0129 26.6518 32.8772 25.9755 32.672ZM29.9685 37.5946V35.0117C30.9385 34.9381 31.8964 34.7497 32.8224 34.4504L34.6636 38.6285C34.1782 38.8027 33.6847 38.9533 33.1849 39.0798C33.1178 38.6647 32.9059 38.2872 32.5871 38.015C32.2683 37.7428 31.8635 37.5937 31.4453 37.5946H29.9685ZM29.9685 33.077V27.9828L32.0399 32.6739C31.3647 32.8781 30.6707 33.0132 29.9685 33.077ZM37.0667 37.556L35.2255 33.376C35.8853 32.9902 36.5086 32.5466 37.0859 32.0509L40.2908 35.2779C39.308 36.1596 38.2267 36.9235 37.0687 37.5541L37.0667 37.556ZM34.4392 31.6014L32.6862 27.624L35.7242 30.6813C35.3214 31.0189 34.8918 31.3256 34.4392 31.6014ZM33.0334 25.2437C33.3748 24.7287 33.6222 24.1442 33.7468 23.5135H39.4756C39.2846 25.6489 38.4495 27.6746 37.0821 29.3195L33.0334 25.2437ZM41.4012 23.5135H45.5995V24.4201C45.5995 24.694 45.6571 24.9544 45.7626 25.1878C45.4421 27.262 44.741 29.2583 43.6951 31.0748H42.4158C41.4377 31.0748 40.6513 31.8657 40.6513 32.8494V32.9112L38.4419 30.6891C40.1643 28.676 41.2013 26.1616 41.4012 23.5135ZM18.5416 23.5135H24.2723C24.397 24.1385 24.6406 24.7191 24.9781 25.2302L20.9294 29.3079C19.5663 27.6655 18.7333 25.6442 18.5416 23.5135Z"/>
</mask>
<path d="M31.4453 0H26.5738C25.5957 0 24.8094 0.790856 24.8094 1.7746V4.04108C22.0888 4.66409 19.5403 5.88834 17.3487 7.625V6.86694C17.3487 5.88319 16.5623 5.09234 15.5842 5.09234H10.7127C9.73456 5.09234 8.94822 5.88319 8.94822 6.86694V11.4192C8.94822 12.4608 9.7921 13.3095 10.8278 13.3095H12.5213C11.6901 14.8054 11.0655 16.4083 10.6647 18.0739H5.76448C4.78634 18.0739 4 18.8648 4 19.8485V24.4201C4 25.4617 4.84388 26.3104 5.87956 26.3104H10.5075C10.8431 27.9886 11.3993 29.5896 12.1435 31.0748H10.7127C9.73456 31.0748 8.94822 31.8657 8.94822 32.8494V37.4017C8.94822 38.4433 9.7921 39.292 10.8278 39.292H15.4499C16.4664 39.292 17.2988 38.4742 17.3295 37.4595C18.2117 38.1597 19.1611 38.7828 20.1623 39.319L14.8458 51.3555H10.099C9.75028 51.3555 9.41587 51.4948 9.16931 51.7427C8.92275 51.9907 8.78424 52.327 8.78424 52.6777C8.78424 53.0284 8.92275 53.3647 9.16931 53.6127C9.41587 53.8607 9.75028 54 10.099 54H49.5504C49.8989 54 50.233 53.8608 50.4794 53.613C50.7258 53.3652 50.8642 53.0291 50.8642 52.6787C50.8642 52.3283 50.7258 51.9922 50.4794 51.7444C50.233 51.4966 49.8989 51.3574 49.5504 51.3574H43.1561L37.8473 39.3248C38.8349 38.7968 39.7739 38.1817 40.6532 37.4865C40.6974 38.4896 41.524 39.292 42.5309 39.292H47.153C48.1887 39.292 49.0326 38.4433 49.0326 37.4017V34.4504H49.0518V32.8494C49.0518 31.8657 48.2654 31.0748 47.2873 31.0748H45.8757C46.6199 29.5896 47.1761 27.9886 47.5117 26.3104H52.1013C53.1369 26.3104 53.9808 25.4617 53.9808 24.4201V21.4495H54V19.8485C54 18.8841 53.2137 18.0739 52.2355 18.0739H47.3544C46.9537 16.4083 46.3291 14.8054 45.4979 13.3095H47.153C48.1887 13.3095 49.0326 12.4608 49.0326 11.4192V8.46794H49.0518V6.86694C49.0518 5.88319 48.2654 5.09234 47.2873 5.09234H42.4158C41.4377 5.09234 40.6513 5.88319 40.6513 6.86694V7.60957C38.4589 5.87625 35.9104 4.65531 33.1906 4.03529V3.3756H33.2098V1.7746C33.2098 0.790856 32.4235 0 31.4453 0ZM40.2792 51.3574H17.7208L22.5654 40.3934C23.2986 40.6622 24.0481 40.8838 24.8094 41.057V43.9407C24.8094 44.9823 25.6532 45.831 26.6889 45.831H31.3111C32.3468 45.831 33.1906 44.9823 33.1906 43.9407V41.0628C33.9554 40.8881 34.7087 40.6658 35.4461 40.3973L40.2792 51.3574ZM45.5995 21.5846H41.4012C41.2013 18.9364 40.1643 16.422 38.4419 14.409L40.7664 12.0712C40.8996 12.4341 41.1401 12.7473 41.4555 12.9687C41.7709 13.1901 42.1462 13.309 42.5309 13.3095H43.2616C44.4444 15.1499 45.2612 17.2035 45.6667 19.3567C45.6216 19.5167 45.599 19.6822 45.5995 19.8485V21.5846ZM33.7468 21.5846C33.6235 20.9666 33.3811 20.3788 33.0334 19.8543L37.0802 15.7785C38.4489 17.4229 39.2854 19.4487 39.4776 21.5846H33.7468ZM40.2908 9.81818L37.084 13.0491C35.0857 11.3262 32.5931 10.289 29.9685 10.0882V8.21718H31.3111C32.3468 8.21718 33.1906 7.36846 33.1906 6.32684V6.01822C35.8267 6.69236 38.2622 7.99586 40.2908 9.81818ZM35.7242 14.4167L31.6736 18.4925C31.156 18.148 30.577 17.9076 29.9685 17.7846V12.0229C32.084 12.2141 34.0915 13.0484 35.7242 14.4148V14.4167ZM28.0506 8.21718V10.0863C25.3387 10.2946 22.8723 11.3787 20.9237 13.0568L17.7188 9.82976C19.744 8.0067 22.1762 6.70127 24.8094 6.024V6.32684C24.8094 7.36846 25.6532 8.21718 26.6889 8.21718H28.0506ZM28.0506 12.0229V17.7846C27.4376 17.9086 26.8545 18.1517 26.3341 18.5002L22.2854 14.4244C23.9195 13.0528 25.9307 12.215 28.0506 12.0229ZM24.9781 19.8659C24.6345 20.3875 24.3948 20.9712 24.2723 21.5846H18.5416C18.7333 19.4539 19.5663 17.4325 20.9294 15.7901L24.9781 19.8659ZM12.4005 21.5846V19.8485C12.4005 19.6942 12.3813 19.5457 12.3429 19.403C12.7462 17.2329 13.5671 15.163 14.7595 13.3095H15.4519C15.8393 13.3091 16.2172 13.1884 16.534 12.964C16.8508 12.7397 17.0911 12.4225 17.2221 12.0557L19.5696 14.4206C17.8529 16.4317 16.8195 18.9416 16.6199 21.5846H12.4005ZM12.3813 23.5135H16.618C16.8176 26.1565 17.851 28.6663 19.5677 30.6775L17.3487 32.9112V32.8494C17.3487 31.8657 16.5623 31.0748 15.5842 31.0748H14.3241C13.2673 29.2389 12.5627 27.2197 12.247 25.1222C12.3361 24.899 12.3816 24.6606 12.3813 24.4201V23.5135ZM17.7188 35.2683L20.9237 32.0412C21.5029 32.5408 22.1262 32.9864 22.7898 33.3722L20.9448 37.5521C19.785 36.9193 18.7024 36.1529 17.7188 35.2683ZM22.2835 30.6717L25.3425 27.5951L23.5742 31.5976C23.1221 31.3219 22.6913 31.0124 22.2854 30.6717H22.2835ZM23.346 38.6265L25.191 34.4485C26.104 34.7436 27.061 34.9365 28.0506 35.0117V37.5946H26.5738C26.1553 37.5933 25.7501 37.7421 25.4309 38.0143C25.1117 38.2866 24.8995 38.6644 24.8324 39.0798C24.3303 38.9518 23.8343 38.8005 23.346 38.6265ZM25.9755 32.672L28.0506 27.9751V33.077C27.3471 33.0129 26.6518 32.8772 25.9755 32.672ZM29.9685 37.5946V35.0117C30.9385 34.9381 31.8964 34.7497 32.8224 34.4504L34.6636 38.6285C34.1782 38.8027 33.6847 38.9533 33.1849 39.0798C33.1178 38.6647 32.9059 38.2872 32.5871 38.015C32.2683 37.7428 31.8635 37.5937 31.4453 37.5946H29.9685ZM29.9685 33.077V27.9828L32.0399 32.6739C31.3647 32.8781 30.6707 33.0132 29.9685 33.077ZM37.0667 37.556L35.2255 33.376C35.8853 32.9902 36.5086 32.5466 37.0859 32.0509L40.2908 35.2779C39.308 36.1596 38.2267 36.9235 37.0687 37.5541L37.0667 37.556ZM34.4392 31.6014L32.6862 27.624L35.7242 30.6813C35.3214 31.0189 34.8918 31.3256 34.4392 31.6014ZM33.0334 25.2437C33.3748 24.7287 33.6222 24.1442 33.7468 23.5135H39.4756C39.2846 25.6489 38.4495 27.6746 37.0821 29.3195L33.0334 25.2437ZM41.4012 23.5135H45.5995V24.4201C45.5995 24.694 45.6571 24.9544 45.7626 25.1878C45.4421 27.262 44.741 29.2583 43.6951 31.0748H42.4158C41.4377 31.0748 40.6513 31.8657 40.6513 32.8494V32.9112L38.4419 30.6891C40.1643 28.676 41.2013 26.1616 41.4012 23.5135ZM18.5416 23.5135H24.2723C24.397 24.1385 24.6406 24.7191 24.9781 25.2302L20.9294 29.3079C19.5663 27.6655 18.7333 25.6442 18.5416 23.5135Z" fill="#C90DCD"/>
<path d="M31.4453 0H26.5738C25.5957 0 24.8094 0.790856 24.8094 1.7746V4.04108C22.0888 4.66409 19.5403 5.88834 17.3487 7.625V6.86694C17.3487 5.88319 16.5623 5.09234 15.5842 5.09234H10.7127C9.73456 5.09234 8.94822 5.88319 8.94822 6.86694V11.4192C8.94822 12.4608 9.7921 13.3095 10.8278 13.3095H12.5213C11.6901 14.8054 11.0655 16.4083 10.6647 18.0739H5.76448C4.78634 18.0739 4 18.8648 4 19.8485V24.4201C4 25.4617 4.84388 26.3104 5.87956 26.3104H10.5075C10.8431 27.9886 11.3993 29.5896 12.1435 31.0748H10.7127C9.73456 31.0748 8.94822 31.8657 8.94822 32.8494V37.4017C8.94822 38.4433 9.7921 39.292 10.8278 39.292H15.4499C16.4664 39.292 17.2988 38.4742 17.3295 37.4595C18.2117 38.1597 19.1611 38.7828 20.1623 39.319L14.8458 51.3555H10.099C9.75028 51.3555 9.41587 51.4948 9.16931 51.7427C8.92275 51.9907 8.78424 52.327 8.78424 52.6777C8.78424 53.0284 8.92275 53.3647 9.16931 53.6127C9.41587 53.8607 9.75028 54 10.099 54H49.5504C49.8989 54 50.233 53.8608 50.4794 53.613C50.7258 53.3652 50.8642 53.0291 50.8642 52.6787C50.8642 52.3283 50.7258 51.9922 50.4794 51.7444C50.233 51.4966 49.8989 51.3574 49.5504 51.3574H43.1561L37.8473 39.3248C38.8349 38.7968 39.7739 38.1817 40.6532 37.4865C40.6974 38.4896 41.524 39.292 42.5309 39.292H47.153C48.1887 39.292 49.0326 38.4433 49.0326 37.4017V34.4504H49.0518V32.8494C49.0518 31.8657 48.2654 31.0748 47.2873 31.0748H45.8757C46.6199 29.5896 47.1761 27.9886 47.5117 26.3104H52.1013C53.1369 26.3104 53.9808 25.4617 53.9808 24.4201V21.4495H54V19.8485C54 18.8841 53.2137 18.0739 52.2355 18.0739H47.3544C46.9537 16.4083 46.3291 14.8054 45.4979 13.3095H47.153C48.1887 13.3095 49.0326 12.4608 49.0326 11.4192V8.46794H49.0518V6.86694C49.0518 5.88319 48.2654 5.09234 47.2873 5.09234H42.4158C41.4377 5.09234 40.6513 5.88319 40.6513 6.86694V7.60957C38.4589 5.87625 35.9104 4.65531 33.1906 4.03529V3.3756H33.2098V1.7746C33.2098 0.790856 32.4235 0 31.4453 0ZM40.2792 51.3574H17.7208L22.5654 40.3934C23.2986 40.6622 24.0481 40.8838 24.8094 41.057V43.9407C24.8094 44.9823 25.6532 45.831 26.6889 45.831H31.3111C32.3468 45.831 33.1906 44.9823 33.1906 43.9407V41.0628C33.9554 40.8881 34.7087 40.6658 35.4461 40.3973L40.2792 51.3574ZM45.5995 21.5846H41.4012C41.2013 18.9364 40.1643 16.422 38.4419 14.409L40.7664 12.0712C40.8996 12.4341 41.1401 12.7473 41.4555 12.9687C41.7709 13.1901 42.1462 13.309 42.5309 13.3095H43.2616C44.4444 15.1499 45.2612 17.2035 45.6667 19.3567C45.6216 19.5167 45.599 19.6822 45.5995 19.8485V21.5846ZM33.7468 21.5846C33.6235 20.9666 33.3811 20.3788 33.0334 19.8543L37.0802 15.7785C38.4489 17.4229 39.2854 19.4487 39.4776 21.5846H33.7468ZM40.2908 9.81818L37.084 13.0491C35.0857 11.3262 32.5931 10.289 29.9685 10.0882V8.21718H31.3111C32.3468 8.21718 33.1906 7.36846 33.1906 6.32684V6.01822C35.8267 6.69236 38.2622 7.99586 40.2908 9.81818ZM35.7242 14.4167L31.6736 18.4925C31.156 18.148 30.577 17.9076 29.9685 17.7846V12.0229C32.084 12.2141 34.0915 13.0484 35.7242 14.4148V14.4167ZM28.0506 8.21718V10.0863C25.3387 10.2946 22.8723 11.3787 20.9237 13.0568L17.7188 9.82976C19.744 8.0067 22.1762 6.70127 24.8094 6.024V6.32684C24.8094 7.36846 25.6532 8.21718 26.6889 8.21718H28.0506ZM28.0506 12.0229V17.7846C27.4376 17.9086 26.8545 18.1517 26.3341 18.5002L22.2854 14.4244C23.9195 13.0528 25.9307 12.215 28.0506 12.0229ZM24.9781 19.8659C24.6345 20.3875 24.3948 20.9712 24.2723 21.5846H18.5416C18.7333 19.4539 19.5663 17.4325 20.9294 15.7901L24.9781 19.8659ZM12.4005 21.5846V19.8485C12.4005 19.6942 12.3813 19.5457 12.3429 19.403C12.7462 17.2329 13.5671 15.163 14.7595 13.3095H15.4519C15.8393 13.3091 16.2172 13.1884 16.534 12.964C16.8508 12.7397 17.0911 12.4225 17.2221 12.0557L19.5696 14.4206C17.8529 16.4317 16.8195 18.9416 16.6199 21.5846H12.4005ZM12.3813 23.5135H16.618C16.8176 26.1565 17.851 28.6663 19.5677 30.6775L17.3487 32.9112V32.8494C17.3487 31.8657 16.5623 31.0748 15.5842 31.0748H14.3241C13.2673 29.2389 12.5627 27.2197 12.247 25.1222C12.3361 24.899 12.3816 24.6606 12.3813 24.4201V23.5135ZM17.7188 35.2683L20.9237 32.0412C21.5029 32.5408 22.1262 32.9864 22.7898 33.3722L20.9448 37.5521C19.785 36.9193 18.7024 36.1529 17.7188 35.2683ZM22.2835 30.6717L25.3425 27.5951L23.5742 31.5976C23.1221 31.3219 22.6913 31.0124 22.2854 30.6717H22.2835ZM23.346 38.6265L25.191 34.4485C26.104 34.7436 27.061 34.9365 28.0506 35.0117V37.5946H26.5738C26.1553 37.5933 25.7501 37.7421 25.4309 38.0143C25.1117 38.2866 24.8995 38.6644 24.8324 39.0798C24.3303 38.9518 23.8343 38.8005 23.346 38.6265ZM25.9755 32.672L28.0506 27.9751V33.077C27.3471 33.0129 26.6518 32.8772 25.9755 32.672ZM29.9685 37.5946V35.0117C30.9385 34.9381 31.8964 34.7497 32.8224 34.4504L34.6636 38.6285C34.1782 38.8027 33.6847 38.9533 33.1849 39.0798C33.1178 38.6647 32.9059 38.2872 32.5871 38.015C32.2683 37.7428 31.8635 37.5937 31.4453 37.5946H29.9685ZM29.9685 33.077V27.9828L32.0399 32.6739C31.3647 32.8781 30.6707 33.0132 29.9685 33.077ZM37.0667 37.556L35.2255 33.376C35.8853 32.9902 36.5086 32.5466 37.0859 32.0509L40.2908 35.2779C39.308 36.1596 38.2267 36.9235 37.0687 37.5541L37.0667 37.556ZM34.4392 31.6014L32.6862 27.624L35.7242 30.6813C35.3214 31.0189 34.8918 31.3256 34.4392 31.6014ZM33.0334 25.2437C33.3748 24.7287 33.6222 24.1442 33.7468 23.5135H39.4756C39.2846 25.6489 38.4495 27.6746 37.0821 29.3195L33.0334 25.2437ZM41.4012 23.5135H45.5995V24.4201C45.5995 24.694 45.6571 24.9544 45.7626 25.1878C45.4421 27.262 44.741 29.2583 43.6951 31.0748H42.4158C41.4377 31.0748 40.6513 31.8657 40.6513 32.8494V32.9112L38.4419 30.6891C40.1643 28.676 41.2013 26.1616 41.4012 23.5135ZM18.5416 23.5135H24.2723C24.397 24.1385 24.6406 24.7191 24.9781 25.2302L20.9294 29.3079C19.5663 27.6655 18.7333 25.6442 18.5416 23.5135Z" stroke="black" stroke-width="2" mask="url(#path-1-inside-1_14_70)"/>
</g>
<defs>
<filter id="filter0_d_14_70" x="0" y="0" width="58" height="62" filterUnits="userSpaceOnUse" color-interpolation-filters="sRGB">
<feFlood flood-opacity="0" result="BackgroundImageFix"/>
<feColorMatrix in="SourceAlpha" type="matrix" values="0 0 0 0 0 0 0 0 0 0 0 0 0 0 0 0 0 0 127 0" result="hardAlpha"/>
<feOffset dy="4"/>
<feGaussianBlur stdDeviation="2"/>
<feComposite in2="hardAlpha" operator="out"/>
<feColorMatrix type="matrix" values="0 0 0 0 0 0 0 0 0 0 0 0 0 0 0 0 0 0 0.25 0"/>
<feBlend mode="normal" in2="BackgroundImageFix" result="effect1_dropShadow_14_70"/>
<feBlend mode="normal" in="SourceGraphic" in2="effect1_dropShadow_14_70" result="shape"/>
</filter>
</defs>
</svg>
