<svg width="52" height="44" viewBox="0 0 52 44" fill="none" xmlns="http://www.w3.org/2000/svg">
<mask id="path-1-inside-1_14_69" fill="white">
<path d="M11.375 11.375C11.375 10.944 11.5462 10.5307 11.851 10.226C12.1557 9.92121 12.569 9.75 13 9.75H17.875C18.306 9.75 18.7193 9.92121 19.024 10.226C19.3288 10.5307 19.5 10.944 19.5 11.375V22.75C19.5 23.181 19.3288 23.5943 19.024 23.899C18.7193 24.2038 18.306 24.375 17.875 24.375H13C12.569 24.375 12.1557 24.2038 11.851 23.899C11.5462 23.5943 11.375 23.181 11.375 22.75V11.375Z"/>
<path d="M14.625 0C15.5188 0 16.25 0.73125 16.25 1.625V3.25H16.9163C17.4525 3.25 17.875 3.6725 17.875 4.20875V4.85875H19.8575C22.2056 4.85875 24.2515 6.18313 25.285 8.125H48.75C49.181 8.125 49.5943 8.29621 49.899 8.60095C50.2038 8.9057 50.375 9.31902 50.375 9.75C50.375 10.181 50.2038 10.5943 49.899 10.899C49.5943 11.2038 49.181 11.375 48.75 11.375H45.5V14.625H46.0037C46.7912 14.625 47.5709 14.7801 48.2984 15.0814C49.0259 15.3828 49.6869 15.8245 50.2437 16.3813C50.8005 16.9381 51.2422 17.5991 51.5436 18.3266C51.8449 19.0541 52 19.8338 52 20.6213V34.6287C51.9983 36.2185 51.366 37.7427 50.2418 38.8668C49.1177 39.991 47.5935 40.6233 46.0037 40.625H43.3274C42.8664 41.5981 42.1386 42.4203 41.2288 42.9961C40.3189 43.5718 39.2642 43.8775 38.1875 43.8775C37.1108 43.8775 36.0561 43.5718 35.1462 42.9961C34.2364 42.4203 33.5086 41.5981 33.0476 40.625H18.9524C18.4914 41.5981 17.7636 42.4203 16.8538 42.9961C15.9439 43.5718 14.8892 43.8775 13.8125 43.8775C12.7358 43.8775 11.6811 43.5718 10.7712 42.9961C9.86137 42.4203 9.13362 41.5981 8.67262 40.625H6.1425C4.51394 40.6233 2.95257 39.9756 1.801 38.824C0.649428 37.6724 0.00172062 36.1111 0 34.4825V28.4473C0.0195 27.5811 0.0975 26.7118 0.23075 25.857L0.27625 25.5401C0.2925 25.4231 0.31525 25.3094 0.3445 25.1989L0.5395 23.894L0.550875 23.8225L2.79012 10.842L2.99488 9.56313C3.19159 8.25338 3.85226 7.05787 4.85652 6.19439C5.86078 5.33091 7.14181 4.85691 8.46625 4.85875H11.375V4.20875C11.375 3.6725 11.8138 3.25 12.3337 3.25H13V1.625C13 0.73125 13.7312 0 14.625 0ZM39 11.375V14.625H42.25V11.375H39ZM35.75 14.625V11.375H32.5V14.625H35.75ZM26 11.375V14.625H29.25V11.375H26ZM22.75 11.0013C22.75 9.40875 21.45 8.10875 19.8575 8.10875H8.46625C7.9722 8.10719 7.49107 8.2665 7.09559 8.56261C6.7001 8.85871 6.41175 9.27551 6.27413 9.75H7.9625C8.9375 9.75 9.75 10.5463 9.75 11.5375V22.5875C9.75 23.5787 8.9375 24.375 7.9625 24.375H3.75375L3.51 26H48.75V20.6213C48.75 19.1019 47.515 17.875 46.0037 17.875H22.75V11.0013ZM19.4431 37.375H32.5569C32.7525 36.0212 33.4294 34.7832 34.4635 33.8878C35.4976 32.9925 36.8196 32.4996 38.1875 32.4996C39.5554 32.4996 40.8774 32.9925 41.9115 33.8878C42.9456 34.7832 43.6225 36.0212 43.8181 37.375H46.0037C47.515 37.375 48.75 36.14 48.75 34.6287V34.125H47.125C46.694 34.125 46.2807 33.9538 45.976 33.649C45.6712 33.3443 45.5 32.931 45.5 32.5C45.5 32.069 45.6712 31.6557 45.976 31.351C46.2807 31.0462 46.694 30.875 47.125 30.875H48.75V29.25H3.25V30.875C3.68098 30.875 4.0943 31.0462 4.39905 31.351C4.7038 31.6557 4.875 32.069 4.875 32.5V34.125C4.87503 34.5072 4.74031 34.8773 4.49452 35.17C4.24873 35.4628 3.90761 35.6595 3.53113 35.7256C3.99913 36.7006 4.99362 37.375 6.1425 37.375H8.18188C8.37506 36.0193 9.0509 34.7788 10.0853 33.8813C11.1196 32.9839 12.4431 32.4898 13.8125 32.4898C15.1819 32.4898 16.5054 32.9839 17.5397 33.8813C18.5741 34.7788 19.2499 36.0193 19.4431 37.375ZM13.8125 40.625C14.459 40.625 15.079 40.3682 15.5361 39.9111C15.9932 39.454 16.25 38.834 16.25 38.1875C16.25 37.541 15.9932 36.921 15.5361 36.4639C15.079 36.0068 14.459 35.75 13.8125 35.75C13.166 35.75 12.546 36.0068 12.0889 36.4639C11.6318 36.921 11.375 37.541 11.375 38.1875C11.375 38.834 11.6318 39.454 12.0889 39.9111C12.546 40.3682 13.166 40.625 13.8125 40.625ZM38.1875 40.625C38.834 40.625 39.454 40.3682 39.9111 39.9111C40.3682 39.454 40.625 38.834 40.625 38.1875C40.625 37.541 40.3682 36.921 39.9111 36.4639C39.454 36.0068 38.834 35.75 38.1875 35.75C37.541 35.75 36.921 36.0068 36.4639 36.4639C36.0068 36.921 35.75 37.541 35.75 38.1875C35.75 38.834 36.0068 39.454 36.4639 39.9111C36.921 40.3682 37.541 40.625 38.1875 40.625Z"/>
</mask>
<path d="M11.375 11.375C11.375 10.944 11.5462 10.5307 11.851 10.226C12.1557 9.92121 12.569 9.75 13 9.75H17.875C18.306 9.75 18.7193 9.92121 19.024 10.226C19.3288 10.5307 19.5 10.944 19.5 11.375V22.75C19.5 23.181 19.3288 23.5943 19.024 23.899C18.7193 24.2038 18.306 24.375 17.875 24.375H13C12.569 24.375 12.1557 24.2038 11.851 23.899C11.5462 23.5943 11.375 23.181 11.375 22.75V11.375Z" fill="#4DC3F5"/>
<path d="M14.625 0C15.5188 0 16.25 0.73125 16.25 1.625V3.25H16.9163C17.4525 3.25 17.875 3.6725 17.875 4.20875V4.85875H19.8575C22.2056 4.85875 24.2515 6.18313 25.285 8.125H48.75C49.181 8.125 49.5943 8.29621 49.899 8.60095C50.2038 8.9057 50.375 9.31902 50.375 9.75C50.375 10.181 50.2038 10.5943 49.899 10.899C49.5943 11.2038 49.181 11.375 48.75 11.375H45.5V14.625H46.0037C46.7912 14.625 47.5709 14.7801 48.2984 15.0814C49.0259 15.3828 49.6869 15.8245 50.2437 16.3813C50.8005 16.9381 51.2422 17.5991 51.5436 18.3266C51.8449 19.0541 52 19.8338 52 20.6213V34.6287C51.9983 36.2185 51.366 37.7427 50.2418 38.8668C49.1177 39.991 47.5935 40.6233 46.0037 40.625H43.3274C42.8664 41.5981 42.1386 42.4203 41.2288 42.9961C40.3189 43.5718 39.2642 43.8775 38.1875 43.8775C37.1108 43.8775 36.0561 43.5718 35.1462 42.9961C34.2364 42.4203 33.5086 41.5981 33.0476 40.625H18.9524C18.4914 41.5981 17.7636 42.4203 16.8538 42.9961C15.9439 43.5718 14.8892 43.8775 13.8125 43.8775C12.7358 43.8775 11.6811 43.5718 10.7712 42.9961C9.86137 42.4203 9.13362 41.5981 8.67262 40.625H6.1425C4.51394 40.6233 2.95257 39.9756 1.801 38.824C0.649428 37.6724 0.00172062 36.1111 0 34.4825V28.4473C0.0195 27.5811 0.0975 26.7118 0.23075 25.857L0.27625 25.5401C0.2925 25.4231 0.31525 25.3094 0.3445 25.1989L0.5395 23.894L0.550875 23.8225L2.79012 10.842L2.99488 9.56313C3.19159 8.25338 3.85226 7.05787 4.85652 6.19439C5.86078 5.33091 7.14181 4.85691 8.46625 4.85875H11.375V4.20875C11.375 3.6725 11.8138 3.25 12.3337 3.25H13V1.625C13 0.73125 13.7312 0 14.625 0ZM39 11.375V14.625H42.25V11.375H39ZM35.75 14.625V11.375H32.5V14.625H35.75ZM26 11.375V14.625H29.25V11.375H26ZM22.75 11.0013C22.75 9.40875 21.45 8.10875 19.8575 8.10875H8.46625C7.9722 8.10719 7.49107 8.2665 7.09559 8.56261C6.7001 8.85871 6.41175 9.27551 6.27413 9.75H7.9625C8.9375 9.75 9.75 10.5463 9.75 11.5375V22.5875C9.75 23.5787 8.9375 24.375 7.9625 24.375H3.75375L3.51 26H48.75V20.6213C48.75 19.1019 47.515 17.875 46.0037 17.875H22.75V11.0013ZM19.4431 37.375H32.5569C32.7525 36.0212 33.4294 34.7832 34.4635 33.8878C35.4976 32.9925 36.8196 32.4996 38.1875 32.4996C39.5554 32.4996 40.8774 32.9925 41.9115 33.8878C42.9456 34.7832 43.6225 36.0212 43.8181 37.375H46.0037C47.515 37.375 48.75 36.14 48.75 34.6287V34.125H47.125C46.694 34.125 46.2807 33.9538 45.976 33.649C45.6712 33.3443 45.5 32.931 45.5 32.5C45.5 32.069 45.6712 31.6557 45.976 31.351C46.2807 31.0462 46.694 30.875 47.125 30.875H48.75V29.25H3.25V30.875C3.68098 30.875 4.0943 31.0462 4.39905 31.351C4.7038 31.6557 4.875 32.069 4.875 32.5V34.125C4.87503 34.5072 4.74031 34.8773 4.49452 35.17C4.24873 35.4628 3.90761 35.6595 3.53113 35.7256C3.99913 36.7006 4.99362 37.375 6.1425 37.375H8.18188C8.37506 36.0193 9.0509 34.7788 10.0853 33.8813C11.1196 32.9839 12.4431 32.4898 13.8125 32.4898C15.1819 32.4898 16.5054 32.9839 17.5397 33.8813C18.5741 34.7788 19.2499 36.0193 19.4431 37.375ZM13.8125 40.625C14.459 40.625 15.079 40.3682 15.5361 39.9111C15.9932 39.454 16.25 38.834 16.25 38.1875C16.25 37.541 15.9932 36.921 15.5361 36.4639C15.079 36.0068 14.459 35.75 13.8125 35.75C13.166 35.75 12.546 36.0068 12.0889 36.4639C11.6318 36.921 11.375 37.541 11.375 38.1875C11.375 38.834 11.6318 39.454 12.0889 39.9111C12.546 40.3682 13.166 40.625 13.8125 40.625ZM38.1875 40.625C38.834 40.625 39.454 40.3682 39.9111 39.9111C40.3682 39.454 40.625 38.834 40.625 38.1875C40.625 37.541 40.3682 36.921 39.9111 36.4639C39.454 36.0068 38.834 35.75 38.1875 35.75C37.541 35.75 36.921 36.0068 36.4639 36.4639C36.0068 36.921 35.75 37.541 35.75 38.1875C35.75 38.834 36.0068 39.454 36.4639 39.9111C36.921 40.3682 37.541 40.625 38.1875 40.625Z" fill="#4DC3F5"/>
<path d="M11.375 11.375C11.375 10.944 11.5462 10.5307 11.851 10.226C12.1557 9.92121 12.569 9.75 13 9.75H17.875C18.306 9.75 18.7193 9.92121 19.024 10.226C19.3288 10.5307 19.5 10.944 19.5 11.375V22.75C19.5 23.181 19.3288 23.5943 19.024 23.899C18.7193 24.2038 18.306 24.375 17.875 24.375H13C12.569 24.375 12.1557 24.2038 11.851 23.899C11.5462 23.5943 11.375 23.181 11.375 22.75V11.375Z" stroke="black" stroke-width="2" mask="url(#path-1-inside-1_14_69)"/>
<path d="M14.625 0C15.5188 0 16.25 0.73125 16.25 1.625V3.25H16.9163C17.4525 3.25 17.875 3.6725 17.875 4.20875V4.85875H19.8575C22.2056 4.85875 24.2515 6.18313 25.285 8.125H48.75C49.181 8.125 49.5943 8.29621 49.899 8.60095C50.2038 8.9057 50.375 9.31902 50.375 9.75C50.375 10.181 50.2038 10.5943 49.899 10.899C49.5943 11.2038 49.181 11.375 48.75 11.375H45.5V14.625H46.0037C46.7912 14.625 47.5709 14.7801 48.2984 15.0814C49.0259 15.3828 49.6869 15.8245 50.2437 16.3813C50.8005 16.9381 51.2422 17.5991 51.5436 18.3266C51.8449 19.0541 52 19.8338 52 20.6213V34.6287C51.9983 36.2185 51.366 37.7427 50.2418 38.8668C49.1177 39.991 47.5935 40.6233 46.0037 40.625H43.3274C42.8664 41.5981 42.1386 42.4203 41.2288 42.9961C40.3189 43.5718 39.2642 43.8775 38.1875 43.8775C37.1108 43.8775 36.0561 43.5718 35.1462 42.9961C34.2364 42.4203 33.5086 41.5981 33.0476 40.625H18.9524C18.4914 41.5981 17.7636 42.4203 16.8538 42.9961C15.9439 43.5718 14.8892 43.8775 13.8125 43.8775C12.7358 43.8775 11.6811 43.5718 10.7712 42.9961C9.86137 42.4203 9.13362 41.5981 8.67262 40.625H6.1425C4.51394 40.6233 2.95257 39.9756 1.801 38.824C0.649428 37.6724 0.00172062 36.1111 0 34.4825V28.4473C0.0195 27.5811 0.0975 26.7118 0.23075 25.857L0.27625 25.5401C0.2925 25.4231 0.31525 25.3094 0.3445 25.1989L0.5395 23.894L0.550875 23.8225L2.79012 10.842L2.99488 9.56313C3.19159 8.25338 3.85226 7.05787 4.85652 6.19439C5.86078 5.33091 7.14181 4.85691 8.46625 4.85875H11.375V4.20875C11.375 3.6725 11.8138 3.25 12.3337 3.25H13V1.625C13 0.73125 13.7312 0 14.625 0ZM39 11.375V14.625H42.25V11.375H39ZM35.75 14.625V11.375H32.5V14.625H35.75ZM26 11.375V14.625H29.25V11.375H26ZM22.75 11.0013C22.75 9.40875 21.45 8.10875 19.8575 8.10875H8.46625C7.9722 8.10719 7.49107 8.2665 7.09559 8.56261C6.7001 8.85871 6.41175 9.27551 6.27413 9.75H7.9625C8.9375 9.75 9.75 10.5463 9.75 11.5375V22.5875C9.75 23.5787 8.9375 24.375 7.9625 24.375H3.75375L3.51 26H48.75V20.6213C48.75 19.1019 47.515 17.875 46.0037 17.875H22.75V11.0013ZM19.4431 37.375H32.5569C32.7525 36.0212 33.4294 34.7832 34.4635 33.8878C35.4976 32.9925 36.8196 32.4996 38.1875 32.4996C39.5554 32.4996 40.8774 32.9925 41.9115 33.8878C42.9456 34.7832 43.6225 36.0212 43.8181 37.375H46.0037C47.515 37.375 48.75 36.14 48.75 34.6287V34.125H47.125C46.694 34.125 46.2807 33.9538 45.976 33.649C45.6712 33.3443 45.5 32.931 45.5 32.5C45.5 32.069 45.6712 31.6557 45.976 31.351C46.2807 31.0462 46.694 30.875 47.125 30.875H48.75V29.25H3.25V30.875C3.68098 30.875 4.0943 31.0462 4.39905 31.351C4.7038 31.6557 4.875 32.069 4.875 32.5V34.125C4.87503 34.5072 4.74031 34.8773 4.49452 35.17C4.24873 35.4628 3.90761 35.6595 3.53113 35.7256C3.99913 36.7006 4.99362 37.375 6.1425 37.375H8.18188C8.37506 36.0193 9.0509 34.7788 10.0853 33.8813C11.1196 32.9839 12.4431 32.4898 13.8125 32.4898C15.1819 32.4898 16.5054 32.9839 17.5397 33.8813C18.5741 34.7788 19.2499 36.0193 19.4431 37.375ZM13.8125 40.625C14.459 40.625 15.079 40.3682 15.5361 39.9111C15.9932 39.454 16.25 38.834 16.25 38.1875C16.25 37.541 15.9932 36.921 15.5361 36.4639C15.079 36.0068 14.459 35.75 13.8125 35.75C13.166 35.75 12.546 36.0068 12.0889 36.4639C11.6318 36.921 11.375 37.541 11.375 38.1875C11.375 38.834 11.6318 39.454 12.0889 39.9111C12.546 40.3682 13.166 40.625 13.8125 40.625ZM38.1875 40.625C38.834 40.625 39.454 40.3682 39.9111 39.9111C40.3682 39.454 40.625 38.834 40.625 38.1875C40.625 37.541 40.3682 36.921 39.9111 36.4639C39.454 36.0068 38.834 35.75 38.1875 35.75C37.541 35.75 36.921 36.0068 36.4639 36.4639C36.0068 36.921 35.75 37.541 35.75 38.1875C35.75 38.834 36.0068 39.454 36.4639 39.9111C36.921 40.3682 37.541 40.625 38.1875 40.625Z" stroke="black" stroke-width="2" mask="url(#path-1-inside-1_14_69)"/>
</svg>
