<svg width="53" height="52" viewBox="0 0 53 52" fill="none" xmlns="http://www.w3.org/2000/svg">
<mask id="path-1-inside-1_14_73" fill="white">
<path d="M29.9904 34.9343C29.683 34.7806 29.3414 34.6952 28.9656 34.6952C28.5899 34.6952 28.2483 34.7806 27.975 34.9343C27.8726 34.9856 27.753 34.8831 27.8213 34.7806C28.0604 34.4049 28.5045 34.1487 28.9827 34.1487C29.4609 34.1487 29.905 34.4049 30.1441 34.7806C30.1954 34.866 30.0929 34.9856 29.9904 34.9343ZM29.2389 37.018L29.5976 35.8396C29.6145 35.7838 29.618 35.7249 29.6079 35.6676C29.5978 35.6103 29.5744 35.5561 29.5394 35.5095C29.5045 35.463 29.4591 35.4253 29.4069 35.3995C29.3547 35.3738 29.2971 35.3607 29.2389 35.3613H28.6924C28.4362 35.3613 28.2654 35.6004 28.3337 35.8396L28.6924 37.018C28.7948 37.2742 29.1535 37.2742 29.2389 37.018ZM27.7872 36.9668C27.7872 37.0351 27.7701 37.0983 27.7393 37.1512C27.7312 37.1352 27.7195 37.1211 27.7051 37.1102C27.6907 37.0993 27.6741 37.0918 27.6564 37.0882C27.6387 37.0846 27.6205 37.0851 27.603 37.0896C27.5855 37.0941 27.5693 37.1025 27.5555 37.1141C27.5417 37.1258 27.5308 37.1404 27.5235 37.1569C27.5161 37.1734 27.5126 37.1913 27.5132 37.2093C27.5138 37.2274 27.5185 37.245 27.5269 37.261C27.5353 37.277 27.5472 37.2908 27.5617 37.3015C27.5191 37.3175 27.474 37.3256 27.4285 37.3255C27.2235 37.3255 27.0698 37.1717 27.0698 36.9668C27.0698 36.8985 27.0869 36.8472 27.104 36.796H27.7359C27.7872 36.8472 27.7872 36.8985 27.7872 36.9668ZM30.1441 36.9668C30.1441 37.1717 30.2978 37.3255 30.5028 37.3255C30.5526 37.3255 30.602 37.3156 30.648 37.2964C30.6348 37.2856 30.6241 37.272 30.6166 37.2567C30.6092 37.2413 30.605 37.2245 30.6046 37.2075C30.6041 37.1904 30.6073 37.1735 30.6139 37.1577C30.6206 37.142 30.6305 37.1279 30.6431 37.1163C30.6556 37.1048 30.6705 37.096 30.6867 37.0907C30.7029 37.0853 30.7201 37.0835 30.7371 37.0854C30.754 37.0872 30.7704 37.0927 30.7851 37.1014C30.7998 37.1101 30.8124 37.1219 30.8222 37.1359C30.8484 37.0834 30.8619 37.0255 30.8615 36.9668C30.8615 36.8985 30.8444 36.8472 30.8273 36.796H30.1954C30.1612 36.8472 30.1441 36.8985 30.1441 36.9668Z"/>
<path d="M27.4286 37.5986C27.3456 37.5986 27.2634 37.5823 27.1868 37.5505C27.1101 37.5188 27.0404 37.4722 26.9817 37.4136C26.9231 37.3549 26.8765 37.2852 26.8448 37.2085C26.813 37.1319 26.7967 37.0497 26.7967 36.9667C26.7967 36.9206 26.7967 36.8625 26.8086 36.813H26.5234C26.4038 36.813 26.3013 36.9325 26.3355 37.0521C26.4551 37.4791 26.8308 37.7865 27.292 37.7865C27.7702 37.7865 28.163 37.4449 28.2484 37.0009C28.2826 36.8984 28.1972 36.813 28.0947 36.813H28.0315C28.042 36.8635 28.046 36.9152 28.0435 36.9667C28.0605 37.3083 27.7873 37.5986 27.4286 37.5986ZM31.1348 36.9667C31.1348 37.3254 30.8445 37.5986 30.5029 37.5986C30.4207 37.5987 30.3393 37.5822 30.2636 37.5503C30.1878 37.5183 30.1193 37.4715 30.062 37.4126C30.0046 37.3536 29.9597 37.2838 29.9298 37.2072C29.9 37.1307 29.8857 37.0489 29.888 36.9667C29.888 36.9069 29.888 36.8591 29.9 36.813H29.8539C29.7514 36.813 29.666 36.8984 29.7002 37.0009C29.7685 37.4449 30.1784 37.7865 30.6566 37.7865C31.1178 37.7865 31.4935 37.4791 31.6131 37.0521C31.6472 36.9325 31.5447 36.813 31.4252 36.813H31.1229C31.1328 36.8636 31.1368 36.9152 31.1348 36.9667ZM26.3748 38.702L26.3799 38.7071L26.3885 38.7122L26.4004 38.7208C26.4314 38.7432 26.4633 38.7643 26.4961 38.784C26.895 39.0152 27.3586 39.11 27.8163 39.0538C27.9169 39.0416 28.0084 38.9899 28.0709 38.9101C28.1334 38.8304 28.1616 38.7291 28.1493 38.6285C28.1371 38.528 28.0854 38.4364 28.0057 38.3739C27.9259 38.3115 27.8246 38.2833 27.7241 38.2955C27.418 38.333 27.1083 38.2649 26.8462 38.1025L26.8394 38.0974C26.7592 38.0358 26.6578 38.0085 26.5576 38.0217C26.4573 38.0348 26.3664 38.0872 26.3048 38.1674C26.2432 38.2476 26.2159 38.3489 26.2291 38.4492C26.2422 38.5494 26.2946 38.6404 26.3748 38.702ZM31.1434 38.0974C31.2235 38.0358 31.3249 38.0085 31.4252 38.0217C31.5254 38.0348 31.6164 38.0872 31.678 38.1674C31.7396 38.2476 31.7668 38.3489 31.7537 38.4492C31.7405 38.5494 31.6881 38.6404 31.6079 38.702L31.6062 38.7037L31.6028 38.7071L31.5943 38.7122C31.5602 38.7388 31.5243 38.7627 31.4867 38.784C31.0877 39.0152 30.6241 39.11 30.1664 39.0538C30.1166 39.0478 30.0685 39.032 30.0248 39.0073C29.9812 38.9827 29.9428 38.9496 29.9118 38.9101C29.8809 38.8707 29.858 38.8255 29.8446 38.7771C29.8311 38.7288 29.8273 38.6783 29.8334 38.6285C29.8394 38.5787 29.8552 38.5306 29.8799 38.4869C29.9045 38.4433 29.9375 38.4049 29.977 38.3739C30.0165 38.343 30.0617 38.3202 30.11 38.3067C30.1584 38.2932 30.2089 38.2894 30.2587 38.2955C30.5647 38.333 30.8744 38.2649 31.1365 38.1025L31.1434 38.0974Z"/>
<path d="M35.0221 39.2776L35.0563 39.4706C35.1726 40.1168 35.078 40.7833 34.7864 41.3717C34.4949 41.96 34.0218 42.439 33.4372 42.7379L33.111 42.9087C33.0667 42.9325 33.0263 42.9631 32.9914 42.9992L32.2655 43.7251C31.8392 44.138 31.3011 44.4167 30.7178 44.5266C30.1346 44.6365 29.5319 44.5728 28.9846 44.3434C28.4529 44.532 27.8811 44.5779 27.3261 44.4766V47.8805C27.3214 48.7616 26.9785 49.6073 26.3683 50.243C25.7581 50.8786 24.9271 51.2557 24.0469 51.2964H21.3313C20.727 51.2907 20.144 51.0724 19.6846 50.6798C19.2252 50.2872 18.9187 49.7453 18.8188 49.1493C18.719 48.5533 18.8322 47.9412 19.1385 47.4203C19.4449 46.8994 19.9249 46.503 20.4944 46.3007V36.4595C20.438 36.2869 20.4092 36.1065 20.409 35.9249C20.5524 33.2981 21.1605 30.7191 22.2023 28.304V24.0547H20.4944C20.4327 24.0547 20.3712 24.0513 20.3099 24.0444L8.02638 24.0103L2.83764 25.117C2.71638 25.1392 2.5917 25.1512 2.46873 25.1529C1.97611 25.1232 1.5035 24.9475 1.11111 24.6482C0.718724 24.3489 0.424342 23.9395 0.265481 23.4723C0.0464885 23.0606 -0.0401867 22.5914 0.0172761 22.1286C0.0747389 21.6658 0.273542 21.2321 0.586575 20.8864C1.4098 20.0837 5.18607 16.8796 5.57377 16.5517C6.03492 16.1384 6.62928 15.9112 7.24585 15.9112C7.62343 15.9134 7.99595 15.9982 8.33731 16.1596C8.67867 16.321 8.9806 16.5551 9.22194 16.8455L9.82997 17.5867L20.1528 16.1691L20.2296 16.152L27.0614 15.0162L27.3261 14.9565C28.5115 14.7676 29.6625 14.405 30.742 13.8805L33.6421 11.3698C33.6718 11.344 33.7025 11.3195 33.7344 11.2963L41.6421 4.02904L41.5994 2.76858C41.5931 2.43807 41.6541 2.10973 41.7785 1.8035C41.903 1.49727 42.0885 1.21955 42.3236 0.987192C42.8571 0.419683 43.593 0.0857653 44.3714 0.0580701C44.3714 0.0580701 47.4372 0 49.4474 0C50.1682 0 50.7455 0.0085397 51.0222 0.0256191C51.4753 0.0555861 51.905 0.237692 52.2416 0.542421C52.5783 0.84715 52.8022 1.25664 52.877 1.70453C53.0491 2.26205 53.0404 2.85977 52.852 3.41202C52.6636 3.96427 52.3053 4.44273 51.8283 4.77883L51.0734 5.2024C49.8386 5.89411 48.462 6.66611 47.6968 7.08968L35.8659 23.0299V28.4612C36.7625 29.7165 37.4884 31.0846 38.0315 32.5295L44.9914 39.8737L45.2647 40.1691L45.3501 40.2631L46.0947 41.0675C46.1409 41.1085 46.1921 41.1563 46.2467 41.2127L47.2886 42.3229L47.3467 42.3878C47.6139 42.6957 47.7911 43.0714 47.8589 43.4734C47.9268 43.8755 47.8826 44.2885 47.7312 44.6671C47.5798 45.0457 47.3271 45.3753 47.0008 45.6198C46.6745 45.8642 46.2871 46.0141 45.8812 46.053C45.4471 46.3195 44.9345 46.4287 44.4295 46.3621C44.1571 46.4706 43.8659 46.524 43.5728 46.5193C43.2796 46.5146 42.9903 46.4519 42.7215 46.3348C42.4955 46.4349 42.2552 46.4989 42.0093 46.5244C41.9547 46.5346 41.8368 46.5346 41.7839 46.5346C41.2096 46.5397 40.6537 46.3321 40.2233 45.9518C39.7928 45.5715 39.5183 45.0454 39.4525 44.4749L39.374 43.8498L35.0221 39.2776ZM46.4859 5.85654L43.3808 4.70368L43.4201 4.72076L34.8462 12.5858L38.9521 16.0086L46.4876 5.85654H46.4859ZM34.1579 22.3467H23.8283H23.9103V28.6405C23.0086 30.6824 22.4284 32.8516 22.1904 35.0709H23.391C23.5413 34.8796 23.7156 34.7071 23.9103 34.5585L23.9444 34.2921C24.0239 33.3792 24.4169 32.522 25.0567 31.866C25.6965 31.21 26.5436 30.7957 27.4542 30.6935C27.7668 30.0581 28.216 29.2212 28.5388 28.8369C28.7437 28.5978 29.1195 28.5807 29.3244 28.8369C29.6507 29.2127 30.1033 30.0479 30.4261 30.6815C31.3658 30.7632 32.246 31.1757 32.91 31.8457C33.574 32.5156 33.9787 33.3995 34.052 34.3399L34.0674 34.5637C34.1135 34.5978 34.1579 34.6354 34.2023 34.673L36.2433 32.632C35.7167 31.345 35.0149 30.1369 34.1579 29.0419V22.3467ZM35.1776 36.9889L40.795 42.8814L40.9897 43.0983L41.1434 44.2597C41.1607 44.416 41.2355 44.5604 41.3532 44.6649C41.4709 44.7693 41.6231 44.8264 41.7805 44.825H41.8437C41.926 44.8159 42.0056 44.7905 42.0779 44.7502C42.1502 44.7099 42.2137 44.6554 42.2647 44.5902C42.3156 44.5249 42.353 44.4501 42.3745 44.3702C42.3961 44.2902 42.4014 44.2068 42.3902 44.1247L42.3731 43.971H42.4175C42.5475 43.9757 42.6703 44.0315 42.7591 44.1264L43.2203 44.6388C43.2715 44.6929 43.3332 44.736 43.4016 44.7653C43.47 44.7947 43.5438 44.8098 43.6182 44.8096C43.7338 44.8093 43.846 44.7708 43.9376 44.7003C44.0034 44.644 44.0548 44.5728 44.0875 44.4925C44.1202 44.4123 44.1332 44.3254 44.1255 44.2392L44.1391 44.2562V44.2733L44.3099 44.4646L44.327 44.4783L44.3441 44.4971C44.3915 44.5518 44.4503 44.5954 44.5164 44.6249C44.5825 44.6544 44.6543 44.6691 44.7267 44.6679C44.8517 44.6699 44.9732 44.6262 45.0683 44.5449C45.1237 44.4958 45.1678 44.4352 45.1976 44.3674C45.2274 44.2996 45.2421 44.2261 45.2408 44.1521L45.2391 44.1486V44.1077L45.2425 44.1521L45.2732 44.1828C45.3212 44.2363 45.3799 44.2792 45.4455 44.3086C45.5111 44.338 45.5822 44.3533 45.6541 44.3536C45.7838 44.3531 45.9091 44.3065 46.0076 44.2221C46.1073 44.1279 46.1666 43.9988 46.173 43.8618C46.1793 43.7248 46.1323 43.5907 46.0418 43.4877L44.9999 42.3775C44.9732 42.3511 44.9446 42.3266 44.9146 42.3041L44.3509 41.6943L44.3475 41.6909C44.2565 41.5913 44.1648 41.4922 44.0725 41.3937L44.0093 41.3254C43.9733 41.2852 43.9369 41.2453 43.9 41.2059L43.7412 41.0368L37.1793 34.1111L35.1127 36.1777C35.1734 36.4435 35.1953 36.7168 35.1776 36.9889ZM25.6182 43.6072C25.6027 43.5926 25.5873 43.5778 25.5721 43.5628L24.9914 42.9821C24.9464 42.9373 24.8937 42.9009 24.836 42.8745L24.6208 42.7567C24.0065 42.4728 23.5066 41.9891 23.2026 41.3846C22.8986 40.78 22.8085 40.0903 22.947 39.4279L23.169 38.2101C22.9218 37.7861 22.7921 37.3039 22.7933 36.813V36.7789H22.2023V47.1973L21.3483 47.8634C21.1256 47.866 20.9124 47.9544 20.7533 48.1104C20.5941 48.2663 20.5014 48.4776 20.4944 48.7003C20.4927 48.9276 20.5788 49.1468 20.7347 49.3122C20.8906 49.4776 21.1043 49.5766 21.3313 49.5884H24.0469C24.4729 49.5465 24.8685 49.3492 25.1584 49.0342C25.4482 48.7192 25.6119 48.3085 25.6182 47.8805V43.6072ZM20.4944 22.3467V17.8429L9.10238 19.404L9.09726 19.3954L9.15362 19.4774L7.80947 22.3023L20.4944 22.3365V22.3467ZM33.3074 37.3681L33.3244 37.3374L33.3364 37.3169L33.3449 37.3032L33.3535 37.2878V37.2912C33.4302 37.1433 33.4717 36.9796 33.4747 36.813C33.4728 36.5297 33.365 36.2574 33.1725 36.0495C32.9801 35.8415 32.7169 35.7131 32.4346 35.6892L32.3475 34.4561C32.3058 33.8907 32.0521 33.362 31.6372 32.9756C31.2224 32.5893 30.677 32.3738 30.1101 32.3724H27.8727C27.3058 32.3738 26.7604 32.5893 26.3455 32.9756C25.9307 33.362 25.677 33.8907 25.6353 34.4561L25.5482 35.6892C25.2657 35.7127 25.0023 35.841 24.8098 36.0491C24.6173 36.2571 24.5096 36.5296 24.508 36.813C24.5113 36.9819 24.5546 37.1475 24.6344 37.2964L24.643 37.3117C24.7229 37.4667 24.8374 37.6011 24.9777 37.7046C24.9811 37.7046 24.9846 37.7097 24.9863 37.7148C24.9914 37.7217 24.9948 37.7268 24.9999 37.7268L25.0204 37.6158C25.041 37.5152 25.0938 37.4241 25.1709 37.3562C25.2479 37.2884 25.345 37.2476 25.4474 37.24C25.4474 37.24 25.3962 37.8378 25.3791 38.2306C25.3715 38.3302 25.3877 38.43 25.4263 38.5221C25.4649 38.6142 25.5248 38.6957 25.6011 38.7601L25.7378 38.8796C25.8239 38.9572 25.8927 39.0521 25.9398 39.158C25.9869 39.2639 26.0111 39.3786 26.011 39.4945V40.0923C26.007 40.1747 26.0322 40.2558 26.0822 40.3215C26.1322 40.3871 26.2038 40.4329 26.2843 40.4509C28.0708 40.8609 29.9273 40.8609 31.7156 40.4509C31.7944 40.4298 31.8639 40.3831 31.9134 40.3182C31.9628 40.2533 31.9894 40.1739 31.9888 40.0923V39.4945C31.9886 39.3786 32.0128 39.2639 32.0599 39.1579C32.107 39.052 32.1759 38.9572 32.2621 38.8796L32.3817 38.7601C32.4578 38.6956 32.5177 38.6141 32.5563 38.522C32.5949 38.43 32.6111 38.3301 32.6037 38.2306C32.5695 37.8378 32.5354 37.2229 32.5354 37.2229C32.6423 37.2213 32.7462 37.2585 32.8279 37.3275C32.9095 37.3966 32.9633 37.493 32.9794 37.5987L33.0016 37.7148C33.0085 37.7114 33.0119 37.7029 33.0187 37.6977C33.0218 37.691 33.0265 37.6852 33.0324 37.6807C33.1428 37.5946 33.2361 37.4886 33.3074 37.3681Z"/>
</mask>
<path d="M29.9904 34.9343C29.683 34.7806 29.3414 34.6952 28.9656 34.6952C28.5899 34.6952 28.2483 34.7806 27.975 34.9343C27.8726 34.9856 27.753 34.8831 27.8213 34.7806C28.0604 34.4049 28.5045 34.1487 28.9827 34.1487C29.4609 34.1487 29.905 34.4049 30.1441 34.7806C30.1954 34.866 30.0929 34.9856 29.9904 34.9343ZM29.2389 37.018L29.5976 35.8396C29.6145 35.7838 29.618 35.7249 29.6079 35.6676C29.5978 35.6103 29.5744 35.5561 29.5394 35.5095C29.5045 35.463 29.4591 35.4253 29.4069 35.3995C29.3547 35.3738 29.2971 35.3607 29.2389 35.3613H28.6924C28.4362 35.3613 28.2654 35.6004 28.3337 35.8396L28.6924 37.018C28.7948 37.2742 29.1535 37.2742 29.2389 37.018ZM27.7872 36.9668C27.7872 37.0351 27.7701 37.0983 27.7393 37.1512C27.7312 37.1352 27.7195 37.1211 27.7051 37.1102C27.6907 37.0993 27.6741 37.0918 27.6564 37.0882C27.6387 37.0846 27.6205 37.0851 27.603 37.0896C27.5855 37.0941 27.5693 37.1025 27.5555 37.1141C27.5417 37.1258 27.5308 37.1404 27.5235 37.1569C27.5161 37.1734 27.5126 37.1913 27.5132 37.2093C27.5138 37.2274 27.5185 37.245 27.5269 37.261C27.5353 37.277 27.5472 37.2908 27.5617 37.3015C27.5191 37.3175 27.474 37.3256 27.4285 37.3255C27.2235 37.3255 27.0698 37.1717 27.0698 36.9668C27.0698 36.8985 27.0869 36.8472 27.104 36.796H27.7359C27.7872 36.8472 27.7872 36.8985 27.7872 36.9668ZM30.1441 36.9668C30.1441 37.1717 30.2978 37.3255 30.5028 37.3255C30.5526 37.3255 30.602 37.3156 30.648 37.2964C30.6348 37.2856 30.6241 37.272 30.6166 37.2567C30.6092 37.2413 30.605 37.2245 30.6046 37.2075C30.6041 37.1904 30.6073 37.1735 30.6139 37.1577C30.6206 37.142 30.6305 37.1279 30.6431 37.1163C30.6556 37.1048 30.6705 37.096 30.6867 37.0907C30.7029 37.0853 30.7201 37.0835 30.7371 37.0854C30.754 37.0872 30.7704 37.0927 30.7851 37.1014C30.7998 37.1101 30.8124 37.1219 30.8222 37.1359C30.8484 37.0834 30.8619 37.0255 30.8615 36.9668C30.8615 36.8985 30.8444 36.8472 30.8273 36.796H30.1954C30.1612 36.8472 30.1441 36.8985 30.1441 36.9668Z" fill="#F6EE28"/>
<path d="M27.4286 37.5986C27.3456 37.5986 27.2634 37.5823 27.1868 37.5505C27.1101 37.5188 27.0404 37.4722 26.9817 37.4136C26.9231 37.3549 26.8765 37.2852 26.8448 37.2085C26.813 37.1319 26.7967 37.0497 26.7967 36.9667C26.7967 36.9206 26.7967 36.8625 26.8086 36.813H26.5234C26.4038 36.813 26.3013 36.9325 26.3355 37.0521C26.4551 37.4791 26.8308 37.7865 27.292 37.7865C27.7702 37.7865 28.163 37.4449 28.2484 37.0009C28.2826 36.8984 28.1972 36.813 28.0947 36.813H28.0315C28.042 36.8635 28.046 36.9152 28.0435 36.9667C28.0605 37.3083 27.7873 37.5986 27.4286 37.5986ZM31.1348 36.9667C31.1348 37.3254 30.8445 37.5986 30.5029 37.5986C30.4207 37.5987 30.3393 37.5822 30.2636 37.5503C30.1878 37.5183 30.1193 37.4715 30.062 37.4126C30.0046 37.3536 29.9597 37.2838 29.9298 37.2072C29.9 37.1307 29.8857 37.0489 29.888 36.9667C29.888 36.9069 29.888 36.8591 29.9 36.813H29.8539C29.7514 36.813 29.666 36.8984 29.7002 37.0009C29.7685 37.4449 30.1784 37.7865 30.6566 37.7865C31.1178 37.7865 31.4935 37.4791 31.6131 37.0521C31.6472 36.9325 31.5447 36.813 31.4252 36.813H31.1229C31.1328 36.8636 31.1368 36.9152 31.1348 36.9667ZM26.3748 38.702L26.3799 38.7071L26.3885 38.7122L26.4004 38.7208C26.4314 38.7432 26.4633 38.7643 26.4961 38.784C26.895 39.0152 27.3586 39.11 27.8163 39.0538C27.9169 39.0416 28.0084 38.9899 28.0709 38.9101C28.1334 38.8304 28.1616 38.7291 28.1493 38.6285C28.1371 38.528 28.0854 38.4364 28.0057 38.3739C27.9259 38.3115 27.8246 38.2833 27.7241 38.2955C27.418 38.333 27.1083 38.2649 26.8462 38.1025L26.8394 38.0974C26.7592 38.0358 26.6578 38.0085 26.5576 38.0217C26.4573 38.0348 26.3664 38.0872 26.3048 38.1674C26.2432 38.2476 26.2159 38.3489 26.2291 38.4492C26.2422 38.5494 26.2946 38.6404 26.3748 38.702ZM31.1434 38.0974C31.2235 38.0358 31.3249 38.0085 31.4252 38.0217C31.5254 38.0348 31.6164 38.0872 31.678 38.1674C31.7396 38.2476 31.7668 38.3489 31.7537 38.4492C31.7405 38.5494 31.6881 38.6404 31.6079 38.702L31.6062 38.7037L31.6028 38.7071L31.5943 38.7122C31.5602 38.7388 31.5243 38.7627 31.4867 38.784C31.0877 39.0152 30.6241 39.11 30.1664 39.0538C30.1166 39.0478 30.0685 39.032 30.0248 39.0073C29.9812 38.9827 29.9428 38.9496 29.9118 38.9101C29.8809 38.8707 29.858 38.8255 29.8446 38.7771C29.8311 38.7288 29.8273 38.6783 29.8334 38.6285C29.8394 38.5787 29.8552 38.5306 29.8799 38.4869C29.9045 38.4433 29.9375 38.4049 29.977 38.3739C30.0165 38.343 30.0617 38.3202 30.11 38.3067C30.1584 38.2932 30.2089 38.2894 30.2587 38.2955C30.5647 38.333 30.8744 38.2649 31.1365 38.1025L31.1434 38.0974Z" fill="#F6EE28"/>
<path d="M35.0221 39.2776L35.0563 39.4706C35.1726 40.1168 35.078 40.7833 34.7864 41.3717C34.4949 41.96 34.0218 42.439 33.4372 42.7379L33.111 42.9087C33.0667 42.9325 33.0263 42.9631 32.9914 42.9992L32.2655 43.7251C31.8392 44.138 31.3011 44.4167 30.7178 44.5266C30.1346 44.6365 29.5319 44.5728 28.9846 44.3434C28.4529 44.532 27.8811 44.5779 27.3261 44.4766V47.8805C27.3214 48.7616 26.9785 49.6073 26.3683 50.243C25.7581 50.8786 24.9271 51.2557 24.0469 51.2964H21.3313C20.727 51.2907 20.144 51.0724 19.6846 50.6798C19.2252 50.2872 18.9187 49.7453 18.8188 49.1493C18.719 48.5533 18.8322 47.9412 19.1385 47.4203C19.4449 46.8994 19.9249 46.503 20.4944 46.3007V36.4595C20.438 36.2869 20.4092 36.1065 20.409 35.9249C20.5524 33.2981 21.1605 30.7191 22.2023 28.304V24.0547H20.4944C20.4327 24.0547 20.3712 24.0513 20.3099 24.0444L8.02638 24.0103L2.83764 25.117C2.71638 25.1392 2.5917 25.1512 2.46873 25.1529C1.97611 25.1232 1.5035 24.9475 1.11111 24.6482C0.718724 24.3489 0.424342 23.9395 0.265481 23.4723C0.0464885 23.0606 -0.0401867 22.5914 0.0172761 22.1286C0.0747389 21.6658 0.273542 21.2321 0.586575 20.8864C1.4098 20.0837 5.18607 16.8796 5.57377 16.5517C6.03492 16.1384 6.62928 15.9112 7.24585 15.9112C7.62343 15.9134 7.99595 15.9982 8.33731 16.1596C8.67867 16.321 8.9806 16.5551 9.22194 16.8455L9.82997 17.5867L20.1528 16.1691L20.2296 16.152L27.0614 15.0162L27.3261 14.9565C28.5115 14.7676 29.6625 14.405 30.742 13.8805L33.6421 11.3698C33.6718 11.344 33.7025 11.3195 33.7344 11.2963L41.6421 4.02904L41.5994 2.76858C41.5931 2.43807 41.6541 2.10973 41.7785 1.8035C41.903 1.49727 42.0885 1.21955 42.3236 0.987192C42.8571 0.419683 43.593 0.0857653 44.3714 0.0580701C44.3714 0.0580701 47.4372 0 49.4474 0C50.1682 0 50.7455 0.0085397 51.0222 0.0256191C51.4753 0.0555861 51.905 0.237692 52.2416 0.542421C52.5783 0.84715 52.8022 1.25664 52.877 1.70453C53.0491 2.26205 53.0404 2.85977 52.852 3.41202C52.6636 3.96427 52.3053 4.44273 51.8283 4.77883L51.0734 5.2024C49.8386 5.89411 48.462 6.66611 47.6968 7.08968L35.8659 23.0299V28.4612C36.7625 29.7165 37.4884 31.0846 38.0315 32.5295L44.9914 39.8737L45.2647 40.1691L45.3501 40.2631L46.0947 41.0675C46.1409 41.1085 46.1921 41.1563 46.2467 41.2127L47.2886 42.3229L47.3467 42.3878C47.6139 42.6957 47.7911 43.0714 47.8589 43.4734C47.9268 43.8755 47.8826 44.2885 47.7312 44.6671C47.5798 45.0457 47.3271 45.3753 47.0008 45.6198C46.6745 45.8642 46.2871 46.0141 45.8812 46.053C45.4471 46.3195 44.9345 46.4287 44.4295 46.3621C44.1571 46.4706 43.8659 46.524 43.5728 46.5193C43.2796 46.5146 42.9903 46.4519 42.7215 46.3348C42.4955 46.4349 42.2552 46.4989 42.0093 46.5244C41.9547 46.5346 41.8368 46.5346 41.7839 46.5346C41.2096 46.5397 40.6537 46.3321 40.2233 45.9518C39.7928 45.5715 39.5183 45.0454 39.4525 44.4749L39.374 43.8498L35.0221 39.2776ZM46.4859 5.85654L43.3808 4.70368L43.4201 4.72076L34.8462 12.5858L38.9521 16.0086L46.4876 5.85654H46.4859ZM34.1579 22.3467H23.8283H23.9103V28.6405C23.0086 30.6824 22.4284 32.8516 22.1904 35.0709H23.391C23.5413 34.8796 23.7156 34.7071 23.9103 34.5585L23.9444 34.2921C24.0239 33.3792 24.4169 32.522 25.0567 31.866C25.6965 31.21 26.5436 30.7957 27.4542 30.6935C27.7668 30.0581 28.216 29.2212 28.5388 28.8369C28.7437 28.5978 29.1195 28.5807 29.3244 28.8369C29.6507 29.2127 30.1033 30.0479 30.4261 30.6815C31.3658 30.7632 32.246 31.1757 32.91 31.8457C33.574 32.5156 33.9787 33.3995 34.052 34.3399L34.0674 34.5637C34.1135 34.5978 34.1579 34.6354 34.2023 34.673L36.2433 32.632C35.7167 31.345 35.0149 30.1369 34.1579 29.0419V22.3467ZM35.1776 36.9889L40.795 42.8814L40.9897 43.0983L41.1434 44.2597C41.1607 44.416 41.2355 44.5604 41.3532 44.6649C41.4709 44.7693 41.6231 44.8264 41.7805 44.825H41.8437C41.926 44.8159 42.0056 44.7905 42.0779 44.7502C42.1502 44.7099 42.2137 44.6554 42.2647 44.5902C42.3156 44.5249 42.353 44.4501 42.3745 44.3702C42.3961 44.2902 42.4014 44.2068 42.3902 44.1247L42.3731 43.971H42.4175C42.5475 43.9757 42.6703 44.0315 42.7591 44.1264L43.2203 44.6388C43.2715 44.6929 43.3332 44.736 43.4016 44.7653C43.47 44.7947 43.5438 44.8098 43.6182 44.8096C43.7338 44.8093 43.846 44.7708 43.9376 44.7003C44.0034 44.644 44.0548 44.5728 44.0875 44.4925C44.1202 44.4123 44.1332 44.3254 44.1255 44.2392L44.1391 44.2562V44.2733L44.3099 44.4646L44.327 44.4783L44.3441 44.4971C44.3915 44.5518 44.4503 44.5954 44.5164 44.6249C44.5825 44.6544 44.6543 44.6691 44.7267 44.6679C44.8517 44.6699 44.9732 44.6262 45.0683 44.5449C45.1237 44.4958 45.1678 44.4352 45.1976 44.3674C45.2274 44.2996 45.2421 44.2261 45.2408 44.1521L45.2391 44.1486V44.1077L45.2425 44.1521L45.2732 44.1828C45.3212 44.2363 45.3799 44.2792 45.4455 44.3086C45.5111 44.338 45.5822 44.3533 45.6541 44.3536C45.7838 44.3531 45.9091 44.3065 46.0076 44.2221C46.1073 44.1279 46.1666 43.9988 46.173 43.8618C46.1793 43.7248 46.1323 43.5907 46.0418 43.4877L44.9999 42.3775C44.9732 42.3511 44.9446 42.3266 44.9146 42.3041L44.3509 41.6943L44.3475 41.6909C44.2565 41.5913 44.1648 41.4922 44.0725 41.3937L44.0093 41.3254C43.9733 41.2852 43.9369 41.2453 43.9 41.2059L43.7412 41.0368L37.1793 34.1111L35.1127 36.1777C35.1734 36.4435 35.1953 36.7168 35.1776 36.9889ZM25.6182 43.6072C25.6027 43.5926 25.5873 43.5778 25.5721 43.5628L24.9914 42.9821C24.9464 42.9373 24.8937 42.9009 24.836 42.8745L24.6208 42.7567C24.0065 42.4728 23.5066 41.9891 23.2026 41.3846C22.8986 40.78 22.8085 40.0903 22.947 39.4279L23.169 38.2101C22.9218 37.7861 22.7921 37.3039 22.7933 36.813V36.7789H22.2023V47.1973L21.3483 47.8634C21.1256 47.866 20.9124 47.9544 20.7533 48.1104C20.5941 48.2663 20.5014 48.4776 20.4944 48.7003C20.4927 48.9276 20.5788 49.1468 20.7347 49.3122C20.8906 49.4776 21.1043 49.5766 21.3313 49.5884H24.0469C24.4729 49.5465 24.8685 49.3492 25.1584 49.0342C25.4482 48.7192 25.6119 48.3085 25.6182 47.8805V43.6072ZM20.4944 22.3467V17.8429L9.10238 19.404L9.09726 19.3954L9.15362 19.4774L7.80947 22.3023L20.4944 22.3365V22.3467ZM33.3074 37.3681L33.3244 37.3374L33.3364 37.3169L33.3449 37.3032L33.3535 37.2878V37.2912C33.4302 37.1433 33.4717 36.9796 33.4747 36.813C33.4728 36.5297 33.365 36.2574 33.1725 36.0495C32.9801 35.8415 32.7169 35.7131 32.4346 35.6892L32.3475 34.4561C32.3058 33.8907 32.0521 33.362 31.6372 32.9756C31.2224 32.5893 30.677 32.3738 30.1101 32.3724H27.8727C27.3058 32.3738 26.7604 32.5893 26.3455 32.9756C25.9307 33.362 25.677 33.8907 25.6353 34.4561L25.5482 35.6892C25.2657 35.7127 25.0023 35.841 24.8098 36.0491C24.6173 36.2571 24.5096 36.5296 24.508 36.813C24.5113 36.9819 24.5546 37.1475 24.6344 37.2964L24.643 37.3117C24.7229 37.4667 24.8374 37.6011 24.9777 37.7046C24.9811 37.7046 24.9846 37.7097 24.9863 37.7148C24.9914 37.7217 24.9948 37.7268 24.9999 37.7268L25.0204 37.6158C25.041 37.5152 25.0938 37.4241 25.1709 37.3562C25.2479 37.2884 25.345 37.2476 25.4474 37.24C25.4474 37.24 25.3962 37.8378 25.3791 38.2306C25.3715 38.3302 25.3877 38.43 25.4263 38.5221C25.4649 38.6142 25.5248 38.6957 25.6011 38.7601L25.7378 38.8796C25.8239 38.9572 25.8927 39.0521 25.9398 39.158C25.9869 39.2639 26.0111 39.3786 26.011 39.4945V40.0923C26.007 40.1747 26.0322 40.2558 26.0822 40.3215C26.1322 40.3871 26.2038 40.4329 26.2843 40.4509C28.0708 40.8609 29.9273 40.8609 31.7156 40.4509C31.7944 40.4298 31.8639 40.3831 31.9134 40.3182C31.9628 40.2533 31.9894 40.1739 31.9888 40.0923V39.4945C31.9886 39.3786 32.0128 39.2639 32.0599 39.1579C32.107 39.052 32.1759 38.9572 32.2621 38.8796L32.3817 38.7601C32.4578 38.6956 32.5177 38.6141 32.5563 38.522C32.5949 38.43 32.6111 38.3301 32.6037 38.2306C32.5695 37.8378 32.5354 37.2229 32.5354 37.2229C32.6423 37.2213 32.7462 37.2585 32.8279 37.3275C32.9095 37.3966 32.9633 37.493 32.9794 37.5987L33.0016 37.7148C33.0085 37.7114 33.0119 37.7029 33.0187 37.6977C33.0218 37.691 33.0265 37.6852 33.0324 37.6807C33.1428 37.5946 33.2361 37.4886 33.3074 37.3681Z" fill="#F6EE28"/>
<path d="M29.9904 34.9343C29.683 34.7806 29.3414 34.6952 28.9656 34.6952C28.5899 34.6952 28.2483 34.7806 27.975 34.9343C27.8726 34.9856 27.753 34.8831 27.8213 34.7806C28.0604 34.4049 28.5045 34.1487 28.9827 34.1487C29.4609 34.1487 29.905 34.4049 30.1441 34.7806C30.1954 34.866 30.0929 34.9856 29.9904 34.9343ZM29.2389 37.018L29.5976 35.8396C29.6145 35.7838 29.618 35.7249 29.6079 35.6676C29.5978 35.6103 29.5744 35.5561 29.5394 35.5095C29.5045 35.463 29.4591 35.4253 29.4069 35.3995C29.3547 35.3738 29.2971 35.3607 29.2389 35.3613H28.6924C28.4362 35.3613 28.2654 35.6004 28.3337 35.8396L28.6924 37.018C28.7948 37.2742 29.1535 37.2742 29.2389 37.018ZM27.7872 36.9668C27.7872 37.0351 27.7701 37.0983 27.7393 37.1512C27.7312 37.1352 27.7195 37.1211 27.7051 37.1102C27.6907 37.0993 27.6741 37.0918 27.6564 37.0882C27.6387 37.0846 27.6205 37.0851 27.603 37.0896C27.5855 37.0941 27.5693 37.1025 27.5555 37.1141C27.5417 37.1258 27.5308 37.1404 27.5235 37.1569C27.5161 37.1734 27.5126 37.1913 27.5132 37.2093C27.5138 37.2274 27.5185 37.245 27.5269 37.261C27.5353 37.277 27.5472 37.2908 27.5617 37.3015C27.5191 37.3175 27.474 37.3256 27.4285 37.3255C27.2235 37.3255 27.0698 37.1717 27.0698 36.9668C27.0698 36.8985 27.0869 36.8472 27.104 36.796H27.7359C27.7872 36.8472 27.7872 36.8985 27.7872 36.9668ZM30.1441 36.9668C30.1441 37.1717 30.2978 37.3255 30.5028 37.3255C30.5526 37.3255 30.602 37.3156 30.648 37.2964C30.6348 37.2856 30.6241 37.272 30.6166 37.2567C30.6092 37.2413 30.605 37.2245 30.6046 37.2075C30.6041 37.1904 30.6073 37.1735 30.6139 37.1577C30.6206 37.142 30.6305 37.1279 30.6431 37.1163C30.6556 37.1048 30.6705 37.096 30.6867 37.0907C30.7029 37.0853 30.7201 37.0835 30.7371 37.0854C30.754 37.0872 30.7704 37.0927 30.7851 37.1014C30.7998 37.1101 30.8124 37.1219 30.8222 37.1359C30.8484 37.0834 30.8619 37.0255 30.8615 36.9668C30.8615 36.8985 30.8444 36.8472 30.8273 36.796H30.1954C30.1612 36.8472 30.1441 36.8985 30.1441 36.9668Z" stroke="black" stroke-width="2" mask="url(#path-1-inside-1_14_73)"/>
<path d="M27.4286 37.5986C27.3456 37.5986 27.2634 37.5823 27.1868 37.5505C27.1101 37.5188 27.0404 37.4722 26.9817 37.4136C26.9231 37.3549 26.8765 37.2852 26.8448 37.2085C26.813 37.1319 26.7967 37.0497 26.7967 36.9667C26.7967 36.9206 26.7967 36.8625 26.8086 36.813H26.5234C26.4038 36.813 26.3013 36.9325 26.3355 37.0521C26.4551 37.4791 26.8308 37.7865 27.292 37.7865C27.7702 37.7865 28.163 37.4449 28.2484 37.0009C28.2826 36.8984 28.1972 36.813 28.0947 36.813H28.0315C28.042 36.8635 28.046 36.9152 28.0435 36.9667C28.0605 37.3083 27.7873 37.5986 27.4286 37.5986ZM31.1348 36.9667C31.1348 37.3254 30.8445 37.5986 30.5029 37.5986C30.4207 37.5987 30.3393 37.5822 30.2636 37.5503C30.1878 37.5183 30.1193 37.4715 30.062 37.4126C30.0046 37.3536 29.9597 37.2838 29.9298 37.2072C29.9 37.1307 29.8857 37.0489 29.888 36.9667C29.888 36.9069 29.888 36.8591 29.9 36.813H29.8539C29.7514 36.813 29.666 36.8984 29.7002 37.0009C29.7685 37.4449 30.1784 37.7865 30.6566 37.7865C31.1178 37.7865 31.4935 37.4791 31.6131 37.0521C31.6472 36.9325 31.5447 36.813 31.4252 36.813H31.1229C31.1328 36.8636 31.1368 36.9152 31.1348 36.9667ZM26.3748 38.702L26.3799 38.7071L26.3885 38.7122L26.4004 38.7208C26.4314 38.7432 26.4633 38.7643 26.4961 38.784C26.895 39.0152 27.3586 39.11 27.8163 39.0538C27.9169 39.0416 28.0084 38.9899 28.0709 38.9101C28.1334 38.8304 28.1616 38.7291 28.1493 38.6285C28.1371 38.528 28.0854 38.4364 28.0057 38.3739C27.9259 38.3115 27.8246 38.2833 27.7241 38.2955C27.418 38.333 27.1083 38.2649 26.8462 38.1025L26.8394 38.0974C26.7592 38.0358 26.6578 38.0085 26.5576 38.0217C26.4573 38.0348 26.3664 38.0872 26.3048 38.1674C26.2432 38.2476 26.2159 38.3489 26.2291 38.4492C26.2422 38.5494 26.2946 38.6404 26.3748 38.702ZM31.1434 38.0974C31.2235 38.0358 31.3249 38.0085 31.4252 38.0217C31.5254 38.0348 31.6164 38.0872 31.678 38.1674C31.7396 38.2476 31.7668 38.3489 31.7537 38.4492C31.7405 38.5494 31.6881 38.6404 31.6079 38.702L31.6062 38.7037L31.6028 38.7071L31.5943 38.7122C31.5602 38.7388 31.5243 38.7627 31.4867 38.784C31.0877 39.0152 30.6241 39.11 30.1664 39.0538C30.1166 39.0478 30.0685 39.032 30.0248 39.0073C29.9812 38.9827 29.9428 38.9496 29.9118 38.9101C29.8809 38.8707 29.858 38.8255 29.8446 38.7771C29.8311 38.7288 29.8273 38.6783 29.8334 38.6285C29.8394 38.5787 29.8552 38.5306 29.8799 38.4869C29.9045 38.4433 29.9375 38.4049 29.977 38.3739C30.0165 38.343 30.0617 38.3202 30.11 38.3067C30.1584 38.2932 30.2089 38.2894 30.2587 38.2955C30.5647 38.333 30.8744 38.2649 31.1365 38.1025L31.1434 38.0974Z" stroke="black" stroke-width="2" mask="url(#path-1-inside-1_14_73)"/>
<path d="M35.0221 39.2776L35.0563 39.4706C35.1726 40.1168 35.078 40.7833 34.7864 41.3717C34.4949 41.96 34.0218 42.439 33.4372 42.7379L33.111 42.9087C33.0667 42.9325 33.0263 42.9631 32.9914 42.9992L32.2655 43.7251C31.8392 44.138 31.3011 44.4167 30.7178 44.5266C30.1346 44.6365 29.5319 44.5728 28.9846 44.3434C28.4529 44.532 27.8811 44.5779 27.3261 44.4766V47.8805C27.3214 48.7616 26.9785 49.6073 26.3683 50.243C25.7581 50.8786 24.9271 51.2557 24.0469 51.2964H21.3313C20.727 51.2907 20.144 51.0724 19.6846 50.6798C19.2252 50.2872 18.9187 49.7453 18.8188 49.1493C18.719 48.5533 18.8322 47.9412 19.1385 47.4203C19.4449 46.8994 19.9249 46.503 20.4944 46.3007V36.4595C20.438 36.2869 20.4092 36.1065 20.409 35.9249C20.5524 33.2981 21.1605 30.7191 22.2023 28.304V24.0547H20.4944C20.4327 24.0547 20.3712 24.0513 20.3099 24.0444L8.02638 24.0103L2.83764 25.117C2.71638 25.1392 2.5917 25.1512 2.46873 25.1529C1.97611 25.1232 1.5035 24.9475 1.11111 24.6482C0.718724 24.3489 0.424342 23.9395 0.265481 23.4723C0.0464885 23.0606 -0.0401867 22.5914 0.0172761 22.1286C0.0747389 21.6658 0.273542 21.2321 0.586575 20.8864C1.4098 20.0837 5.18607 16.8796 5.57377 16.5517C6.03492 16.1384 6.62928 15.9112 7.24585 15.9112C7.62343 15.9134 7.99595 15.9982 8.33731 16.1596C8.67867 16.321 8.9806 16.5551 9.22194 16.8455L9.82997 17.5867L20.1528 16.1691L20.2296 16.152L27.0614 15.0162L27.3261 14.9565C28.5115 14.7676 29.6625 14.405 30.742 13.8805L33.6421 11.3698C33.6718 11.344 33.7025 11.3195 33.7344 11.2963L41.6421 4.02904L41.5994 2.76858C41.5931 2.43807 41.6541 2.10973 41.7785 1.8035C41.903 1.49727 42.0885 1.21955 42.3236 0.987192C42.8571 0.419683 43.593 0.0857653 44.3714 0.0580701C44.3714 0.0580701 47.4372 0 49.4474 0C50.1682 0 50.7455 0.0085397 51.0222 0.0256191C51.4753 0.0555861 51.905 0.237692 52.2416 0.542421C52.5783 0.84715 52.8022 1.25664 52.877 1.70453C53.0491 2.26205 53.0404 2.85977 52.852 3.41202C52.6636 3.96427 52.3053 4.44273 51.8283 4.77883L51.0734 5.2024C49.8386 5.89411 48.462 6.66611 47.6968 7.08968L35.8659 23.0299V28.4612C36.7625 29.7165 37.4884 31.0846 38.0315 32.5295L44.9914 39.8737L45.2647 40.1691L45.3501 40.2631L46.0947 41.0675C46.1409 41.1085 46.1921 41.1563 46.2467 41.2127L47.2886 42.3229L47.3467 42.3878C47.6139 42.6957 47.7911 43.0714 47.8589 43.4734C47.9268 43.8755 47.8826 44.2885 47.7312 44.6671C47.5798 45.0457 47.3271 45.3753 47.0008 45.6198C46.6745 45.8642 46.2871 46.0141 45.8812 46.053C45.4471 46.3195 44.9345 46.4287 44.4295 46.3621C44.1571 46.4706 43.8659 46.524 43.5728 46.5193C43.2796 46.5146 42.9903 46.4519 42.7215 46.3348C42.4955 46.4349 42.2552 46.4989 42.0093 46.5244C41.9547 46.5346 41.8368 46.5346 41.7839 46.5346C41.2096 46.5397 40.6537 46.3321 40.2233 45.9518C39.7928 45.5715 39.5183 45.0454 39.4525 44.4749L39.374 43.8498L35.0221 39.2776ZM46.4859 5.85654L43.3808 4.70368L43.4201 4.72076L34.8462 12.5858L38.9521 16.0086L46.4876 5.85654H46.4859ZM34.1579 22.3467H23.8283H23.9103V28.6405C23.0086 30.6824 22.4284 32.8516 22.1904 35.0709H23.391C23.5413 34.8796 23.7156 34.7071 23.9103 34.5585L23.9444 34.2921C24.0239 33.3792 24.4169 32.522 25.0567 31.866C25.6965 31.21 26.5436 30.7957 27.4542 30.6935C27.7668 30.0581 28.216 29.2212 28.5388 28.8369C28.7437 28.5978 29.1195 28.5807 29.3244 28.8369C29.6507 29.2127 30.1033 30.0479 30.4261 30.6815C31.3658 30.7632 32.246 31.1757 32.91 31.8457C33.574 32.5156 33.9787 33.3995 34.052 34.3399L34.0674 34.5637C34.1135 34.5978 34.1579 34.6354 34.2023 34.673L36.2433 32.632C35.7167 31.345 35.0149 30.1369 34.1579 29.0419V22.3467ZM35.1776 36.9889L40.795 42.8814L40.9897 43.0983L41.1434 44.2597C41.1607 44.416 41.2355 44.5604 41.3532 44.6649C41.4709 44.7693 41.6231 44.8264 41.7805 44.825H41.8437C41.926 44.8159 42.0056 44.7905 42.0779 44.7502C42.1502 44.7099 42.2137 44.6554 42.2647 44.5902C42.3156 44.5249 42.353 44.4501 42.3745 44.3702C42.3961 44.2902 42.4014 44.2068 42.3902 44.1247L42.3731 43.971H42.4175C42.5475 43.9757 42.6703 44.0315 42.7591 44.1264L43.2203 44.6388C43.2715 44.6929 43.3332 44.736 43.4016 44.7653C43.47 44.7947 43.5438 44.8098 43.6182 44.8096C43.7338 44.8093 43.846 44.7708 43.9376 44.7003C44.0034 44.644 44.0548 44.5728 44.0875 44.4925C44.1202 44.4123 44.1332 44.3254 44.1255 44.2392L44.1391 44.2562V44.2733L44.3099 44.4646L44.327 44.4783L44.3441 44.4971C44.3915 44.5518 44.4503 44.5954 44.5164 44.6249C44.5825 44.6544 44.6543 44.6691 44.7267 44.6679C44.8517 44.6699 44.9732 44.6262 45.0683 44.5449C45.1237 44.4958 45.1678 44.4352 45.1976 44.3674C45.2274 44.2996 45.2421 44.2261 45.2408 44.1521L45.2391 44.1486V44.1077L45.2425 44.1521L45.2732 44.1828C45.3212 44.2363 45.3799 44.2792 45.4455 44.3086C45.5111 44.338 45.5822 44.3533 45.6541 44.3536C45.7838 44.3531 45.9091 44.3065 46.0076 44.2221C46.1073 44.1279 46.1666 43.9988 46.173 43.8618C46.1793 43.7248 46.1323 43.5907 46.0418 43.4877L44.9999 42.3775C44.9732 42.3511 44.9446 42.3266 44.9146 42.3041L44.3509 41.6943L44.3475 41.6909C44.2565 41.5913 44.1648 41.4922 44.0725 41.3937L44.0093 41.3254C43.9733 41.2852 43.9369 41.2453 43.9 41.2059L43.7412 41.0368L37.1793 34.1111L35.1127 36.1777C35.1734 36.4435 35.1953 36.7168 35.1776 36.9889ZM25.6182 43.6072C25.6027 43.5926 25.5873 43.5778 25.5721 43.5628L24.9914 42.9821C24.9464 42.9373 24.8937 42.9009 24.836 42.8745L24.6208 42.7567C24.0065 42.4728 23.5066 41.9891 23.2026 41.3846C22.8986 40.78 22.8085 40.0903 22.947 39.4279L23.169 38.2101C22.9218 37.7861 22.7921 37.3039 22.7933 36.813V36.7789H22.2023V47.1973L21.3483 47.8634C21.1256 47.866 20.9124 47.9544 20.7533 48.1104C20.5941 48.2663 20.5014 48.4776 20.4944 48.7003C20.4927 48.9276 20.5788 49.1468 20.7347 49.3122C20.8906 49.4776 21.1043 49.5766 21.3313 49.5884H24.0469C24.4729 49.5465 24.8685 49.3492 25.1584 49.0342C25.4482 48.7192 25.6119 48.3085 25.6182 47.8805V43.6072ZM20.4944 22.3467V17.8429L9.10238 19.404L9.09726 19.3954L9.15362 19.4774L7.80947 22.3023L20.4944 22.3365V22.3467ZM33.3074 37.3681L33.3244 37.3374L33.3364 37.3169L33.3449 37.3032L33.3535 37.2878V37.2912C33.4302 37.1433 33.4717 36.9796 33.4747 36.813C33.4728 36.5297 33.365 36.2574 33.1725 36.0495C32.9801 35.8415 32.7169 35.7131 32.4346 35.6892L32.3475 34.4561C32.3058 33.8907 32.0521 33.362 31.6372 32.9756C31.2224 32.5893 30.677 32.3738 30.1101 32.3724H27.8727C27.3058 32.3738 26.7604 32.5893 26.3455 32.9756C25.9307 33.362 25.677 33.8907 25.6353 34.4561L25.5482 35.6892C25.2657 35.7127 25.0023 35.841 24.8098 36.0491C24.6173 36.2571 24.5096 36.5296 24.508 36.813C24.5113 36.9819 24.5546 37.1475 24.6344 37.2964L24.643 37.3117C24.7229 37.4667 24.8374 37.6011 24.9777 37.7046C24.9811 37.7046 24.9846 37.7097 24.9863 37.7148C24.9914 37.7217 24.9948 37.7268 24.9999 37.7268L25.0204 37.6158C25.041 37.5152 25.0938 37.4241 25.1709 37.3562C25.2479 37.2884 25.345 37.2476 25.4474 37.24C25.4474 37.24 25.3962 37.8378 25.3791 38.2306C25.3715 38.3302 25.3877 38.43 25.4263 38.5221C25.4649 38.6142 25.5248 38.6957 25.6011 38.7601L25.7378 38.8796C25.8239 38.9572 25.8927 39.0521 25.9398 39.158C25.9869 39.2639 26.0111 39.3786 26.011 39.4945V40.0923C26.007 40.1747 26.0322 40.2558 26.0822 40.3215C26.1322 40.3871 26.2038 40.4329 26.2843 40.4509C28.0708 40.8609 29.9273 40.8609 31.7156 40.4509C31.7944 40.4298 31.8639 40.3831 31.9134 40.3182C31.9628 40.2533 31.9894 40.1739 31.9888 40.0923V39.4945C31.9886 39.3786 32.0128 39.2639 32.0599 39.1579C32.107 39.052 32.1759 38.9572 32.2621 38.8796L32.3817 38.7601C32.4578 38.6956 32.5177 38.6141 32.5563 38.522C32.5949 38.43 32.6111 38.3301 32.6037 38.2306C32.5695 37.8378 32.5354 37.2229 32.5354 37.2229C32.6423 37.2213 32.7462 37.2585 32.8279 37.3275C32.9095 37.3966 32.9633 37.493 32.9794 37.5987L33.0016 37.7148C33.0085 37.7114 33.0119 37.7029 33.0187 37.6977C33.0218 37.691 33.0265 37.6852 33.0324 37.6807C33.1428 37.5946 33.2361 37.4886 33.3074 37.3681Z" stroke="black" stroke-width="2" mask="url(#path-1-inside-1_14_73)"/>
</svg>
