<svg width="44" height="44" viewBox="0 0 44 44" fill="none" xmlns="http://www.w3.org/2000/svg">
<g filter="url(#filter0_d_4_161)">
<mask id="path-1-inside-1_4_161" fill="white">
<path d="M22 0C17.1152 0 16.501 0.0225 14.5817 0.108C12.6625 0.198 11.3552 0.4995 10.21 0.945C9.00871 1.39684 7.92061 2.10561 7.02175 3.02175C6.10617 3.92107 5.39749 5.00904 4.945 6.21C4.4995 7.353 4.19575 8.6625 4.108 10.575C4.0225 12.4987 4 13.1108 4 18.0023C4 22.8893 4.0225 23.5013 4.108 25.4205C4.198 27.3375 4.4995 28.6447 4.945 29.79C5.40625 30.9735 6.0205 31.977 7.02175 32.9782C8.02075 33.9795 9.02425 34.596 10.2078 35.055C11.3553 35.5005 12.6603 35.8042 14.5773 35.892C16.4988 35.9775 17.1108 36 22 36C26.8892 36 27.499 35.9775 29.4205 35.892C31.3353 35.802 32.647 35.5005 33.7922 35.055C34.9928 34.6029 36.0801 33.8942 36.9782 32.9782C37.9795 31.977 38.5938 30.9735 39.055 29.79C39.4982 28.6447 39.802 27.3375 39.892 25.4205C39.9775 23.5013 40 22.8892 40 18C40 13.1108 39.9775 12.4988 39.892 10.5773C39.802 8.6625 39.4982 7.353 39.055 6.21C38.6026 5.00901 37.8939 3.92102 36.9782 3.02175C36.0797 2.10527 34.9915 1.39645 33.79 0.945C32.6425 0.4995 31.333 0.19575 29.4182 0.108C27.4967 0.0225 26.887 0 21.9955 0H22.0023H22ZM20.3867 3.2445H22.0023C26.8083 3.2445 27.3775 3.26025 29.2743 3.348C31.0292 3.42675 31.9832 3.7215 32.6178 3.96675C33.457 4.293 34.0578 4.6845 34.6877 5.3145C35.3177 5.9445 35.707 6.543 36.0333 7.3845C36.2808 8.01675 36.5732 8.97075 36.652 10.7257C36.7397 12.6225 36.7578 13.1918 36.7578 17.9955C36.7578 22.7992 36.7397 23.3707 36.652 25.2675C36.5732 27.0225 36.2785 27.9743 36.0333 28.6087C35.7447 29.3903 35.2841 30.097 34.6855 30.6765C34.0555 31.3065 33.457 31.6958 32.6155 32.022C31.9855 32.2695 31.0315 32.562 29.2743 32.643C27.3775 32.7285 26.8083 32.7487 22.0023 32.7487C17.1963 32.7487 16.6248 32.7285 14.728 32.643C12.973 32.562 12.0212 32.2695 11.3868 32.022C10.6049 31.7338 9.89753 31.2741 9.31675 30.6765C8.71769 30.0961 8.25638 29.3887 7.96675 28.6065C7.7215 27.9742 7.42675 27.0203 7.348 25.2653C7.2625 23.3685 7.2445 22.7992 7.2445 17.991C7.2445 13.185 7.2625 12.618 7.348 10.7212C7.429 8.96625 7.7215 8.01225 7.969 7.37775C8.29525 6.5385 8.68675 5.93775 9.31675 5.30775C9.94675 4.67775 10.5452 4.2885 11.3868 3.96225C12.0212 3.71475 12.973 3.42225 14.728 3.34125C16.3885 3.26475 17.032 3.24225 20.3867 3.24V3.2445ZM31.6097 6.2325C31.3261 6.2325 31.0452 6.28837 30.7832 6.39692C30.5211 6.50547 30.283 6.66457 30.0824 6.86515C29.8818 7.06572 29.7227 7.30384 29.6142 7.5659C29.5056 7.82797 29.4497 8.10884 29.4497 8.3925C29.4497 8.67616 29.5056 8.95703 29.6142 9.2191C29.7227 9.48116 29.8818 9.71928 30.0824 9.91985C30.283 10.1204 30.5211 10.2795 30.7832 10.3881C31.0452 10.4966 31.3261 10.5525 31.6097 10.5525C32.1826 10.5525 32.732 10.3249 33.1371 9.91985C33.5422 9.51477 33.7698 8.96537 33.7698 8.3925C33.7698 7.81963 33.5422 7.27023 33.1371 6.86515C32.732 6.46007 32.1826 6.2325 31.6097 6.2325ZM22.0023 8.757C20.7762 8.73787 19.5585 8.96284 18.4202 9.41882C17.2819 9.87479 16.2457 10.5527 15.3718 11.413C14.498 12.2732 13.8041 13.2988 13.3304 14.4298C12.8567 15.5609 12.6128 16.7749 12.6128 18.0011C12.6128 19.2274 12.8567 20.4414 13.3304 21.5724C13.8041 22.7035 14.498 23.729 15.3718 24.5893C16.2457 25.4496 17.2819 26.1275 18.4202 26.5834C19.5585 27.0394 20.7762 27.2644 22.0023 27.2453C24.429 27.2074 26.7435 26.2168 28.4462 24.4873C30.1489 22.7578 31.1033 20.4281 31.1033 18.0011C31.1033 15.5741 30.1489 13.2444 28.4462 11.5149C26.7435 9.78545 24.429 8.79486 22.0023 8.757ZM22.0023 11.9993C23.5937 11.9993 25.1201 12.6315 26.2454 13.7568C27.3708 14.8822 28.003 16.4085 28.003 18C28.003 19.5915 27.3708 21.1178 26.2454 22.2432C25.1201 23.3685 23.5937 24.0007 22.0023 24.0007C20.4108 24.0007 18.8844 23.3685 17.7591 22.2432C16.6337 21.1178 16.0015 19.5915 16.0015 18C16.0015 16.4085 16.6337 14.8822 17.7591 13.7568C18.8844 12.6315 20.4108 11.9993 22.0023 11.9993Z"/>
</mask>
<path d="M22 0C17.1152 0 16.501 0.0225 14.5817 0.108C12.6625 0.198 11.3552 0.4995 10.21 0.945C9.00871 1.39684 7.92061 2.10561 7.02175 3.02175C6.10617 3.92107 5.39749 5.00904 4.945 6.21C4.4995 7.353 4.19575 8.6625 4.108 10.575C4.0225 12.4987 4 13.1108 4 18.0023C4 22.8893 4.0225 23.5013 4.108 25.4205C4.198 27.3375 4.4995 28.6447 4.945 29.79C5.40625 30.9735 6.0205 31.977 7.02175 32.9782C8.02075 33.9795 9.02425 34.596 10.2078 35.055C11.3553 35.5005 12.6603 35.8042 14.5773 35.892C16.4988 35.9775 17.1108 36 22 36C26.8892 36 27.499 35.9775 29.4205 35.892C31.3353 35.802 32.647 35.5005 33.7922 35.055C34.9928 34.6029 36.0801 33.8942 36.9782 32.9782C37.9795 31.977 38.5938 30.9735 39.055 29.79C39.4982 28.6447 39.802 27.3375 39.892 25.4205C39.9775 23.5013 40 22.8892 40 18C40 13.1108 39.9775 12.4988 39.892 10.5773C39.802 8.6625 39.4982 7.353 39.055 6.21C38.6026 5.00901 37.8939 3.92102 36.9782 3.02175C36.0797 2.10527 34.9915 1.39645 33.79 0.945C32.6425 0.4995 31.333 0.19575 29.4182 0.108C27.4967 0.0225 26.887 0 21.9955 0H22.0023H22ZM20.3867 3.2445H22.0023C26.8083 3.2445 27.3775 3.26025 29.2743 3.348C31.0292 3.42675 31.9832 3.7215 32.6178 3.96675C33.457 4.293 34.0578 4.6845 34.6877 5.3145C35.3177 5.9445 35.707 6.543 36.0333 7.3845C36.2808 8.01675 36.5732 8.97075 36.652 10.7257C36.7397 12.6225 36.7578 13.1918 36.7578 17.9955C36.7578 22.7992 36.7397 23.3707 36.652 25.2675C36.5732 27.0225 36.2785 27.9743 36.0333 28.6087C35.7447 29.3903 35.2841 30.097 34.6855 30.6765C34.0555 31.3065 33.457 31.6958 32.6155 32.022C31.9855 32.2695 31.0315 32.562 29.2743 32.643C27.3775 32.7285 26.8083 32.7487 22.0023 32.7487C17.1963 32.7487 16.6248 32.7285 14.728 32.643C12.973 32.562 12.0212 32.2695 11.3868 32.022C10.6049 31.7338 9.89753 31.2741 9.31675 30.6765C8.71769 30.0961 8.25638 29.3887 7.96675 28.6065C7.7215 27.9742 7.42675 27.0203 7.348 25.2653C7.2625 23.3685 7.2445 22.7992 7.2445 17.991C7.2445 13.185 7.2625 12.618 7.348 10.7212C7.429 8.96625 7.7215 8.01225 7.969 7.37775C8.29525 6.5385 8.68675 5.93775 9.31675 5.30775C9.94675 4.67775 10.5452 4.2885 11.3868 3.96225C12.0212 3.71475 12.973 3.42225 14.728 3.34125C16.3885 3.26475 17.032 3.24225 20.3867 3.24V3.2445ZM31.6097 6.2325C31.3261 6.2325 31.0452 6.28837 30.7832 6.39692C30.5211 6.50547 30.283 6.66457 30.0824 6.86515C29.8818 7.06572 29.7227 7.30384 29.6142 7.5659C29.5056 7.82797 29.4497 8.10884 29.4497 8.3925C29.4497 8.67616 29.5056 8.95703 29.6142 9.2191C29.7227 9.48116 29.8818 9.71928 30.0824 9.91985C30.283 10.1204 30.5211 10.2795 30.7832 10.3881C31.0452 10.4966 31.3261 10.5525 31.6097 10.5525C32.1826 10.5525 32.732 10.3249 33.1371 9.91985C33.5422 9.51477 33.7698 8.96537 33.7698 8.3925C33.7698 7.81963 33.5422 7.27023 33.1371 6.86515C32.732 6.46007 32.1826 6.2325 31.6097 6.2325ZM22.0023 8.757C20.7762 8.73787 19.5585 8.96284 18.4202 9.41882C17.2819 9.87479 16.2457 10.5527 15.3718 11.413C14.498 12.2732 13.8041 13.2988 13.3304 14.4298C12.8567 15.5609 12.6128 16.7749 12.6128 18.0011C12.6128 19.2274 12.8567 20.4414 13.3304 21.5724C13.8041 22.7035 14.498 23.729 15.3718 24.5893C16.2457 25.4496 17.2819 26.1275 18.4202 26.5834C19.5585 27.0394 20.7762 27.2644 22.0023 27.2453C24.429 27.2074 26.7435 26.2168 28.4462 24.4873C30.1489 22.7578 31.1033 20.4281 31.1033 18.0011C31.1033 15.5741 30.1489 13.2444 28.4462 11.5149C26.7435 9.78545 24.429 8.79486 22.0023 8.757ZM22.0023 11.9993C23.5937 11.9993 25.1201 12.6315 26.2454 13.7568C27.3708 14.8822 28.003 16.4085 28.003 18C28.003 19.5915 27.3708 21.1178 26.2454 22.2432C25.1201 23.3685 23.5937 24.0007 22.0023 24.0007C20.4108 24.0007 18.8844 23.3685 17.7591 22.2432C16.6337 21.1178 16.0015 19.5915 16.0015 18C16.0015 16.4085 16.6337 14.8822 17.7591 13.7568C18.8844 12.6315 20.4108 11.9993 22.0023 11.9993Z" fill="#F728E2"/>
<path d="M22 0C17.1152 0 16.501 0.0225 14.5817 0.108C12.6625 0.198 11.3552 0.4995 10.21 0.945C9.00871 1.39684 7.92061 2.10561 7.02175 3.02175C6.10617 3.92107 5.39749 5.00904 4.945 6.21C4.4995 7.353 4.19575 8.6625 4.108 10.575C4.0225 12.4987 4 13.1108 4 18.0023C4 22.8893 4.0225 23.5013 4.108 25.4205C4.198 27.3375 4.4995 28.6447 4.945 29.79C5.40625 30.9735 6.0205 31.977 7.02175 32.9782C8.02075 33.9795 9.02425 34.596 10.2078 35.055C11.3553 35.5005 12.6603 35.8042 14.5773 35.892C16.4988 35.9775 17.1108 36 22 36C26.8892 36 27.499 35.9775 29.4205 35.892C31.3353 35.802 32.647 35.5005 33.7922 35.055C34.9928 34.6029 36.0801 33.8942 36.9782 32.9782C37.9795 31.977 38.5938 30.9735 39.055 29.79C39.4982 28.6447 39.802 27.3375 39.892 25.4205C39.9775 23.5013 40 22.8892 40 18C40 13.1108 39.9775 12.4988 39.892 10.5773C39.802 8.6625 39.4982 7.353 39.055 6.21C38.6026 5.00901 37.8939 3.92102 36.9782 3.02175C36.0797 2.10527 34.9915 1.39645 33.79 0.945C32.6425 0.4995 31.333 0.19575 29.4182 0.108C27.4967 0.0225 26.887 0 21.9955 0H22.0023H22ZM20.3867 3.2445H22.0023C26.8083 3.2445 27.3775 3.26025 29.2743 3.348C31.0292 3.42675 31.9832 3.7215 32.6178 3.96675C33.457 4.293 34.0578 4.6845 34.6877 5.3145C35.3177 5.9445 35.707 6.543 36.0333 7.3845C36.2808 8.01675 36.5732 8.97075 36.652 10.7257C36.7397 12.6225 36.7578 13.1918 36.7578 17.9955C36.7578 22.7992 36.7397 23.3707 36.652 25.2675C36.5732 27.0225 36.2785 27.9743 36.0333 28.6087C35.7447 29.3903 35.2841 30.097 34.6855 30.6765C34.0555 31.3065 33.457 31.6958 32.6155 32.022C31.9855 32.2695 31.0315 32.562 29.2743 32.643C27.3775 32.7285 26.8083 32.7487 22.0023 32.7487C17.1963 32.7487 16.6248 32.7285 14.728 32.643C12.973 32.562 12.0212 32.2695 11.3868 32.022C10.6049 31.7338 9.89753 31.2741 9.31675 30.6765C8.71769 30.0961 8.25638 29.3887 7.96675 28.6065C7.7215 27.9742 7.42675 27.0203 7.348 25.2653C7.2625 23.3685 7.2445 22.7992 7.2445 17.991C7.2445 13.185 7.2625 12.618 7.348 10.7212C7.429 8.96625 7.7215 8.01225 7.969 7.37775C8.29525 6.5385 8.68675 5.93775 9.31675 5.30775C9.94675 4.67775 10.5452 4.2885 11.3868 3.96225C12.0212 3.71475 12.973 3.42225 14.728 3.34125C16.3885 3.26475 17.032 3.24225 20.3867 3.24V3.2445ZM31.6097 6.2325C31.3261 6.2325 31.0452 6.28837 30.7832 6.39692C30.5211 6.50547 30.283 6.66457 30.0824 6.86515C29.8818 7.06572 29.7227 7.30384 29.6142 7.5659C29.5056 7.82797 29.4497 8.10884 29.4497 8.3925C29.4497 8.67616 29.5056 8.95703 29.6142 9.2191C29.7227 9.48116 29.8818 9.71928 30.0824 9.91985C30.283 10.1204 30.5211 10.2795 30.7832 10.3881C31.0452 10.4966 31.3261 10.5525 31.6097 10.5525C32.1826 10.5525 32.732 10.3249 33.1371 9.91985C33.5422 9.51477 33.7698 8.96537 33.7698 8.3925C33.7698 7.81963 33.5422 7.27023 33.1371 6.86515C32.732 6.46007 32.1826 6.2325 31.6097 6.2325ZM22.0023 8.757C20.7762 8.73787 19.5585 8.96284 18.4202 9.41882C17.2819 9.87479 16.2457 10.5527 15.3718 11.413C14.498 12.2732 13.8041 13.2988 13.3304 14.4298C12.8567 15.5609 12.6128 16.7749 12.6128 18.0011C12.6128 19.2274 12.8567 20.4414 13.3304 21.5724C13.8041 22.7035 14.498 23.729 15.3718 24.5893C16.2457 25.4496 17.2819 26.1275 18.4202 26.5834C19.5585 27.0394 20.7762 27.2644 22.0023 27.2453C24.429 27.2074 26.7435 26.2168 28.4462 24.4873C30.1489 22.7578 31.1033 20.4281 31.1033 18.0011C31.1033 15.5741 30.1489 13.2444 28.4462 11.5149C26.7435 9.78545 24.429 8.79486 22.0023 8.757ZM22.0023 11.9993C23.5937 11.9993 25.1201 12.6315 26.2454 13.7568C27.3708 14.8822 28.003 16.4085 28.003 18C28.003 19.5915 27.3708 21.1178 26.2454 22.2432C25.1201 23.3685 23.5937 24.0007 22.0023 24.0007C20.4108 24.0007 18.8844 23.3685 17.7591 22.2432C16.6337 21.1178 16.0015 19.5915 16.0015 18C16.0015 16.4085 16.6337 14.8822 17.7591 13.7568C18.8844 12.6315 20.4108 11.9993 22.0023 11.9993Z" stroke="black" stroke-width="2" mask="url(#path-1-inside-1_4_161)"/>
</g>
<defs>
<filter id="filter0_d_4_161" x="0" y="0" width="44" height="44" filterUnits="userSpaceOnUse" color-interpolation-filters="sRGB">
<feFlood flood-opacity="0" result="BackgroundImageFix"/>
<feColorMatrix in="SourceAlpha" type="matrix" values="0 0 0 0 0 0 0 0 0 0 0 0 0 0 0 0 0 0 127 0" result="hardAlpha"/>
<feOffset dy="4"/>
<feGaussianBlur stdDeviation="2"/>
<feComposite in2="hardAlpha" operator="out"/>
<feColorMatrix type="matrix" values="0 0 0 0 0 0 0 0 0 0 0 0 0 0 0 0 0 0 0.25 0"/>
<feBlend mode="normal" in2="BackgroundImageFix" result="effect1_dropShadow_4_161"/>
<feBlend mode="normal" in="SourceGraphic" in2="effect1_dropShadow_4_161" result="shape"/>
</filter>
</defs>
</svg>
