<svg width="42" height="36" viewBox="0 0 42 36" fill="none" xmlns="http://www.w3.org/2000/svg">
<g filter="url(#filter0_d_4_193)">
<path d="M38 3.29412C36.7486 3.87059 35.3996 4.24941 34.0019 4.43059C35.4321 3.55765 36.5373 2.17412 37.0574 0.510588C35.7084 1.33412 34.2132 1.91059 32.6367 2.24C31.3528 0.82353 29.5488 0 27.501 0C23.6816 0 20.5612 3.16235 20.5612 7.06588C20.5612 7.62588 20.6262 8.16941 20.74 8.68C14.9541 8.38353 9.8021 5.56706 6.37285 1.30118C5.77151 2.33882 5.43021 3.55765 5.43021 4.84235C5.43021 7.29647 6.64914 9.47059 8.53442 10.7059C7.3805 10.7059 6.30784 10.3765 5.3652 9.88235V9.93176C5.3652 13.3576 7.77056 16.2235 10.956 16.8659C9.9333 17.1495 8.85962 17.189 7.81931 16.9812C8.26074 18.3853 9.12525 19.6138 10.2913 20.4942C11.4574 21.3746 12.8664 21.8626 14.3203 21.8894C11.8558 23.8666 8.80095 24.9353 5.65774 24.92C5.10516 24.92 4.55258 24.8871 4 24.8212C7.08795 26.8306 10.761 28 14.6941 28C27.501 28 34.5382 17.2282 34.5382 7.88941C34.5382 7.57647 34.5382 7.28 34.522 6.96706C35.8872 5.97882 37.0574 4.72706 38 3.29412Z" fill="#F6EE28"/>
<path d="M10.5926 20.0952C9.72595 19.4409 9.03808 18.5788 8.58762 17.5909C9.4271 17.6556 10.2735 17.574 11.0896 17.3477L11.0549 16.3757C8.3389 15.8281 6.22612 13.5313 5.90699 10.6825C6.71186 11.0045 7.59536 11.2059 8.53442 11.2059H10.2098L8.80845 10.2877C7.06539 9.14555 5.93021 7.12933 5.93021 4.84235C5.93021 3.90705 6.12452 3.01067 6.47582 2.20427C9.98162 6.24488 15.0509 8.88915 20.7144 9.17935L21.371 9.21299L21.228 8.57126C21.1218 8.09445 21.0612 7.58739 21.0612 7.06588C21.0612 3.43066 23.9656 0.5 27.501 0.5C29.4087 0.5 31.0778 1.2647 32.2663 2.5758L32.4586 2.78801L32.739 2.72943C33.8834 2.49031 34.9885 2.12471 36.0305 1.63181C35.4777 2.61118 34.6856 3.42752 33.7414 4.0038L34.0662 4.92644C34.9202 4.81574 35.7579 4.6335 36.5685 4.37935C35.8742 5.20303 35.0911 5.93782 34.2288 6.56204L34.0086 6.72146L34.0227 6.99299C34.0381 7.29094 34.0382 7.57467 34.0382 7.88941C34.0382 17.0195 27.1619 27.5 14.6941 27.5C11.5814 27.5 8.63609 26.7485 6.02692 25.4169C9.15388 25.3502 12.177 24.25 14.6332 22.2794L15.7106 21.415L14.3295 21.3895C12.9817 21.3646 11.6749 20.9123 10.5926 20.0952ZM5.6553 25.42C5.6557 25.42 5.65609 25.42 5.65648 25.42L5.65627 25.2227L5.6553 25.42Z" stroke="black"/>
</g>
<defs>
<filter id="filter0_d_4_193" x="0" y="0" width="42" height="36" filterUnits="userSpaceOnUse" color-interpolation-filters="sRGB">
<feFlood flood-opacity="0" result="BackgroundImageFix"/>
<feColorMatrix in="SourceAlpha" type="matrix" values="0 0 0 0 0 0 0 0 0 0 0 0 0 0 0 0 0 0 127 0" result="hardAlpha"/>
<feOffset dy="4"/>
<feGaussianBlur stdDeviation="2"/>
<feComposite in2="hardAlpha" operator="out"/>
<feColorMatrix type="matrix" values="0 0 0 0 0 0 0 0 0 0 0 0 0 0 0 0 0 0 0.25 0"/>
<feBlend mode="normal" in2="BackgroundImageFix" result="effect1_dropShadow_4_193"/>
<feBlend mode="normal" in="SourceGraphic" in2="effect1_dropShadow_4_193" result="shape"/>
</filter>
</defs>
</svg>
